<svg xmlns="http://www.w3.org/2000/svg" viewBox="0 0 32 32" style="enable-background:new 0 0 32 32" xml:space="preserve"><path d="M27.49 14.78c-.57.32-1.06.67-1.6.88-.8.32-1.05.81-1.01 1.69.08 1.82.02 3.65.03 5.48 0 .45-.17.73-.58.93-2.51 1.21-5.02 2.43-7.52 3.65-.32.16-.61.15-.93-.01-2.56-1.22-5.12-2.43-7.68-3.64-.42-.2-.61-.48-.6-.95.01-2.08 0-4.16.01-6.25 0-.26-.08-.39-.3-.51-1.43-.79-2.86-1.6-4.29-2.4-.29-.16-.52-.36-.51-.72.01-.36.24-.55.54-.71 4.24-2.27 8.48-4.54 12.71-6.82.34-.18.64-.2.98-.02 4.25 2.29 8.51 4.58 12.77 6.86.29.15.49.35.5.7 0 .34-.19.58-.49.7-.5.19-.62.51-.62 1.04.03 3.56.01 7.12.01 10.68 0 .65-.25.99-.72.99s-.7-.34-.71-1V15.23c.01-.13.01-.26.01-.45zm.3-1.81c-.11-.07-.17-.11-.23-.14-3.69-1.98-7.39-3.96-11.08-5.96-.2-.11-.34-.06-.51.03-3.67 1.97-7.35 3.95-11.02 5.92-.07.03-.13.08-.22.13.12.07.19.12.27.17 3.68 2.07 7.35 4.13 11.02 6.21.2.11.34.06.5-.03 2.56-1.44 5.12-2.88 7.69-4.32 1.18-.66 2.35-1.32 3.58-2.01zm-4.32 4.08c-.21.11-.36.19-.51.28-2.06 1.15-4.11 2.3-6.16 3.47-.37.21-.69.22-1.07 0-2.09-1.19-4.19-2.36-6.28-3.54-.12-.07-.24-.13-.36-.19-.02.06-.03.09-.03.11 0 1.7-.01 3.39 0 5.09 0 .1.12.24.22.3 2.29 1.15 4.59 2.29 6.89 3.43.11.05.3.05.41-.01 2.22-1.12 4.43-2.26 6.64-3.38.19-.1.27-.21.26-.43-.02-.49 0-.98 0-1.46-.01-1.2-.01-2.4-.01-3.67z" style="fill:#aeb5bc"/></svg>