<svg xmlns="http://www.w3.org/2000/svg" viewBox="0 0 32 32" style="enable-background:new 0 0 32 32" xml:space="preserve"><path d="M30.1 5.31a4.19 4.19 0 0 0-3.4-3.4c-2.63-.46-7.67-.17-10.14 1.91-.2.17-.39.35-.55.54a4.69 4.69 0 0 0-.55-.54C12.97 1.73 7.93 1.44 5.31 1.9a4.19 4.19 0 0 0-3.4 3.4C1.3 8.73 1 12.33 1 16c0 3.67.3 7.27.9 10.69a4.19 4.19 0 0 0 3.4 3.4c3.43.61 7.03.91 10.7.91s7.27-.3 10.69-.9a4.19 4.19 0 0 0 3.4-3.4c.61-3.43.91-7.03.91-10.7 0-3.67-.3-7.27-.9-10.69zM5.84 9.99l6 1a1.015 1.015 0 0 0 1.15-.83.999.999 0 0 0-.82-1.15l-6-1a1.004 1.004 0 1 0-.33 1.98zm0 4 6 1a1.015 1.015 0 0 0 1.15-.83.999.999 0 0 0-.82-1.15l-6-1a.999.999 0 0 0-1.15.82c-.1.55.27 1.07.82 1.16zm0 4 6 1a1.015 1.015 0 0 0 1.15-.83.999.999 0 0 0-.82-1.15l-6-1a.999.999 0 0 0-1.15.82c-.1.55.27 1.07.82 1.16zM20 11c.05 0 .11 0 .17-.01l6-1c.54-.09.91-.61.82-1.15-.09-.54-.61-.91-1.15-.82l-6 1c-.54.09-.91.61-.82 1.15.07.48.5.83.98.83zm0 4c.05 0 .11 0 .17-.01l6-1c.54-.09.91-.61.82-1.15-.09-.54-.61-.91-1.15-.82l-6 1c-.54.09-.91.61-.82 1.15.07.48.5.83.98.83zm0 4c.05 0 .11 0 .17-.01l6-1c.54-.09.91-.61.82-1.15-.09-.54-.61-.91-1.15-.82l-6 1c-.54.09-.91.61-.82 1.15.07.48.5.83.98.83zM17.84 5.35c1.88-1.58 6.22-1.87 8.51-1.47.91.16 1.62.87 1.78 1.78.58 3.3.87 6.78.87 10.34 0 2.91-.21 5.75-.59 8.5-.47-.28-1.04-.48-1.71-.6-2.48-.43-7.1-.2-9.69 1.57V7c-.01-.64.26-1.18.83-1.65zm-13.97.3c.16-.91.87-1.62 1.78-1.78 2.29-.4 6.63-.11 8.51 1.47.57.48.84 1.02.84 1.66v18.48c-2.6-1.77-7.22-2.01-9.69-1.58-.67.12-1.24.32-1.71.6-.39-2.75-.6-5.59-.6-8.5 0-3.56.29-7.04.87-10.35zm.19 21.24c.16-.49.55-.83 1.59-1.02 2.29-.4 6.63-.11 8.51 1.47.56.47.83 1 .84 1.63-3.18-.05-6.35-.32-9.35-.85-.71-.12-1.29-.59-1.59-1.23zm22.29 1.24c-2.99.52-6.16.8-9.35.85.01-.63.28-1.16.84-1.63 1.88-1.58 6.22-1.87 8.51-1.47 1.04.18 1.43.53 1.59 1.02-.3.63-.88 1.1-1.59 1.23z" style="fill: #81cc71"/></svg>