<svg xmlns="http://www.w3.org/2000/svg" viewBox="0 0 32 32" style="enable-background:new 0 0 32 32" xml:space="preserve"><path d="M21.53 26.5H10.47c-2.73 0-4.97-2.24-4.97-4.97V10.47c0-2.73 2.24-4.97 4.97-4.97h11.06c2.73 0 4.97 2.24 4.97 4.97v11.06c0 2.73-2.24 4.97-4.97 4.97z" style="fill:none;stroke:#000;stroke-miterlimit:10"/><path d="M12.13 20.25c-.13-.48-.24-.96-.39-1.43-.04-.11-.23-.26-.33-.25-.55.06-1.1.13-1.64.26-.41.1-.64.09-.76-.2-.12-.28.03-.52.41-.67.7-.28 1.44-.37 2.21-.31.09-.54.19-1.08.28-1.63-.83-.18-1.5-.62-2.05-1.26-.27-.32-.29-.58-.05-.78.22-.18.48-.13.74.17.41.47.87.86 1.51.94.11.01.27-.07.35-.16.25-.31.47-.64.69-.97.06-.09.09-.23.07-.33-.26-1.16-.01-2.19.76-3.1.07-.09.1-.28.06-.39-.26-.74-1-1.08-1.79-.86-.78.22-1.23.9-1.08 1.67.01.07.03.15.03.22.03.28-.09.47-.37.52-.28.05-.46-.1-.53-.36-.36-1.39.78-3.13 2.45-3 .94.07 1.53.48 2.1 1.35.58-.12 1.13-.32 1.68-.32.54 0 1.08.2 1.6.3.33-.31.65-.71 1.07-.97.82-.52 1.71-.54 2.52.04.83.59 1.21 1.43 1.06 2.46-.06.37-.27.56-.56.5-.28-.05-.4-.27-.34-.64.15-1.02-.35-1.69-1.36-1.83-.66-.09-1.32.32-1.51.96-.03.1.01.27.08.35.76.91 1.01 1.94.75 3.11-.02.1.02.24.08.32.21.32.45.62.65.95.1.17.19.22.38.19.53-.08.94-.37 1.31-.73.1-.1.18-.21.27-.31.2-.22.43-.26.66-.07.23.19.23.44.04.66-.48.59-1.06 1.04-1.8 1.27-.12.04-.24.07-.34.1.09.54.18 1.06.26 1.53.65.1 1.28.19 1.91.3.17.03.33.11.49.19.24.12.35.32.24.59-.12.28-.33.32-.62.25-.54-.13-1.08-.25-1.63-.33-.3-.05-.49.09-.54.44-.06.41-.21.81-.3 1.16.48.4.97.78 1.44 1.2.16.14.28.35.39.54.15.25.12.5-.13.65-.27.16-.5.07-.66-.2-.28-.48-.65-.88-1.16-1.13-.25-.12-.41-.12-.61.15-.82 1.13-1.89 1.87-3.32 1.98-1.63.13-2.88-.6-3.88-1.83-.38-.47-.48-.52-.97-.14-.33.26-.6.59-.86.92-.23.3-.48.42-.71.24-.27-.2-.25-.45-.08-.72.39-.59.79-.95 1.83-1.56zm3.88-6.95c-1.84.05-3.45 2.2-3.42 4.55.02 2.39 1.63 4.53 3.42 4.53V13.3zm.96 9.09c1.91-.1 3.5-2.3 3.42-4.7-.08-2.34-1.68-4.41-3.42-4.38v9.08zm1.98-9.28c.14-1.05-.31-2.01-1.14-2.5-.89-.52-2.09-.45-2.89.17-.71.55-1.08 1.54-.87 2.32 1.62-1.05 3.25-1.05 4.9.01z"/></svg>