<?xml version="1.0" encoding="UTF-8"?>
<svg id="Layer_1" data-name="Layer 1" xmlns="http://www.w3.org/2000/svg" xmlns:xlink="http://www.w3.org/1999/xlink"
  viewBox="0 0 500 500">
  <defs>
    <style>
      .cls-1 {
        fill: url(#linear-gradient-2);
      }

      .cls-2 {
        fill: #fff;
      }

      .cls-3 {
        fill: url(#linear-gradient-3);
      }

      .cls-4 {
        fill: url(#linear-gradient);
      }
    </style>
    <linearGradient id="linear-gradient" x1="306.89" y1="155.86" x2="319.05" y2="168.03"
      gradientTransform="translate(473.15 -151.93) rotate(89.68)" gradientUnits="userSpaceOnUse">
      <stop offset="0" stop-color="#0eb495" />
      <stop offset=".99" stop-color="#bbeb7d" />
    </linearGradient>
    <linearGradient id="linear-gradient-2" x1="115.32" y1="118.96" x2="369.91" y2="373.55"
      gradientTransform="matrix(1,0,0,1,0,0)" xlink:href="#linear-gradient" />
    <linearGradient id="linear-gradient-3" x1="203.6" y1="155.86" x2="215.77" y2="168.03"
      gradientTransform="translate(370.45 -48.65) rotate(89.68)" xlink:href="#linear-gradient" />
  </defs>
  <g>
    <circle class="cls-4" cx="312.97" cy="161.94" r="8.61" transform="translate(149.27 474) rotate(-89.68)" />
    <path class="cls-1"
      d="m325.79,36.58c-27.92-1.65-56.18-1.57-83.93.18-64.65,4.11-115.63,57.04-119.09,121.89-39.98,22.83-65.48,65.56-65.48,112.04v111.06c0,18.26,10.47,33.96,27.31,40.99,5.7,2.38,11.59,3.54,17.41,3.54,11.45,0,22.59-4.52,31.3-13.14,10.2-10.21,24.82-15.2,41.68-13.78.15.02,1.69.1,1.84.11,28.45,1.73,56.07,1.77,83.87.17,53.93-3.17,99.1-38.83,115.6-88.12,7.94,6.32,17.35,9.8,27.12,9.8,5.77,0,11.63-1.15,17.3-3.5,16.94-7.02,27.46-22.76,27.46-41.09v-111.06c0-68.32-53.75-125.03-122.37-129.09Zm-116.1,168.39c-23.73,0-43.04-19.3-43.04-43.03s19.31-43.03,43.04-43.03,43.04,19.3,43.04,43.03-19.31,43.03-43.04,43.03Zm103.29,0c-23.73,0-43.04-19.3-43.04-43.03s19.31-43.03,43.04-43.03,43.04,19.3,43.04,43.03-19.31,43.03-43.04,43.03Z" />
    <circle class="cls-3" cx="209.68" cy="161.94" r="8.61" transform="translate(46.57 370.71) rotate(-89.68)" />
  </g>
  <path class="cls-2"
    d="m329.95,25.52c-29.51-1.75-59.38-1.66-88.71.19-68.33,4.34-122.21,60.29-125.88,128.83-42.25,24.14-69.21,69.3-69.21,118.42v117.38c0,19.3,11.06,35.89,28.86,43.32,6.03,2.51,12.26,3.74,18.4,3.74,12.1,0,23.87-4.77,33.08-13.89,10.78-10.79,26.23-16.07,44.05-14.56.16.02,1.78.11,1.94.12,30.07,1.83,59.27,1.87,88.64.18,57-3.36,104.75-41.05,122.18-93.13,8.39,6.68,18.34,10.36,28.66,10.36,6.1,0,12.3-1.22,18.29-3.7,17.9-7.42,29.02-24.06,29.02-43.43v-117.38c0-72.21-56.81-132.15-129.34-136.44Zm-70.81,349.36c-27.98,1.6-55.22,1.58-85.23-.19l-1.75-.11c-26.49-2.36-51.99,6.57-69.96,24.54-5.67,5.61-12.1,3.54-13.94,2.77-2.31-.97-7.69-4.02-7.69-11.55v-117.38c0-31.21,14.58-60.26,38.3-79.43,13.75,57.35,63.87,101.19,125.47,104.83,29.5,1.74,59.41,1.67,88.69-.19l3.28-.24c5.51-.47,10.83.08,16.01,1.08-11.21,42.11-48.28,73.23-93.18,75.87Zm165.72-95.54c0,7.59-5.43,10.66-7.77,11.62-2.35.97-8.36,2.64-13.72-2.72-16.1-16.09-38.25-24.97-61.8-24.97-2.75,0-5.52.13-8.3.37l-2.4.18c-27.93,1.78-56.38,1.85-84.48.19-54.37-3.23-96.95-48.06-96.95-102.08s41.29-98.51,94-101.86c27.93-1.78,56.37-1.85,84.48-.19,54.37,3.23,96.95,48.06,96.95,102.08v117.38Z" />
</svg>