<svg xmlns="http://www.w3.org/2000/svg" viewBox="0 0 32 32"><g fill-rule="evenodd" clip-rule="evenodd"><path d="M6.3 14.6c.2 0 .4-.1.6-.1l1.5 1.2v.2c0 .7.6 1.3 1.3 1.3.7 0 1.3-.6 1.3-1.3 0-.2-.1-.4-.1-.6.7-1.1 1.6-2.4 2.1-3.2h.2c.3 0 .6-.1.8-.3.5.3 1.1.6 1.6 1 0 .7.6 1.3 1.3 1.3.7 0 1.3-.6 1.3-1.3s-.6-1.3-1.3-1.3c-.3 0-.6.1-.8.3l-1.6-1v-.1c0-.7-.6-1.3-1.3-1.3-.7 0-1.3.6-1.3 1.3 0 .2.1.4.2.6-.7 1-1.6 2.3-2.1 3.2-.1 0-.2-.1-.3-.1-.3 0-.5.1-.7.2-.4-.3-.9-.7-1.4-1.1 0-.1.1-.2.1-.3 0-.7-.6-1.3-1.3-1.3-.7 0-1.3.6-1.3 1.3-.1.9.5 1.4 1.2 1.4z" fill="#fff"/><path d="M29.9 27l-10.8-9.6c-.5.7-1.1 1.2-1.7 1.8-.1 0-.1.1-.2.1l10.9 9.9c.2.2.5.3.8.3.4 0 .8-.2 1.1-.5.6-.6.5-1.5-.1-2z" fill="#dcdddd"/><path d="M7.8 22.1c1.3.5 2.6.8 4 .8s2.7-.3 4-.8c1.1-.5 2.1-1.1 3-2 .1 0 .2-.1.2-.1.6-.6 1.1-1.2 1.5-1.9.3-.4.5-.9.7-1.3.5-1.3.8-2.6.8-4s-.3-2.7-.8-4c-.1-.2-.1-.3-.2-.5-.5-1-1.2-1.9-2-2.7-.5-.6-1-1-1.6-1.4-.5-.3-1-.6-1.6-.9-1.3-.5-2.6-.8-4-.8s-2.7.3-4 .8c-.5.3-1 .5-1.5.9-.6.3-1.2.8-1.7 1.3-.8.8-1.5 1.7-2 2.7 0 .2-.1.4-.2.6-.5 1.3-.8 2.6-.8 4s.3 2.7.8 4c.5 1.1 1.3 2.2 2.2 3.2.9.9 2 1.6 3.2 2.1zM6.1 8.3c0-.1.1-.2.2-.3.1-.2.3-.3.4-.5 1.4-1.4 3.2-2.1 5.1-2.1 1.9 0 3.8.8 5.1 2.1.2.2.3.3.4.5 0 .1.1.1.1.2 1 1.3 1.5 2.8 1.5 4.5 0 1.9-.8 3.8-2.1 5.1-1.4 1.4-3.2 2.1-5.1 2.1-1.9 0-3.8-.8-5.1-2.1-1.4-1.4-2.1-3.2-2.1-5.1 0-1.6.6-3.2 1.6-4.4z" fill="#ededee"/></g></svg>