<?xml version="1.0" encoding="UTF-8"?>
<svg id="Layer_2" data-name="Layer 2" xmlns="http://www.w3.org/2000/svg" viewBox="0 0 51.84 51.84">
  <defs>
    <style>
      .active-1 {
        fill: #fff;
      }

      .active-2 {
        fill: #e27526;
      }
    </style>
  </defs>
  <g id="Layer_1-2" data-name="Layer 1">
    <g>
      <circle class="active-2" cx="25.92" cy="25.92" r="25.92" />
      <path class="active-1"
        d="m36.31,14.77H15.45c-2.21,0-4.01,1.8-4.01,4.01v14.44c0,2.21,1.8,4.01,4.01,4.01h20.86c2.21,0,4.01-1.8,4.01-4.01v-14.44c0-2.21-1.8-4.01-4.01-4.01Zm-7.4,11.23l9.5-8.38c.19.35.31.74.31,1.16v14.44c0,.42-.12.81-.31,1.16l-9.5-8.38Zm3.21-4.97l-5.7,5.03c-.3.27-.76.27-1.06,0l-10.79-9.52c.28-.11.57-.17.89-.17h20.86c.31,0,.61.06.89.17l-5.08,4.49m-18.76,13.35c-.19-.35-.31-.74-.31-1.16v-14.44c0-.42.12-.81.31-1.16l9.5,8.38-9.5,8.38Zm2.1,1.25c-.31,0-.61-.06-.89-.17l9.5-8.38.22.2c.45.4,1.02.6,1.59.6s1.14-.2,1.59-.6l.22-.2,9.5,8.38c-.28.11-.57.17-.89.17H15.45Z" />
    </g>
  </g>
</svg>