<svg version="1.1" id="Layer_1" xmlns="http://www.w3.org/2000/svg" x="0" y="0" viewBox="0 0 32 32" xml:space="preserve"><style>.st1,.st2{fill-rule:evenodd;clip-rule:evenodd;fill:#ededee}.st2{fill: #81cc71}.st3{fill:#ededee}</style><path d="M4.5 3.2h20.2l4 4v20.2c0 .7-.6 1.3-1.3 1.3h-23c-.7 0-1.3-.6-1.3-1.3v-23c.1-.6.7-1.2 1.4-1.2z" fill-rule="evenodd" clip-rule="evenodd" fill="#dbdbdb"/><path class="st1" d="M8.5 3.2h15.1v6.3c0 .9-.7 1.5-1.5 1.5H10c-.9 0-1.5-.7-1.5-1.5V3.2zM23.7 28.8H8.3v-8c0-.9.8-1.7 1.7-1.7h12c.9 0 1.7.8 1.7 1.7v8z"/><path class="st2" d="M9 3.2h14v6.3c0 .6-.5 1-1 1H10c-.6 0-1-.5-1-1V3.2zM9 28.8h14v-8c0-.6-.5-1-1-1H10c-.6 0-1 .5-1 1v8z"/><path class="st1" d="M18 3.2h3.1v6H18z"/><path class="st3" d="M11 23.1h10.1v.6H11zM11 25.9h10.1v.6H11z"/></svg>