<?xml version="1.0" encoding="utf-8"?>
<!-- Generator: Adobe Illustrator 24.1.3, SVG Export Plug-In . SVG Version: 6.00 Build 0)  -->
<svg version="1.1" id="Layer_1" xmlns="http://www.w3.org/2000/svg" xmlns:xlink="http://www.w3.org/1999/xlink" x="0px" y="0px"
	 viewBox="0 0 128 128" style="enable-background:new 0 0 128 128;" xml:space="preserve">
<style type="text/css">
	.st0{fill:#FFFFFF;}
	.st1{fill:#605DA9;}
	.st2{fill:#F6C253;}
</style>
<path class="st0" d="M117.5,89.6c-0.7,8.3-1.5,16.5-2.2,24.8c-0.1,0.7-0.3,1-1,1c-17.2,0.6-33.2,5.9-49,12.2
	c-0.5,0.2-0.9,0.5-1.4,0.4V57.7c9.3-4,18.9-7,28.8-9.3c8.7-2,17.5-3.3,26.4-3.6h1.5c0.8-0.1,1,0.2,1,1c-0.8,8.2-1.5,16.3-2.3,24.5
	c-1.1,0.1-2.2,0.2-3.2,0.4c-4.5,1.1-7.5,5.2-7.2,9.6C109.3,85.6,112.5,89,117.5,89.6z"/>
<path class="st1" d="M64,57.7V128c-4.2-1.6-8.4-3.2-12.6-4.7c-9.4-3.3-19-5.9-28.9-7.3c-2.8-0.4-5.7-0.7-8.5-0.7c-0.7,0-1.3,0-1.4-1
	c-0.7-8.3-1.4-16.5-2.2-24.8c7.4-1,11.1-8.8,7.1-14.9c-2.1-3.2-5.3-4.2-8.9-4.4C8,62.7,7.3,55,6.6,47.4c-0.2-2.6-0.2-2.6,2.5-2.5
	c16.3,0.6,31.9,4.3,47.2,9.8C58.9,55.6,61.5,56.5,64,57.7z"/>
<path class="st2" d="M89.6,25.7C89.7,38.8,79.2,51.2,64,51.2c-14.9,0-25.7-12.1-25.6-25.7C38.5,11.4,49.9,0,64,0
	C78.3,0,89.6,11.4,89.6,25.7z M8.7,70.4c3.6,0.1,6.8,1.2,8.9,4.4c4,6.1,0.3,14-7.1,14.9c-1.6,0.1-3.2,0.3-4.8,0
	c-1.4-0.3-2.2-1.1-2.5-2.4c-0.4-1.7-0.1-3.5-0.2-5.2v-7c0-3.4,1-4.5,4.4-4.5C7.9,70.4,8.3,70.4,8.7,70.4z M117.5,89.6
	c-5.1-0.7-8.3-4.1-8.7-9.3c-0.3-4.3,2.7-8.5,7.2-9.6c1.1-0.3,2.2-0.3,3.2-0.4c0.9,0.1,1.9,0.1,2.8,0.2c1.7,0.3,2.7,1.4,2.8,3
	c0.1,4.3,0.1,8.6,0,12.9c0,1.9-1.1,3-3,3.3C120.4,89.9,119,89.8,117.5,89.6z"/>
</svg>
