<svg version="1.1" id="Layer_1" xmlns="http://www.w3.org/2000/svg" x="0" y="0" viewBox="0 0 32 32" style="enable-background:new 0 0 32 32" xml:space="preserve"><style>.st0{fill:#aeb5bc}</style><path class="st0" d="M16.05 4.26c4.02.02 7.41 3.06 7.84 7.05.17 1.62-.14 3.17-.69 4.69-.85 2.34-2.15 4.43-3.63 6.42a37.26 37.26 0 0 1-3.09 3.67c-.31.32-.56.32-.86 0-2.31-2.46-4.35-5.12-5.88-8.14-.79-1.57-1.36-3.2-1.55-4.96-.46-4.2 2.62-8.11 6.81-8.63.34-.06.69-.07 1.05-.1zm-.03 20.89c.12-.12.2-.21.28-.3 1.27-1.39 2.44-2.86 3.48-4.43 1.09-1.64 2.04-3.35 2.65-5.23.41-1.27.65-2.56.47-3.9-.52-3.83-3.9-6.43-7.74-5.99-3.63.42-6.36 3.79-6.04 7.43.16 1.81.79 3.46 1.61 5.06 1.05 2.04 2.38 3.9 3.84 5.67.47.56.95 1.11 1.45 1.69z"/><path class="st0" d="M16.33 28.99c-2.45-.02-4.59-.17-6.68-.71-.84-.22-1.67-.48-2.39-.99-.13-.09-.24-.19-.35-.29-.57-.57-.61-1.3-.1-1.93.33-.41.78-.67 1.25-.88 1.16-.52 2.4-.75 3.65-.91.27-.03.49.16.52.42.03.27-.14.49-.43.54-.4.07-.81.12-1.21.2-.87.18-1.74.38-2.52.84-.19.11-.36.25-.51.41-.21.21-.22.42.01.61.28.22.59.43.91.58 1.07.48 2.21.7 3.36.87 2.69.38 5.39.39 8.08.04 1.24-.16 2.48-.39 3.63-.9.3-.13.59-.31.85-.51.3-.23.32-.49.02-.72-.33-.26-.7-.5-1.09-.66-.96-.41-1.98-.58-3.01-.72-.21-.03-.38-.09-.48-.29-.16-.34.1-.73.48-.68 1.34.17 2.66.42 3.88 1.02.42.21.81.47 1.09.86.43.6.39 1.27-.13 1.81-.42.44-.96.7-1.52.92-1.14.45-2.33.68-3.54.84-.6.08-1.2.14-1.8.18-.74.02-1.51.03-1.97.05zM21.37 12.1a5.33 5.33 0 0 1-5.26 5.34c-3.02.03-5.42-2.35-5.42-5.33 0-2.94 2.39-5.33 5.33-5.34 2.95 0 5.35 2.4 5.35 5.33zm-5.34 4.38c2.41 0 4.36-1.95 4.37-4.36a4.353 4.353 0 0 0-4.36-4.37 4.366 4.366 0 0 0-.01 8.73z"/></svg>