<svg version="1.1" id="Layer_1" xmlns="http://www.w3.org/2000/svg" x="0" y="0" viewBox="0 0 32 32" xml:space="preserve"><style>.st0{fill:none;stroke:#1f6af6;stroke-miterlimit:10}</style><path class="st0" d="M4.3 22.7l12.1 3.5 12-3.5"/><path class="st0" d="M16.4 26.2V23s-3-1.2-5.6-2.2c-.9-.4-1.9-.3-2.8.1-.9.4-1.6 1.1-1.9 2.1M16.4 26.2V23s3-1.2 5.6-2.2c.9-.4 1.9-.3 2.8.1.9.4 1.6 1.2 1.9 2.1M16.4 22.7V20c0-1.4.7-2.8 1.9-3.6 1.4-1 3.1-2.2 3.1-2.2M16.4 20.4v-3.3c0-2.2-.9-4.4-2.5-5.9l-1.6-1.6"/><path class="st0" d="M16.1 13.6s2-4.6-1.9-6.2c-3.8-1.6-4.3-1.2-4.3-1.2s-.8 4.4 1.7 6.5M18.9 15.9s-.9-3.5 2-4.8c2.9-1.2 4-.5 4-.5s.5 3.7-1.5 5.2"/></svg>