<svg version="1.1" id="Layer_1" xmlns="http://www.w3.org/2000/svg" x="0" y="0" viewBox="0 0 62 62" style="enable-background:new 0 0 62 62" xml:space="preserve"><style>.st1{fill:#6e757c}</style><circle cx="31" cy="31" r="30" style="fill:#ccc"/><path class="st1" d="M18.28 31.09c0-7.1 5.75-12.85 12.85-12.84 7.31.01 13.02 5.99 12.87 13.14-.14 6.89-5.76 12.58-12.86 12.58-7.13.01-12.86-5.74-12.86-12.88zm24.38.03c.02-6.21-4.95-11.43-11.33-11.54-6.53-.11-11.73 5.15-11.73 11.51-.01 6.33 5.07 11.47 11.36 11.55 6.59.08 11.72-5.24 11.7-11.52z"/><path class="st1" d="M28.93 31.49c.86 0 1.72-.02 2.58 0 2.62.09 4.67 2.16 4.95 4.52.18 1.55-.19 2.94-1.2 4.13-.9 1.06-2.06 1.63-3.45 1.81-2.65.34-4.94-1.55-5.55-3.6-.15-.52-.25-1.04-.25-1.58-.01-1.69 0-3.37-.01-5.06 0-.19.05-.24.24-.23.89 0 1.79 0 2.69.01 0-.01 0-.01 0 0zM33.06 30.78c-.87 0-1.73.02-2.6 0-2.45-.08-4.58-2.04-4.9-4.48-.36-2.82 1.36-5.29 4.12-5.9 3.03-.67 6.07 1.57 6.3 4.66.08 1.12.02 2.24.03 3.35.01.71-.01 1.42.01 2.13 0 .22-.07.26-.27.25-.89-.01-1.79-.01-2.69-.01z"/></svg>