<svg xmlns="http://www.w3.org/2000/svg" viewBox="0 0 32 32" style="enable-background:new 0 0 32 32" xml:space="preserve"><path d="m28 5.41 1.29 1.29c.2.2.45.3.71.3.26 0 .51-.1.71-.29a.996.996 0 0 0 0-1.41l-4-4a.996.996 0 1 0-1.41 1.41L26.59 4l-.73.72C23.22 2.41 19.78 1 16 1 7.73 1 1 7.73 1 16s6.73 15 15 15 15-6.73 15-15c0-3.78-1.41-7.22-3.73-9.86l.73-.73zM6.15 16c.51 0 .94-.38.99-.9.46-4.56 4.26-8 8.85-8 1.25 0 2.46.25 3.6.76a1 1 0 1 0 .81-1.83c-1.38-.62-2.87-.93-4.4-.93-5.62 0-10.28 4.21-10.84 9.8a1 1 0 0 0 .89 1.1h.1zm1.37 2.7a.999.999 0 0 0-1.26-.65c-.53.17-.82.73-.65 1.26a10.88 10.88 0 0 0 2.68 4.4c.2.19.45.29.71.29.26 0 .51-.1.71-.29a.996.996 0 0 0 0-1.41 8.888 8.888 0 0 1-2.19-3.6zM22.36 8.22l-4.24 4.24c-.04.04-.05.08-.08.12-1.52-.88-3.59-.69-4.87.58-.75.77-1.17 1.77-1.17 2.84 0 1.07.42 2.07 1.17 2.83a4.004 4.004 0 0 0 5.66 0C19.58 18.07 20 17.07 20 16c0-.73-.21-1.43-.58-2.05.04-.03.08-.04.11-.08l4.24-4.24a.996.996 0 1 0-1.41-1.41zm-4.95 9.19c-.76.76-2.07.76-2.83 0-.37-.37-.58-.88-.58-1.41 0-.53.21-1.04.59-1.41.37-.38.88-.59 1.41-.59.53 0 1.04.21 1.41.59.38.37.59.88.59 1.41 0 .53-.21 1.04-.59 1.41zM12 24c-.55 0-1 .45-1 1s.45 1 1 1 1-.45 1-1-.45-1-1-1zm4 5C8.83 29 3 23.17 3 16S8.83 3 16 3s13 5.83 13 13-5.83 13-13 13z" style="fill:#fff"/></svg>