<svg xmlns="http://www.w3.org/2000/svg" viewBox="0 0 32 32" style="enable-background:new 0 0 32 32" xml:space="preserve"><path d="M30.1 5.31a4.19 4.19 0 0 0-3.4-3.4c-6.84-1.2-14.54-1.2-21.39 0a4.19 4.19 0 0 0-3.4 3.4C1.3 8.73 1 12.33 1 16s.3 7.27.9 10.69a4.19 4.19 0 0 0 3.4 3.4c3.43.61 7.03.91 10.7.91 3.67 0 7.27-.3 10.69-.9a4.19 4.19 0 0 0 3.4-3.4c.61-3.43.91-7.03.91-10.7s-.3-7.27-.9-10.69zM10 22h12c.55 0 1-.45 1-1s-.45-1-1-1H10c-.55 0-1 .45-1 1s.45 1 1 1zm7-4h5c.55 0 1-.45 1-1s-.45-1-1-1h-5c-.55 0-1 .45-1 1s.45 1 1 1zm2-4h3c.55 0 1-.45 1-1s-.45-1-1-1h-3c-.55 0-1 .45-1 1s.45 1 1 1zm-7.71 3.71c.19.19.45.29.71.29h.07c.29-.02.55-.17.73-.4l3-4c.33-.44.24-1.07-.2-1.4-.44-.33-1.07-.24-1.4.2l-2.31 3.08-1.18-1.18a.996.996 0 1 0-1.41 1.41l1.99 2zM11.18 7C11.6 8.16 12.7 9 14 9h4c1.3 0 2.4-.84 2.81-2H23c1.1 0 2 .9 2 2v14c0 1.1-.9 2-2 2H9c-1.1 0-2-.9-2-2V9c0-1.1.9-2 2-2h2.18zM19 3.08V6c0 .55-.45 1-1 1h-4c-.55 0-1-.45-1-1V3.08a66.7 66.7 0 0 1 6 0zm9.13 23.27a2.19 2.19 0 0 1-1.78 1.78c-6.62 1.16-14.08 1.16-20.7 0a2.19 2.19 0 0 1-1.78-1.78C3.29 23.04 3 19.56 3 16s.29-7.04.87-10.35c.16-.91.87-1.62 1.78-1.78 1.74-.3 3.53-.52 5.35-.66V5H9C6.8 5 5 6.79 5 9v14c0 2.2 1.79 4 4 4h14c2.2 0 4-1.79 4-4V9c0-2.2-1.79-4-4-4h-2V3.21c1.82.14 3.61.36 5.35.67.91.16 1.62.87 1.78 1.78.58 3.3.87 6.78.87 10.34s-.29 7.04-.87 10.35z" style="fill:#fff"/></svg>