<svg xmlns="http://www.w3.org/2000/svg" viewBox="0 0 128 128"><path d="M46.1 66.3v17.6c0 2.6-1.7 4.5-4.2 4.7-1.5.1-2.6-.5-3.6-1.5l-9-9L3 51.8C.7 49.5.7 47 3 44.7 14.8 33 26.5 21.3 38.2 9.5c2.4-2.4 6.1-1.9 7.5 1.1.3.7.4 1.5.4 2.2v17.5h1.1c7.4.1 14.8 0 22.2.2 9 .3 17.9 1.6 26.6 4.4 7.2 2.4 13.7 5.8 19 11.3 5.2 5.2 8.4 11.6 10 18.7 1.4 6 1.9 12 1.7 18.1-.1 5-1.4 9.9-2.8 14.6-2.1 6.7-4.8 13.1-7.7 19.4-.3.6-.7 1.2-1.1 1.7-.7.9-1.7 1.2-2.6.9-.8-.3-1.4-1.2-1.4-2.2.1-1.4.3-2.7.4-4.1.5-7.3.6-14.7-1.2-21.9-1.3-5.2-3.2-10.1-7-14-4.2-4.4-9.4-7.2-15.2-8.7-5.1-1.3-10.3-2.2-15.5-2.3-8.6-.2-17.2-.2-25.9-.3-.2.1-.3.2-.6.2z" fill="#605da9"/></svg>