<?xml version="1.0" encoding="UTF-8"?>
<svg id="Layer_2" data-name="Layer 2" xmlns="http://www.w3.org/2000/svg" viewBox="0 0 35.2 38.4">
  <defs>
    <style>
      .cls-1 {
        fill: #4e4e4e;
      }
    </style>
  </defs>
  <g id="Layer_1-2" data-name="Layer 1">
    <g>
      <path class="cls-1" d="m32.32,6.51l-5.59-4.65c-1.44-1.2-3.25-1.85-5.12-1.85h-6.7c-3.26,0-6.11,2.01-7.34,4.9-3.53.46-6.42,3.23-6.91,6.85C.24,14.87.03,17.83,0,20.79c-.03,3.62.19,7.22.65,10.69.53,3.95,3.95,6.92,7.94,6.92h11.52c3.26,0,6.14-1.97,7.37-4.9,3.55-.47,6.43-3.26,6.89-6.89.37-2.96.63-5.98.74-8.95.07-1.69.09-3.41.07-5.1-.02-2.34-1.07-4.55-2.88-6.05Zm-3.21,1.49h-1.9c-.88,0-1.6-.72-1.6-1.6v-1.32l3.5,2.92Zm-8.99,27.2h-11.52c-2.4,0-4.45-1.78-4.77-4.15-.44-3.32-.65-6.77-.63-10.24.03-2.82.23-5.65.63-8.65.24-1.76,1.43-3.2,3-3.82-.29,2.53-.48,5.09-.51,7.64-.04,3.57.18,7.17.65,10.7.53,3.95,3.94,6.92,7.93,6.92h8.78c-.89.99-2.18,1.6-3.58,1.6Zm11.81-17.66c-.11,2.88-.36,5.8-.72,8.68-.3,2.39-2.35,4.19-4.77,4.19h-11.53c-2.4,0-4.44-1.78-4.76-4.15-.45-3.38-.66-6.82-.62-10.23.03-2.89.24-5.8.62-8.65.32-2.37,2.36-4.16,4.76-4.16h6.7c.27,0,.53.03.8.07v3.13c0,2.65,2.15,4.8,4.8,4.8h4.54c.14.45.25.91.25,1.39.02,1.64,0,3.3-.07,4.94Z"/>
      <path class="cls-1" d="m25.6,16h-9.6c-.88,0-1.6.72-1.6,1.6s.72,1.6,1.6,1.6h9.6c.88,0,1.6-.72,1.6-1.6s-.72-1.6-1.6-1.6Z"/>
      <path class="cls-1" d="m25.6,20.8h-9.6c-.88,0-1.6.72-1.6,1.6s.72,1.6,1.6,1.6h9.6c.88,0,1.6-.72,1.6-1.6s-.72-1.6-1.6-1.6Z"/>
    </g>
  </g>
</svg>