<?xml version="1.0" encoding="UTF-8"?>
<svg id="Layer_2" data-name="Layer 2" xmlns="http://www.w3.org/2000/svg" viewBox="0 0 28.8 38.4">
  <defs>
    <style>
      .cls-1 {
        fill: #4e4e4e;
      }
    </style>
  </defs>
  <g id="Layer_1-2" data-name="Layer 1">
    <g>
      <path class="cls-1" d="m27.64,4.06c-.36-2.35-2.36-4.06-4.75-4.06h-14.19C4.66,0,1.24,3.03.75,7.05c-.5,4.01-.75,8.1-.75,12.15,0,4.55.32,9.14.94,13.65.44,3.16,3.16,5.55,6.33,5.55h15.62c2.38,0,4.38-1.72,4.74-4.1.77-4.98,1.16-10.06,1.16-15.1s-.39-10.15-1.16-15.14ZM3.92,7.45c.3-2.42,2.35-4.25,4.77-4.25h14.19c.8,0,1.46.57,1.59,1.35.75,4.83,1.12,9.76,1.12,14.65,0,2.13-.08,4.27-.23,6.4H7.28c-1.4,0-2.69.48-3.76,1.27-.2-2.56-.32-5.12-.32-7.67,0-3.92.24-7.87.72-11.75Zm18.98,27.75H7.28c-1.61,0-2.94-1.17-3.16-2.79-.04-.28-.07-.56-.1-.84h.1c.22-1.6,1.55-2.77,3.16-2.77h17.82c-.17,1.68-.36,3.35-.62,5.01-.12.8-.79,1.39-1.58,1.39Z"/>
      <path class="cls-1" d="m8,24c.88,0,1.6-.72,1.6-1.6V6.4c0-.88-.72-1.6-1.6-1.6s-1.6.72-1.6,1.6v16c0,.88.72,1.6,1.6,1.6Z"/>
      <path class="cls-1" d="m20.8,30.4h-6.4c-.88,0-1.6.72-1.6,1.6s.72,1.6,1.6,1.6h6.4c.88,0,1.6-.72,1.6-1.6s-.72-1.6-1.6-1.6Z"/>
    </g>
  </g>
</svg>