<svg version="1.1" id="Layer_1" xmlns="http://www.w3.org/2000/svg" x="0" y="0" viewBox="0 0 32 32" xml:space="preserve"><style>.st0{fill-rule:evenodd;clip-rule:evenodd;fill:#dbdbdb}</style><path class="st0" d="M26.9 27.8h.9s2.7-.1 2.7-3.6V7.8h-3.6v20z"/><path d="M26.9 6.7V4.2H1.4v20s0 3.6 3.6 3.6h21.8V6.7z" fill-rule="evenodd" clip-rule="evenodd" fill="#ededee"/><path d="M5.1 26c-1.8 0-1.8-1.8-1.8-1.8V6h21.8v18.2c0 .8.3 1.4.6 1.8H5.1z" fill-rule="evenodd" clip-rule="evenodd" fill="#fff"/><path class="st0" d="M15 9.6h8.3v1.8H15zM15.1 20.5h6.4v1.8h-6.4zM15.1 16.9h8.2v1.8h-8.2zM15.1 13.3h8.2v1.8h-8.2zM5.1 9.7h8.2v10.7H5.1z"/></svg>