<svg version="1.1" id="Layer_1" xmlns="http://www.w3.org/2000/svg" x="0" y="0" viewBox="0 0 32 32" xml:space="preserve"><style>.st0{fill:none;stroke:#1f6af6;stroke-miterlimit:10}</style><path class="st0" d="M16.4 5.8c5.7 0 10.4 4.6 10.4 10.4s-4.6 10.4-10.4 10.4M13.4 26.1c-1-.3-2-.8-2.8-1.4M6.4 18.8c-.2-.9-.4-1.7-.4-2.6 0-4.8 3.2-8.8 7.6-10M8.8 16.2c0-2.3 1.1-4.4 2.7-5.8"/><path class="st0" d="M16.4 5.8c2.4 0 4.4 4.6 4.4 10.4s-2 10.4-4.4 10.4M26 20h-9.6M16.4 12.4H26M16.4 26.5V5.8M6.7 23.7c.2-.2.2-.6 0-.8l-.5-.5c-.1-.1-.2-.4-.1-.5.1-.2.2-.3.4-.4 1-.2 2.7-.6 3.8-.9.3-.1.6 0 .8.2.2.2.3.5.2.8-.3 1.1-.6 2.8-.9 3.8 0 .2-.2.4-.4.4-.2.1-.4 0-.5-.1l-.5-.5c-.2-.2-.6-.2-.8 0l-.5.5c-.2.2-.6.2-.9 0l-.6-.6c-.2-.2-.2-.6 0-.9.2-.1.3-.3.5-.5z"/></svg>