<?xml version="1.0" encoding="UTF-8"?>
<svg id="Layer_2" data-name="Layer 2" xmlns="http://www.w3.org/2000/svg" viewBox="0 0 38.4 38.4">
  <defs>
    <style>
      .cls-1 {
        fill: #4e4e4e;
      }
    </style>
  </defs>
  <g id="Layer_1-2" data-name="Layer 1">
    <g>
      <path class="cls-1" d="m36.06,13L25.79,2.72c-1.73-1.73-4.13-2.72-6.59-2.72s-4.86.99-6.59,2.72L2.34,13c-1.51,1.51-2.34,3.52-2.34,5.65v11.75c0,4.41,3.59,8,8,8h3.2c2.65,0,4.8-2.15,4.8-4.8v-3.2c0-1.76,1.44-3.2,3.2-3.2s3.2,1.44,3.2,3.2v3.2c0,2.65,2.15,4.8,4.8,4.8h3.2c4.41,0,8-3.59,8-8v-11.75c0-2.13-.83-4.14-2.34-5.65Zm-.86,17.4c0,2.65-2.15,4.8-4.8,4.8h-3.2c-.88,0-1.6-.72-1.6-1.6v-3.2c0-3.53-2.87-6.4-6.4-6.4s-6.4,2.87-6.4,6.4v3.2c0,.88-.72,1.6-1.6,1.6h-3.2c-2.65,0-4.8-2.15-4.8-4.8v-11.75c0-1.28.5-2.48,1.4-3.39L14.87,4.99c1.14-1.14,2.71-1.79,4.32-1.79s3.19.65,4.32,1.79l10.27,10.27c.9.9,1.4,2.11,1.4,3.39v11.75Z"/>
      <path class="cls-1" d="m23.06,8.8c-2.06-2.06-5.66-2.06-7.72,0l-2.87,2.87c-.62.62-.62,1.64,0,2.26s1.64.62,2.26,0l2.87-2.87c.84-.84,2.36-.84,3.2,0l2.87,2.87c.31.31.72.47,1.13.47s.82-.16,1.13-.47c.62-.62.62-1.64,0-2.26l-2.87-2.87Z"/>
    </g>
  </g>
</svg>