<svg xmlns="http://www.w3.org/2000/svg" viewBox="0 0 312 320"><defs><style>.cls-1{fill:none;stroke:#fff;stroke-miterlimit:10;stroke-width:5px;}.cls-2{fill:#fff;}</style></defs><g id="artwork"><rect class="cls-1" x="87.82" y="183.12" width="20.47" height="44.76"/><rect class="cls-1" x="118.88" y="145" width="20.47" height="82.88"/><rect class="cls-1" x="149.71" y="175.82" width="20.47" height="52.06"/><rect class="cls-1" x="181.24" y="162.65" width="20.47" height="65.24"/><rect class="cls-1" x="212.06" y="196.76" width="20.47" height="31.12"/><path class="cls-2" d="M82.65,165.15H95.12a2.6,2.6,0,0,0,2.41-1.84l3.37-8.42L109,134.54l9.81-24.5,8.48-21.19,2.8-7c.44-1.1,1-2.21,1.34-3.34a.94.94,0,0,1,.06-.15L127,79l10.43,23.8,16.6,37.9,3.79,8.65c.83,1.88,3.36,1.35,4.32,0l10.67-15.13,16.94-24,3.92-5.56h-4.32l10.51,15.49,7.1,10.47,2.25,3.32c.59.86,1.15,1.93,2.22,2.23a8.6,8.6,0,0,0,2.09.09h8.81c3.22,0,3.23-5,0-5H212.06l2.16,1.23-18-26.53-2.59-3.82a2.54,2.54,0,0,0-4.32,0l-10.67,15.13-16.94,24-3.92,5.56h4.32L151.67,123l-16.6-37.9-3.79-8.66a2.48,2.48,0,0,0-2.49-1.19A2.59,2.59,0,0,0,126.71,77l-3.37,8.42-8.15,20.35-9.81,24.5L96.9,151.5l-2.8,7c-.44,1.1-1,2.2-1.33,3.33l-.06.15,2.41-1.83H82.65c-3.22,0-3.23,5,0,5Z"/><polygon class="cls-1" points="224.24 132.8 224.24 124.77 229.53 128.78 234.82 132.8 229.53 136.82 224.24 140.84 224.24 132.8"/><circle class="cls-1" cx="156" cy="160" r="127.44"/></g></svg>