<?xml version="1.0" encoding="UTF-8"?>
<svg id="Layer_2" data-name="Layer 2" xmlns="http://www.w3.org/2000/svg" viewBox="0 0 191.99 166.57">
  <defs>
    <style>
      .cls-1 {
        fill: #1a1718;
      }
    </style>
  </defs>
  <g id="Layer_1-2" data-name="Layer 1">
    <g>
      <path class="cls-1" d="m29.58,82.37c.05.87.33,1.57.85,2.11.52.54,1.16.82,1.95.85.78.03,1.46-.2,2.03-.69.57-.49.93-1.16,1.09-2.03.05-.33.08-.73.08-1.22-.06-1.02-.11-1.97-.16-2.84-.06-.38-.15-1.35-.28-2.92-.14-1.57-.23-2.76-.28-3.57-.06-.86-.01-1.36.12-1.5.14-.14.61-.26,1.42-.37.54-.11,1.32-.23,2.35-.36,1.03-.13,1.73-.23,2.11-.28.32-.06.77-.13,1.34-.24.57-.11,1.08-.2,1.54-.29.46-.08.9-.12,1.34-.12.81-.05,1.24.33,1.3,1.14,0,.76.05,1.81.16,3.16.11,1.35.16,2.27.16,2.76.21,3.68.32,5.78.32,6.32,0,.87.27,1.57.81,2.11.54.54,1.19.84,1.95.89.76.05,1.42-.18,1.99-.69.57-.51.93-1.18,1.1-1.99.11-.86.16-1.7.16-2.51-.06-.81-.14-1.99-.25-3.53-.11-1.54-.16-2.47-.16-2.8-.11-1.68-.26-3.75-.45-6.21-.19-2.46-.35-4.6-.48-6.4-.14-1.81-.26-3.86-.37-6.16-.11-2.3-.16-4.42-.16-6.37-.05-2.05-.22-6.21-.49-12.49-.11-1.68-.35-2.87-.73-3.57-.7-1.13-1.7-1.57-3-1.3-1.24.33-1.87,1.19-1.87,2.6-.05.11-.07.26-.04.45.02.19.04.31.04.36v8.39c0,3.97.04,7.39.12,10.26.08,2.86.26,5.65.52,8.35.11.7-.19,1.14-.89,1.3-.81.11-1.74.27-2.8.49-1.05.22-2.12.43-3.2.65-1.08.22-2.03.38-2.84.49-.76.16-1.2.17-1.34.04-.13-.13-.23-.61-.28-1.42v-.97c0-.81-.03-4.64-.08-11.47-.05-6.84-.16-12.04-.32-15.61-.06-1.46-.16-2.38-.33-2.76-.43-1.08-1.22-1.65-2.35-1.7-.54,0-1.05.16-1.54.49-.49.33-.81.76-.98,1.3-.16.43-.24.98-.24,1.62v18.81c-.32,7.46-.14,15.11.57,22.95.27,2.65.43,4.81.49,6.49Z"/>
      <path class="cls-1" d="m60.88,83.59c.76.27,1.57.41,2.43.41.81.05,1.7.03,2.68-.08.98-.11,1.77-.2,2.39-.29.62-.08,1.56-.23,2.8-.44,1.24-.22,2.06-.35,2.43-.4.27-.06.54-.14.81-.25,1.08-.59,1.62-1.49,1.62-2.68-.06-1.14-.68-1.95-1.86-2.43-.7-.33-1.57-.38-2.59-.16-.7.11-1.81.3-3.33.57-1.51.27-2.68.49-3.49.65-.86.16-1.32-.19-1.38-1.05-.21-3.24-.4-5.89-.57-7.95-.11-.86.33-1.35,1.3-1.46,4.7-.59,8.38-.89,11.03-.89.97,0,1.76-.25,2.35-.77.59-.51.9-1.2.93-2.07.03-.86-.24-1.57-.81-2.11-.57-.54-1.37-.87-2.39-.97-.49,0-1.38.05-2.68.16-1.89.11-5.16.54-9.81,1.3-.22-.38-.32-1.08-.32-2.11-.06-6.76-.08-12.22-.08-16.38,0-1.4.05-3.24.16-5.51,0-.65.01-1.09.04-1.34.03-.24.13-.46.32-.65.19-.19.39-.29.61-.29h1.3c2.7.06,5.57.16,8.6.33,1.08.05,1.89-.03,2.43-.24,1.13-.49,1.73-1.33,1.78-2.51.11-1.24-.43-2.16-1.62-2.76-.49-.27-1.27-.41-2.35-.41h-12.08c-.65,0-1.19.05-1.62.16-1.73.32-2.62,1.35-2.67,3.08-.06.7-.14,1.74-.25,3.13-.11,1.38-.16,2.09-.16,2.15-.86,10.81-.62,24.16.73,40.06.22,2.11,1.33,3.51,3.33,4.22Z"/>
      <path class="cls-1" d="m84.64,82.7c1.73,2.49,4.3,3.68,7.7,3.57,1.79-.16,2.76-.27,2.92-.33,2.87-.59,4.84-1.24,5.92-1.94.81-.54,1.33-1.22,1.54-2.03.22-.81.13-1.57-.24-2.27-.76-1.35-2.08-1.68-3.98-.98-.05.05-.19.11-.4.16-.11.11-.22.16-.32.16-1.24.54-3.03.98-5.35,1.3-1.51.16-2.65-.51-3.41-2.03-.43-.92-.78-2.56-1.05-4.95-.49-5.08-.57-11.08-.24-18,.05-.54.14-3.51.24-8.92.11-5.41.35-9.51.73-12.33.05-.33.02-.66-.08-1.01-.11-.35-.26-.65-.45-.89-.19-.24-.42-.45-.69-.61-.27-.16-.54-.3-.81-.41-1.46-.27-2.49.33-3.08,1.78-.22.49-.35.95-.41,1.38-.11.98-.27,2.41-.48,4.3-.44,3.95-.78,11.17-1.06,21.65-.16,5.62.05,10.92.65,15.9.27,2.38,1.05,4.54,2.35,6.49Z"/>
      <path class="cls-1" d="m107.06,79.57c1.73,2.49,4.3,3.68,7.71,3.57,1.78-.16,2.75-.27,2.92-.33,2.87-.59,4.84-1.24,5.92-1.94.81-.54,1.33-1.22,1.54-2.03.22-.81.14-1.57-.24-2.27-.76-1.35-2.08-1.67-3.98-.97-.05.05-.19.11-.4.16-.11.11-.22.16-.33.16-1.24.54-3.03.97-5.35,1.3-1.51.16-2.65-.51-3.41-2.03-.43-.92-.78-2.57-1.05-4.95-.48-5.08-.57-11.08-.24-18,.06-.54.13-3.51.24-8.92.11-5.41.35-9.52.73-12.33.05-.33.03-.66-.08-1.01-.11-.35-.26-.65-.45-.89-.19-.24-.42-.45-.69-.61-.27-.16-.54-.3-.81-.41-1.46-.27-2.48.32-3.08,1.78-.22.49-.35.95-.41,1.38-.11.97-.27,2.41-.49,4.3-.43,3.95-.78,11.16-1.05,21.65-.16,5.63.05,10.92.65,15.9.27,2.38,1.05,4.54,2.35,6.49Z"/>
      <path class="cls-1" d="m128.2,78.66c1.4,1.84,3.08,2.82,5.03,2.96,1.95.13,3.76-.58,5.43-2.15.86-.81,1.65-1.76,2.35-2.84,1.14-1.78,2.08-3.84,2.84-6.16,1.95-5.68,3.05-12.41,3.33-20.19-.11-6.11-.78-11.11-2.03-15-.86-2.65-2.06-4.7-3.57-6.16-1.3-1.3-2.74-1.99-4.34-2.07-1.59-.08-3.09.42-4.5,1.5-1.08.81-2.08,1.92-3,3.32-.97,1.51-1.84,3.3-2.59,5.35-2.11,5.57-3.3,12.03-3.57,19.38-.22,5.62.3,10.76,1.54,15.41.76,2.81,1.78,5.03,3.08,6.65Zm1.38-19.95c0-6.81.95-13.05,2.84-18.73.76-2.11,1.65-3.86,2.68-5.27.76-1.02,1.38-1.53,1.87-1.5.49.03,1,.61,1.54,1.74,1.03,1.95,1.73,4.35,2.11,7.22,1.08,8.59.4,16.98-2.03,25.14-.59,2.11-1.38,3.97-2.35,5.59-.54.92-1.08,1.62-1.62,2.11-.6.6-1.16.57-1.7-.08-.65-.75-1.19-1.78-1.62-3.08-.92-2.76-1.49-6.11-1.7-10.06v-3.08Z"/>
      <path class="cls-1" d="m169.26,20.01c-1.13-2.46-2.64-4.85-4.71-7.14-8.85-9.78-25.24-7.47-37.01-7.36-21.77.21-43.54.73-65.29,1.78-9.76.47-19.52,1.1-29.24,2.09-7.67.78-17.49,1.14-23.75,6.05-6.35,4.98-7.02,12.74-7.87,20.29-1.6,14.22-.88,28.88.18,43.12.68,9.06,1.74,17.73,8.09,24.66,1.97,2.15,4.45,3.65,7.17,4.71,4.28,8.76,11.9,13.04,21.7,14.06,13.51,1.4,27.37,1.48,40.99,1.59-2.6,9.23-5.4,18.4-8.29,27.56,0,.02,0,.03-.02.05-.02.05-.03.11-.05.16-.07.22-.06.43-.06.64,0,.03-.01.07-.01.1.03.83.54,1.51,1.23,1.93.11.07.22.16.34.21.06.03.14.03.2.06.2.07.39.14.6.16.72.08,1.41-.18,1.88-.81,5.24-5.16,10.4-10.39,15.51-15.68-2.35,8.51-4.87,16.98-7.81,25.28-.85,2.41,2.44,4.04,4.12,2.4,14.11-13.9,27.8-28.24,40.87-43.13,1.44-1.64,5.61-.77,7.67-.95,5.64-.48,11.25-1.25,16.84-2.11,8.07-1.25,16.56-3.01,23.46-7.56,11.78-7.76,10.81-27.48,10.56-39.5-.36-18.02,1.07-43.12-17.32-52.65ZM7.02,69.48c-.68-12.77-.85-25.85.98-38.53,1.71-11.84,10.6-13.8,21.08-15.16,8.34-1.08,16.77-1.61,25.16-2.13,19.88-1.22,39.81-1.73,59.72-2.1,10.75-.2,21.55-.53,32.31-.27,17.5.42,19.91,15.43,21.13,29.12,1.28,14.45,2.68,28.88.08,43.28-1.88,10.42-8.95,14.14-18.47,16.69-6.84,1.83-13.97,2.72-20.97,3.54-3.34.39-12.52-.8-14.89,1.96-10.6,12.29-21.68,24.19-32.92,35.92,3.72-10.48,6.63-21.31,9.27-32.04.46-1.87-.9-3.82-2.89-3.8-12.14.13-24.28.03-36.41-.44-9.77-.38-20,.15-29.48-2.47-.44-.37-.96-.52-1.49-.52-12.54-4.64-11.61-21.95-12.19-33.03Zm47.37,47.58c-10.34-.36-21.69.3-28.77-6.78,3.13.4,6.25.55,9.08.68,15.99.74,32.02,1.08,48.03.98-.5,1.96-1,3.92-1.52,5.88-8.95-.13-17.87-.46-26.81-.77Zm126.27-31.77c-.35,6.64-1.09,14.47-5.36,19.9-4.54,5.78-13.91,7.04-20.61,8.42-11.64,2.4-25.16-.93-33.3,8.3-9.64,10.92-19.57,21.59-29.64,32.11,2.61-7.51,4.94-15.1,7.09-22.79.16-.56.14-1.06.03-1.51,2.82-2.99,5.67-5.96,8.45-8.99,2.73-2.99,5.43-6.01,8.11-9.04,3.12-3.53,11.94-2.11,16.72-2.66,18.85-2.17,37.49-5.25,41.31-26.27,2.54-13.96,1.02-28.36-.27-42.36-.37-4-.65-7.82-1.28-11.46,6.1,5.93,6.57,14.12,7.39,23.35.98,11.02,1.94,21.92,1.36,33Z"/>
      <path class="cls-1" d="m133.38,98.29c10.01.33,32.29-5.6,29.69-19.42-.07-.38-.62-.33-.72,0-3.91,13.77-18.09,13.84-29.12,18.87-.29.13-.12.54.15.55Z"/>
      <path class="cls-1" d="m25.25,23.37c.24-.2.03-.56-.24-.57-14.69-.65-13.37,17.15-13.72,26.84-.02.47.68.55.8.11,1.26-4.77,1.75-9.56,2.71-14.38,1.26-6.26,5.94-8.29,10.43-11.99Z"/>
      <path class="cls-1" d="m163.08,76.8c.59-1.16.62-2.48.78-3.75.23-1.68.21-2.9-.44-4.48-.15-.36-.61-.29-.66.09-.32,2.51-1.54,5.72-.43,8.14.13.29.6.27.74,0Z"/>
      <path class="cls-1" d="m11.97,52.73c-.03-.21-.33-.26-.47-.12-.79.86-.93,1.73-1.07,2.87-.14,1.17-.39,2.77.7,3.56.16.11.36.02.46-.12.6-.87.33-2.07.36-3.07.04-1.1.17-2.03.01-3.12Z"/>
      <path class="cls-1" d="m190.47,66.78c0,.2.32.26.36.05,2.93-14.49,1.24-43.74-15.89-49.86-.2-.07-.29.22-.13.32,16.48,11.32,14.94,31.76,15.66,49.49Z"/>
      <path class="cls-1" d="m190.39,69.08c-.3.87-.2,1.84-.24,2.75-.04.93-.08,1.79.05,2.72.02.13.23.15.29.04.37-.78.51-1.45.56-2.31.06-1.03.2-2.2-.14-3.19-.09-.26-.43-.26-.52,0Z"/>
      <path class="cls-1" d="m31.74,124.58c-6.86-2.06-11.33-6.52-16.4-11.2-.08-.07-.19.02-.15.11,6.03,12.02,23.7,16.24,35.8,13.51.21-.05.16-.36-.05-.36-6.56-.17-12.85-.15-19.2-2.05Z"/>
      <path class="cls-1" d="m53.25,126.57c-.25.05-.25.45,0,.5.95.19,2.18.26,3.09-.07.18-.07.18-.29,0-.36-.92-.34-2.14-.26-3.09-.07Z"/>
      <path class="cls-1" d="m143.98,124.8c-4.6.38-9.18.71-13.48,2.5-3.75,1.56-6.14,4.82-8.7,7.79-7.85,9.13-16.48,17.71-23.72,27.33-.1.13.11.28.22.17,8.01-7.74,15.42-16.29,22.82-24.62,2.75-3.09,5.12-6.47,8.66-8.73,4.09-2.6,9.69-2.74,14.26-3.98.26-.07.21-.5-.06-.47Z"/>
      <path class="cls-1" d="m49.81,4.18c16.73-.91,33.46-1.78,50.18-2.89.26-.02.26-.41,0-.41-18.44,0-36.86.96-55.27,1.99C30.48,3.66,4.58,2.6,0,20.08c-.03.12.14.2.2.09C9.1,3.21,33.39,5.07,49.81,4.18Z"/>
      <path class="cls-1" d="m105.36.95c1.29-.05,2.56-.03,3.84-.2.33-.04.33-.48,0-.52-2-.26-4.75-.46-6.64.38-.16.07-.12.35.05.37.91.14,1.83,0,2.75-.03Z"/>
    </g>
  </g>
</svg>