<svg id="Layer_1" data-name="Layer 1" xmlns="http://www.w3.org/2000/svg" viewBox="0 0 272 272"><defs><style>.cls-1{fill:#ffac31;}.cls-2{fill:#b79962;}.cls-3{fill:none;stroke:#fff;stroke-linecap:round;stroke-linejoin:round;stroke-width:5.95px;}</style></defs><circle class="cls-1" cx="136" cy="136" r="136"/><circle class="cls-2" cx="136" cy="136" r="136"/><g id="_12" data-name="12"><g id="_8" data-name="8"><path class="cls-3" d="M98.82,120.41c-3.24-5.18-2.66-6.63-2.66-6.63l9.68-14A8.77,8.77,0,0,0,105,88.31l-20-19.92a8.21,8.21,0,0,0-10.8-.67l-8.71,6.75a10,10,0,0,0-2,2c-17.19,24,6.92,61.75,36.64,91.3,28.91,28.74,68,54.35,91.67,36A9.74,9.74,0,0,0,193.5,202l6.81-8.89a8.18,8.18,0,0,0-.73-10.79l-20-19.92a8.75,8.75,0,0,0-11.44-.79l-14,9.75s-5.59,2-32.76-25c-9.7-9.64-15.69-16.55-19.38-21.44-1.32-1.76-2.35-3.26-3.15-4.54"/></g><path class="cls-3" d="M174.34,132.87a39.78,39.78,0,0,0-39.26-39.74"/><path class="cls-3" d="M197.22,132.87a62.64,62.64,0,0,0-62.14-62.62"/><path class="cls-3" d="M191,105.59c-7.82-18.09-32.23-34.33-55.88-35.34"/></g></svg>