<svg xmlns="http://www.w3.org/2000/svg" viewBox="0 0 312 320"><defs><style>.cls-1{fill:none;stroke:#fff;stroke-miterlimit:10;stroke-width:5px;}</style></defs><g id="artwork"><circle class="cls-1" cx="152.38" cy="85.74" r="9.79"/><polyline class="cls-1" points="158.24 101.59 158.24 95.53 147.65 95.53 147.61 101.82"/><polyline class="cls-1" points="147.54 114.41 146.94 215.82 158.24 215.82 158.24 115.06"/><path class="cls-1" d="M92.4,128l-7.75,17.72L73,172.41s-1.06,22.94,20.47,22.94,20.47-22.76,20.47-22.76L94.56,128.16"/><line class="cls-1" x1="112.53" y1="172.59" x2="74.76" y2="172.59"/><path class="cls-1" d="M210.35,128.25l-7.65,17.51-11.65,26.65s-1.06,22.94,20.47,22.94S232,172.59,232,172.59L212.54,128"/><line class="cls-1" x1="230.58" y1="172.59" x2="192.82" y2="172.59"/><path class="cls-1" d="M123.59,228H114v-3.16a9,9,0,0,1,9-9h59.62a9,9,0,0,1,9,9V228H135.24"/><path class="cls-1" d="M135.65,228h55.91a9,9,0,0,1,9,9V243H104.18v-6.1a9,9,0,0,1,9-9h10"/><path class="cls-1" d="M104.24,116.12H78.29s-4.41-.18-4.41,5.47,4.59,5.12,4.59,5.12h29.29l16.95-13.24h55.94l19.06,13.25H229s3-.37,3-5.66-3.71-4.41-3.71-4.41H201.12l-18.18-13.24H120.71Z"/><circle class="cls-1" cx="156" cy="160" r="127.44"/></g></svg>