<svg version="1.1" id="Layer_1" xmlns="http://www.w3.org/2000/svg" x="0" y="0" viewBox="0 0 32 32" xml:space="preserve"><style>.st0{fill:none;stroke:#1f6af6;stroke-miterlimit:10}</style><path class="st0" d="M26.7 20.2c0-.6-.5-1.1-1.1-1.1H7.1c-.6 0-1.1.5-1.1 1.1 0 .6.5 1.1 1.1 1.1h18.5c.6-.1 1.1-.5 1.1-1.1z"/><path class="st0" d="M24.8 16.7V8.4c0-.4-.1-.7-.4-.9-.3-.3-.6-.5-1-.5H9.3C8.6 7 8 7.6 8 8.4v10.7M16.4 7V5.8M16.4 21.2v5.2M13.2 21.2l-2.4 5.2M19.6 21.2l2.4 5.2"/><path class="st0" d="M11.4 10.9v4.6c0 .8.6 1.4 1.4 1.4H21M14.1 15.2v-1.3M16.4 15.2v-3M18.7 15.2v-2.1"/></svg>