<svg version="1.1" id="Layer_1" xmlns="http://www.w3.org/2000/svg" x="0" y="0" viewBox="0 0 32 32" xml:space="preserve"><style>.st0{fill:none;stroke:red;stroke-miterlimit:10}</style><path class="st0" d="M14.7 23v3.4M18.1 25.1v1.3M12.7 26.4h7.4M18.5 7.8c0-.7-.4-1.3-1.1-1.6 0 0-.1 0-.1-.1-.6-.3-1.3-.3-2 0 0 0-.1 0-.1.1-.6.3-1.1.9-1.1 1.6v2.1c0 .5.3 1 .8 1.3.3.1.5.3.8.4.4.2.8.2 1.2 0 .2-.1.5-.2.8-.4.5-.2.8-.7.8-1.3V7.8zM14 13l-2.2 1c-1.4.6-2.2 2-2.1 3.4.1 1.2.2 2.3.2 2.3M18.8 13l2.2 1c1.4.6 2.2 2 2.1 3.4-.1 1.2-.2 2.3-.2 2.3M16.4 14.3l-.4-.4h.8l-.4.4v2.8"/><path class="st0" d="M11.1 9.2H8.6c-.6-.1-1.3.2-1.8.7-.5.5-.8 1.1-.8 1.8v8.7c0 .7.3 1.3.8 1.8.5.6 1.1.8 1.8.8h15.5c.7 0 1.3-.3 1.8-.8s.8-1.1.8-1.8v-8.8c0-.7-.3-1.3-.8-1.8S24.8 9 24.1 9h-5.4M15.1 20.8h2.6"/></svg>