<svg version="1.1" id="Layer_1" xmlns="http://www.w3.org/2000/svg" x="0" y="0" viewBox="0 0 40 40" style="enable-background:new 0 0 40 40" xml:space="preserve"><style>.st0,.st1{fill:none;stroke:#ffac31;stroke-linecap:round;stroke-miterlimit:10}.st1{stroke-width:2}</style><path class="st0" d="M11.3 25.3H7.9v3.1h3.4zM16.5 25.3h-3.4v3.1h3.4zM21.7 25.3h-3.4v3.1h3.4zM26.9 25.3h-3.4v3.1h3.4zM16.5 20.8h-3.4v3h3.4zM21.7 20.8h-3.4v3h3.4zM26.9 20.8h-3.4v3h3.4zM11.3 29.9H7.9V33h3.4zM16.5 29.9h-3.4V33h3.4zM21.7 29.9h-3.4V33h3.4zM26.9 29.9h-3.4V33h3.4zM32.1 25.3h-3.5v3.1h3.5zM32.1 20.8h-3.5v3h3.5z"/><g><path class="st1" d="M32.1 7.1h5.2v30.4H2.7V7.1h29.4M9.6 11.6V2.5M30.4 11.6V2.5M2.7 16.2h34.6"/></g></svg>