<svg xmlns="http://www.w3.org/2000/svg" viewBox="0 0 312 320"><defs><style>.cls-1{fill:none;stroke:#fff;stroke-miterlimit:10;stroke-width:5px;}</style></defs><g id="artwork"><polygon class="cls-1" points="195.35 122.21 173.29 122.21 173.29 103.59 157 103.59 157 122.21 134.18 122.21 134.18 136.53 157 136.53 157 185 173.29 185 173.29 136.53 195.35 136.53 195.35 122.21"/><line class="cls-1" x1="218.53" y1="220.06" x2="127.65" y2="220.06"/><path class="cls-1" d="M218.53,209.82h-112a11.51,11.51,0,0,0-6.93,2.2,9.54,9.54,0,0,0-3.86,8"/><line class="cls-1" x1="113.71" y1="77.82" x2="113.71" y2="209.82"/><path class="cls-1" d="M95.71,163.85V83.65a5.82,5.82,0,0,1,5.82-5.83h71"/><path class="cls-1" d="M105.9,232.68h-.36a9.84,9.84,0,0,1-9.83-9.84v-46.9"/><path class="cls-1" d="M182.88,77.82h29.83a5.83,5.83,0,0,1,5.82,5.83V222.84a9.85,9.85,0,0,1-9.84,9.84H130.06"/><polygon class="cls-1" points="108.41 220.06 108.41 244.76 117.77 235.41 127.65 245.29 127.65 220.06 108.41 220.06"/><circle class="cls-1" cx="156" cy="160" r="127.44"/></g></svg>