<?xml version="1.0" encoding="utf-8"?>
<!-- Generator: Adobe Illustrator 25.4.1, SVG Export Plug-In . SVG Version: 6.00 Build 0)  -->
<svg version="1.1" id="Layer_1" xmlns="http://www.w3.org/2000/svg" xmlns:xlink="http://www.w3.org/1999/xlink" x="0px" y="0px"
	 viewBox="0 0 282.67 280.89" style="enable-background:new 0 0 282.67 280.89;" xml:space="preserve">
<style type="text/css">
	.st0{fill:#FBAC33;}
	.st1{fill:#FFFFFF;}
</style>
<g>
	<circle class="st0" cx="141.33" cy="140.44" r="135.25"/>
	<path class="st1" d="M200.19,184.46c-1.06-17.12-1.78-34.27-3.37-51.33c-0.99-10.6,1.14-21.85-5.66-31.49
		c4.8-2.84,7.79-6.53,6.52-12.11c-1.48-6.52-6.57-8.24-12.39-8.39c-3.59-13.94-9.83-20.55-20.5-20.52
		c-4.02,0.01-8.41,1.43-11.98,3.4c-6.5,3.58-8.99,10.11-9.65,16.88h-10.1c5.35-7.17,7.03-14.28,3.83-22.22
		c-2.68-6.65-8.14-10.04-14.31-12.7h-9.44c-7.96,3.24-14.02,8.19-15.68,17.19c-1.22,6.62,1.24,12.27,5.34,18.24
		c-3.25,0-5.73-0.11-8.21,0.02c-7.56,0.39-12.06,4.67-12.11,12.28c-0.15,25.81-0.04,51.62-0.1,77.43c-0.01,3.46,1.55,4.83,4.89,4.72
		c3.11-0.1,6.22-0.02,9.86-0.02c0,2.17,0,3.86,0,5.55c0,16.05,0.07,32.11-0.05,48.16c-0.03,3.77,1.19,5.39,5.17,5.37
		c25.18-0.11,50.36-0.11,75.54,0c4.07,0.02,5.13-1.82,5.1-5.47c-0.11-11.17-0.05-22.35-0.03-33.52c0-1.67,0.14-3.34,0.2-4.85
		c0.72-0.26,1-0.45,1.29-0.45c3.3-0.05,6.61-0.07,9.91-0.09C200.24,190.51,200.55,190.24,200.19,184.46z M182.63,89.9
		c1.24-3.47,4.04-3.01,6.16-2.17c1.42,0.56,3.32,3.55,2.9,4.35c-0.89,1.71-2.99,3.29-4.9,3.84c-2.25,0.65-4.82,0.15-7.8,0.15
		C180.48,93.6,181.92,91.88,182.63,89.9z M163.89,66.46c8.17-0.07,14.73,6.27,14.88,14.39c0.16,8.21-6.63,15.11-14.81,15.05
		c-7.96-0.06-14.67-6.78-14.71-14.74C149.21,73.16,155.81,66.53,163.89,66.46z M117.91,51.82c7.98,0.05,14.65,6.74,14.69,14.74
		c0.04,8.05-6.5,14.64-14.6,14.73c-8.09,0.09-14.76-6.35-14.94-14.41C102.87,58.78,109.79,51.77,117.91,51.82z M156.27,186.84h-5.92
		c-0.22,13.82-0.12,27.66-0.12,41.83h-7.26c0-8.09,0-16.07,0-24.04c0-0.6,0.05-1.22,0.09-1.83h-6.07
		c-0.14,6.41-0.05,12.82-0.05,19.24c0,2.16,0,4.32,0,6.74h-7.03c-0.09-1.65-0.26-3.31-0.27-4.96c-0.02-12.12-0.01-24.24-0.01-36.35
		c0-0.2,0.01-0.41,0.03-0.62h-5.98c-0.15,3.95,0,7.98,0,12.21h-5.82c0-7.52,0-15.03,0-22.55c0-6.61-0.03-13.22,0.01-19.83
		c0.04-6.85,3.29-10.32,9.97-10.41c8.18-0.11,16.37-0.11,24.55,0.01c5.44,0.08,9.47,3,9.57,7.84c0.3,14.9,0.11,29.82,0.11,45.05
		c-1.92,0.09-3.43,0.16-5.79,0.27C156.27,195.08,156.28,190.95,156.27,186.84z M128.21,128.55c0.02-6.61,5.56-11.95,12.17-11.72
		c6.4,0.22,11.57,5.7,11.4,12.07c-0.17,6.4-5.59,11.6-11.98,11.51C133.39,140.3,128.19,134.98,128.21,128.55z M193.82,184.49h-10.97
		c0-3.16,0.01-6.38,0-9.59c-0.01-2.5,0.12-5.02,0.03-7.51h-6.07c0.02,0.31,0.04,0.61,0.04,0.9c0,18.25,0,36.51,0,54.76
		c0,1.83,0,3.67,0,5.73h-8.66v-17.35h-5.95v17.26h-5.64v-23.28c2.28,0,4.57-0.04,6.85,0.01c3.13,0.08,4.56-1.27,4.55-4.52
		c-0.08-15.42,0.07-30.84-0.1-46.26c-0.08-7.52-4.73-12.17-12.96-14.27c0.86-4.82,2.38-9.58,2.37-14.33
		c-0.01-5.06-3.08-9.14-7.32-12.06c-6.67-4.61-15.85-3.99-21.83,1.42c-6.82,6.17-7.56,14.47-2.64,23.62
		c-3.68,2.59-8.28,4.43-10.54,7.82c-2.22,3.33-2.74,8.22-2.85,12.45c-0.34,13.05-0.13,26.12-0.12,39.18c0,6.89,0.02,6.9,6.78,6.95
		c1.4,0.01,2.8,0,4.53,0v23.35h-4.9v-17.3h-6.1v17.27H103v-5.7c0-28.01,0-56.02,0-84.03c0-0.74,0.12-1.53,0.12-2.27h-5.9
		c-0.21,5.02-0.09,10.06-0.09,15.09c0,5.79,0,11.59,0,17.82h-8.48c-0.09-1.68-0.23-3.19-0.23-4.71
		c-0.01-22.97-0.02-45.95-0.01-68.92c0-7.36,1.34-8.65,8.92-8.66c13.38-0.01,26.75,0.17,40.12-0.11c4.49-0.09,7.91,0.44,9.47,5.23
		c0.37,1.14,1.41,2.05,2.03,2.93c-0.94,0.63-1.88,1.26-2.82,1.89c1.09,1.93,2.25,3.81,3.45,5.68c11.21-2.15,22.5-1.98,33.54,0.79
		c2.69,0.67,5.9,5.44,6.17,8.55c2.02,23.66,3.37,47.38,4.92,71.08C194.24,183.67,194.02,183.96,193.82,184.49z"/>
</g>
</svg>
