<svg xmlns="http://www.w3.org/2000/svg" viewBox="0 0 277.33 277.41" style="enable-background:new 0 0 277.33 277.41" xml:space="preserve"><circle cx="138.67" cy="138.31" r="135.25" style="fill:#fbac33"/><path d="M231.09 102.02c-.06.49-.1.86-.16 1.35-6.61 7.57-13.28 15.05-22.85 19.11-7.51 3.19-15.27 3.76-23.24 2.52-8.22-1.28-15.07-5.27-21.12-10.78-3.81-3.46-7.81-6.61-12.71-8.4-3.52-1.28-7.17-1.9-10.92-1.98-1.47-.03-2.95-.13-4.33-.19 12.45 12.39 24.93 24.81 37.29 37.1.3-4.06-.02-8.46-1.33-13.03.65.17 1.12.26 1.57.42 1.51.56 2.98 1.21 4.51 1.69.87.27 1.26.78 1.35 1.6 1.24 11.13-.41 21.63-7.3 30.78-9.03 11.99-21.08 17.69-36.14 16.87-1.39-.08-2.78-.21-4.16-.34-.73-.07-1.15-.42-1.4-1.21-.63-1.96-1.41-3.88-2.09-5.71 4.55.46 9.03.9 13.83 1.38-12.79-12.72-25.29-25.14-37.72-37.5-.14 3.61-.13 7.44.85 11.25 1.69 6.58 5.31 11.94 9.88 16.86 4.96 5.34 8.6 11.53 10.06 18.76 2.45 12.05.74 23.43-6.89 33.28-3.86 4.98-8.66 9.22-13.07 13.76-.82.85-3.67.78-4.37.05-1.16-1.23-1.14-2.95.09-4.34.67-.75 1.39-1.46 2.01-2.12l-48.94-49.03c-.6.53-1.28 1.14-1.96 1.74-1.45 1.27-3.54 1.38-4.71.25-1.2-1.16-1.2-3.28.22-4.66 4.36-4.24 8.56-8.69 13.27-12.51 5.97-4.85 13.12-7.2 20.76-8 3.56-.37 7.09-.19 10.59.5.45.09 1.07.36 1.22.71.9 2.08 1.68 4.2 2.6 6.54-4.41-1.07-8.64-1.76-12.94-1.71-.08.16-.1.2-.19.36.51.73.93 1.54 1.54 2.18 3.98 4.15 7.96 8.29 12.01 12.36 7.57 7.61 15.19 15.17 22.8 22.75.11.11.25.21.66.55-.16-2.81-.25-5.36-.46-7.89-.64-7.81-4.24-14.27-9.5-19.84-5.58-5.91-9.56-12.7-11.24-20.66-.6-2.81-.38-5.79-.55-8.7-.48-8.16 1.79-15.61 6.32-22.28 7.61-11.18 18.15-17.54 31.78-18.44 12.13-.8 22.45 3.33 31.3 11.48 4.59 4.23 9.63 7.7 15.79 9.26 4 1.02 8.06 1.2 12.53 1.05-12.71-12.49-24.83-25.15-37.8-37.04-.75 4.47.24 8.67 1.21 13.27-2.32-.98-4.4-1.69-6.28-2.74-.68-.38-1.17-1.57-1.26-2.44-1.15-11.01 1.06-21.17 7.9-30.1 3.59-4.68 7.68-8.88 12.03-12.84.35-.32.69-.67 1.03-1 1.47.08 2.28.12 3.75.21 1.43 1.66 1.42 3.33-.03 5-.57.66-1.17 1.3-1.7 1.88 16.38 16.35 32.69 32.64 49.01 48.93 4.41-3.72 5.76-3.77 7.6-.32zm-70.23 62.8c1.64-1.55 3.03-2.86 4.64-4.39-16.44-16.44-32.66-32.65-49.16-49.14-1.65 1.54-3.07 2.88-4.64 4.35 16.67 16.67 32.86 32.86 49.16 49.18zm-102.34 4.57c16.36 16.35 32.64 32.63 49 48.98 1.09-1.11 2.19-2.26 3.33-3.38.67-.66.55-1.18-.1-1.8-1.39-1.35-2.71-2.78-4.08-4.16-13.71-13.78-27.43-27.54-41.13-41.33-.88-.89-1.63-1.91-2.44-2.87-1.76 1.75-3.17 3.14-4.58 4.56zm107.19-107c.18.2.35.39.53.56 13.01 12.98 26.01 25.97 39.02 38.95 2.78 2.77 5.62 5.48 8.4 8.26.71.71 1.26.8 1.99.04 1.07-1.12 2.2-2.19 3.05-3.02l-48.79-49.27c-1.44 1.53-2.78 2.97-4.2 4.48zm43.21 52.66c-15.8-15.81-31.49-31.49-47.24-47.25-.63 1.49-1.23 3.12-2 4.66-.45.91-.33 1.44.39 2.16 9.44 9.38 18.84 18.79 28.24 28.2 4.63 4.63 9.27 9.25 13.87 13.9.59.59 1.1.79 1.88.42 1.66-.73 3.32-1.42 4.86-2.09zm-101.02 6.74c-.63 1.53-1.15 3-1.84 4.38-.5.99-.21 1.56.51 2.28 9.22 9.18 18.41 18.38 27.61 27.58 4.81 4.81 9.61 9.62 14.44 14.41.31.3.91.66 1.21.55 1.89-.7 3.73-1.53 5.62-2.33-1.81-2.58-45.51-45.69-47.55-46.87zm61.3 33.02c.71-1.62 1.42-3.28 2.18-4.92.35-.76.22-1.24-.4-1.85-8.9-8.84-17.76-17.73-26.65-26.59-5.21-5.19-10.43-10.37-15.67-15.52-.36-.36-1.09-.76-1.46-.63-1.8.67-3.53 1.51-5.25 2.27 15.76 15.75 31.43 31.42 47.25 47.24zm-100.76 6.35c15.73 15.76 31.41 31.46 47.13 47.21.62-1.36 1.24-2.83 1.95-4.26.58-1.16.31-1.93-.62-2.85-8.85-8.77-17.65-17.61-26.47-26.41-5.12-5.1-10.27-10.16-15.38-15.27-.71-.72-1.33-.84-2.22-.41-1.51.74-3.06 1.39-4.39 1.99z" style="fill:#fff"/></svg>