<svg version="1.1" id="Layer_1" xmlns="http://www.w3.org/2000/svg" x="0" y="0" viewBox="0 0 28 28" style="enable-background:new 0 0 28 28" xml:space="preserve"><style>.st1{fill:#4a5b7b}</style><path d="M21.64 12.09h-16v11c0 .55.45 1 1 1h14c.55 0 1-.45 1-1v-11z" style="fill:#9ba4b4"/><path class="st1" d="M10.64 20.09c0 .55-.45 1-1 1s-1-.45-1-1v-4c0-.55.45-1 1-1s1 .45 1 1v4zM14.64 20.09c0 .55-.45 1-1 1s-1-.45-1-1v-4c0-.55.45-1 1-1s1 .45 1 1v4zM18.64 20.09c0 .55-.45 1-1 1s-1-.45-1-1v-4c0-.55.45-1 1-1s1 .45 1 1v4zM23.64 7.09v3h-20v-3c0-.55.45-1 1-1h5v-1c0-.55.45-1 1-1h6c.55 0 1 .45 1 1v1h5c.56 0 1 .45 1 1z"/></svg>