<svg version="1.1" id="Layer_1" xmlns="http://www.w3.org/2000/svg" x="0" y="0" viewBox="0 0 28 28" style="enable-background:new 0 0 28 28" xml:space="preserve"><style>.st1{fill:#4a5b7b}</style><path d="M13.65 23.72c1.7 0 3.37-.49 4.8-1.4l4.2 1.4-1.4-4.2c2.65-4.2 1.39-9.76-2.82-12.4S8.68 5.73 6.03 9.93s-1.39 9.76 2.82 12.4c1.44.91 3.1 1.39 4.8 1.39z" style="fill:#9ba4b4"/><path class="st1" d="M9.65 11.22h8c.55 0 1 .45 1 1s-.45 1-1 1h-8c-.55 0-1-.45-1-1s.45-1 1-1zM9.65 16.22h4c.55 0 1 .45 1 1s-.45 1-1 1h-4c-.55 0-1-.45-1-1 0-.56.45-1 1-1z"/></svg>