<svg xmlns="http://www.w3.org/2000/svg" viewBox="0 0 64.89 64.61" style="enable-background:new 0 0 64.89 64.61" xml:space="preserve"><circle cx="32.44" cy="32.31" r="30" style="fill:#ccc"/><path d="M31.6 44.5H21.46c-.87 0-1.72-.11-2.51-.5-1.42-.7-2.05-2.09-1.67-3.63.23-.91.7-1.71 1.16-2.51 1.1-1.89 2.19-3.78 3.29-5.66.92-1.58 1.84-3.17 2.76-4.75.98-1.69 1.95-3.38 2.94-5.06.46-.78.92-1.56 1.46-2.29.53-.71 1.24-1.22 2.14-1.4 1.15-.22 2.08.21 2.9.98.6.57 1 1.28 1.41 1.98.99 1.7 1.98 3.41 2.97 5.11l2.37 4.08c.98 1.69 1.96 3.37 2.94 5.06.58 1.01 1.17 2.02 1.74 3.03.37.65.61 1.35.65 2.1.09 1.6-.87 2.85-2.53 3.23-.57.13-1.17.21-1.76.21-3.38.03-6.75.02-10.12.02zm1.93-14.79c0-1.39.01-2.78-.01-4.16-.01-1.01-.91-1.85-1.95-1.86-1.03-.01-1.96.83-1.97 1.83-.02 2.78-.02 5.57 0 8.35.01.72.4 1.27 1.04 1.59 1.38.69 2.87-.25 2.88-1.79.02-1.31.01-2.64.01-3.96zm-4.58 9.76c0 1.46 1.18 2.65 2.64 2.65 1.45 0 2.65-1.19 2.65-2.65 0-1.47-1.2-2.67-2.66-2.67a2.668 2.668 0 0 0-2.63 2.67z" style="fill:#6f767d"/></svg>