<svg version="1.1" id="Layer_1" xmlns="http://www.w3.org/2000/svg" x="0" y="0" viewBox="0 0 32 32" xml:space="preserve"><style>.st0,.st1{fill-rule:evenodd;clip-rule:evenodd;fill:#ededee}.st1{fill:#fff}</style><path class="st0" d="M3.6 11.8c0 2.4 1.9 4.3 4.3 4.3s4.3-1.9 4.3-4.3-1.9-4.3-4.3-4.3-4.3 1.9-4.3 4.3zm7.1 4.2c2.3 0 4.3 1.3 4.3 2.8v2.8H.8v-2.8C.8 17.3 2.7 16 5 16h5.7zM24.1 18.4h-4.8V28h12v-4.8c-.1-2.7-3.3-4.8-7.2-4.8zM19.3 18.4c4 0 7.2-3.2 7.2-7.2S23.3 4 19.3 4v14.4z"/><path class="st1" d="M19.3 18.4V28h-12v-4.8c0-2.6 3.2-4.8 7.2-4.8h4.8zM12.1 11.2c0 4 3.2 7.2 7.2 7.2V4c-4 0-7.2 3.3-7.2 7.2z"/></svg>