<svg xmlns="http://www.w3.org/2000/svg" viewBox="0 0 38.4 38.38"><defs><style>.cls-1{fill:#4d4d4d;}</style></defs><g id="Layer_2" data-name="Layer 2"><g id="Layer_1-2" data-name="Layer 1"><path class="cls-1" d="M37.38,16.23a8.33,8.33,0,0,1-1.48-2.6,18.8,18.8,0,0,0-1-2.33,8.48,8.48,0,0,1-.79-2.88A4.78,4.78,0,0,0,30,4.24a8.48,8.48,0,0,1-2.89-.79,16.31,16.31,0,0,0-2.33-1A8.58,8.58,0,0,1,22.15,1a4.85,4.85,0,0,0-5.91,0,8.59,8.59,0,0,1-2.59,1.48,16.31,16.31,0,0,0-2.33,1,8.54,8.54,0,0,1-2.89.79A4.78,4.78,0,0,0,4.26,8.42a8.48,8.48,0,0,1-.79,2.88,18.8,18.8,0,0,0-1,2.33A8.33,8.33,0,0,1,1,16.23a4.79,4.79,0,0,0,0,5.91A8.29,8.29,0,0,1,2.5,24.73a18.18,18.18,0,0,0,1,2.33A8.54,8.54,0,0,1,4.26,30a4.79,4.79,0,0,0,1.36,2.81,4.73,4.73,0,0,0,2.81,1.36,8.78,8.78,0,0,1,2.89.79,17.6,17.6,0,0,0,2.33,1,8.33,8.33,0,0,1,2.6,1.48,4.72,4.72,0,0,0,2.95,1,4.77,4.77,0,0,0,3-1,8.18,8.18,0,0,1,2.59-1.48,17.6,17.6,0,0,0,2.33-1A8.71,8.71,0,0,1,30,34.12a4.73,4.73,0,0,0,2.81-1.36A4.79,4.79,0,0,0,34.14,30a8.54,8.54,0,0,1,.79-2.89,18.18,18.18,0,0,0,1-2.33,8.44,8.44,0,0,1,1.47-2.59,4.77,4.77,0,0,0,0-5.91Zm-2.52,3.93a11.6,11.6,0,0,0-2,3.56,15.07,15.07,0,0,1-.79,1.91A12,12,0,0,0,31,29.57a1.56,1.56,0,0,1-.45.93,1.59,1.59,0,0,1-.93.45,11.78,11.78,0,0,0-3.93,1.1,13.94,13.94,0,0,1-1.91.79,11.79,11.79,0,0,0-3.56,2,1.56,1.56,0,0,1-1,.34,1.62,1.62,0,0,1-1-.33,11.62,11.62,0,0,0-3.56-2,13.94,13.94,0,0,1-1.91-.79A11.78,11.78,0,0,0,8.82,31a1.59,1.59,0,0,1-.93-.45,1.56,1.56,0,0,1-.45-.93,12,12,0,0,0-1.11-3.94,15.07,15.07,0,0,1-.79-1.91,11.6,11.6,0,0,0-2-3.56,1.58,1.58,0,0,1,0-2,11.49,11.49,0,0,0,2-3.56,15.07,15.07,0,0,1,.79-1.91A11.94,11.94,0,0,0,7.44,8.8a1.56,1.56,0,0,1,.45-.93,1.53,1.53,0,0,1,.93-.45,12,12,0,0,0,3.93-1.11,15.32,15.32,0,0,1,1.91-.79,11.58,11.58,0,0,0,3.56-2,1.58,1.58,0,0,1,2,0,11.58,11.58,0,0,0,3.56,2,15.32,15.32,0,0,1,1.91.79,12,12,0,0,0,3.93,1.11,1.53,1.53,0,0,1,.93.45A1.56,1.56,0,0,1,31,8.8a11.94,11.94,0,0,0,1.11,3.93,15.07,15.07,0,0,1,.79,1.91,11.64,11.64,0,0,0,2,3.57,1.5,1.5,0,0,1,.34,1A1.56,1.56,0,0,1,34.86,20.16Z"/><path class="cls-1" d="M22.87,14.85,18.73,19a1.61,1.61,0,0,1-2.26,0l-.94-.94a1.61,1.61,0,0,0-2.26,0,1.59,1.59,0,0,0,0,2.26l.94.94a4.8,4.8,0,0,0,6.78,0l4.14-4.14a1.59,1.59,0,0,0,0-2.26A1.61,1.61,0,0,0,22.87,14.85Z"/></g></g></svg>