<?xml version="1.0" encoding="utf-8"?>
<!-- Generator: Adobe Illustrator 25.4.1, SVG Export Plug-In . SVG Version: 6.00 Build 0)  -->
<svg version="1.2" baseProfile="tiny" id="Layer_1" xmlns="http://www.w3.org/2000/svg" xmlns:xlink="http://www.w3.org/1999/xlink"
	 x="0px" y="0px" viewBox="0 0 32 32" overflow="visible" xml:space="preserve">
<g>
	<path fill-rule="evenodd" fill="#D8D9D8" d="M26.92,27.83L26.92,27.83h0.91c0,0,2.73-0.06,2.73-3.64V7.81h-3.62h-0.02V27.83z"/>
	<path fill-rule="evenodd" fill="#EAEAEB" d="M26.92,6.69V4.17H1.44v20.02c0,0,0,3.64,3.64,3.64h21.84V7.81V6.69z"/>
	<path fill-rule="evenodd" fill="#FFFFFF" d="M5.08,26.01c-1.82,0-1.82-1.82-1.82-1.82V5.99H25.1v18.2c0,0.84,0.26,1.42,0.61,1.82
		H5.08z"/>
	<rect x="14.97" y="9.63" fill-rule="evenodd" fill="#D8D9D8" width="8.31" height="1.82"/>
	<rect x="15.09" y="20.55" fill-rule="evenodd" fill="#D8D9D8" width="6.37" height="1.82"/>
	<rect x="15.09" y="16.91" fill-rule="evenodd" fill="#D8D9D8" width="8.19" height="1.82"/>
	<rect x="15.09" y="13.27" fill-rule="evenodd" fill="#D8D9D8" width="8.19" height="1.82"/>
	<rect x="5.08" y="9.73" fill-rule="evenodd" fill="#D8D9D8" width="8.19" height="10.73"/>
</g>
</svg>
