<svg xmlns="http://www.w3.org/2000/svg" viewBox="0 0 40 40"><path d="M37.3 23.2v-6.3h-3.5c-.3-1.6-1-3-1.9-4.3l2.4-2.4-4.5-4.5L27.5 8c-1.3-.9-2.7-1.4-4.3-1.9V2.7h-6.3v3.5c-1.6.3-3 1-4.3 1.9l-2.4-2.4-4.5 4.5L8 12.5c-.9 1.3-1.4 2.7-1.9 4.3H2.7v6.3h3.5c.3 1.6 1 3 1.9 4.3l-2.4 2.4 4.5 4.5 2.4-2.4c1.3.9 2.7 1.4 4.3 1.9v3.5h6.3v-3.5c1.6-.3 3-1 4.3-1.9l2.4 2.4 4.5-4.5-2.4-2.3c.9-1.3 1.4-2.7 1.9-4.3h3.4zM20 24.8c-2.6 0-4.8-2.2-4.8-4.8s2.2-4.8 4.8-4.8 4.8 2.2 4.8 4.8c0 2.6-2.2 4.8-4.8 4.8z" fill="none" stroke="#ffac31" stroke-width="2" stroke-linecap="round" stroke-miterlimit="10"/></svg>