<svg version="1.1" id="Layer_1" xmlns="http://www.w3.org/2000/svg" x="0" y="0" viewBox="0 0 128 128" xml:space="preserve"><style>.st0{fill: #81cc71}.st1{fill:#615ca9}</style><path class="st0" d="M64 40.8c7.5-6.1 16.1-10 25.3-12.9 4.5-1.4 9.1-2.5 13.8-3.2 3.5-.6 7-1 10.5-1.2 3.1-.2 6.2-.3 9.3-.4.6 0 .7.2.7.7v74.9c0 .6-.2.8-.8.8-5.8 0-11.6.4-17.3 1.2-10.1 1.5-19.9 4.2-29.2 8.7-4.3 2.1-8.4 4.5-12 7.6-.1.1-.1.1-.2.1v-.6-24.6C64 74.8 64 57.8 64 40.8zm7.9 56.5v4.3c0 .4.1.5.5.3 2.7-1.6 5.5-2.9 8.4-4.1.4-.2.5-.4.5-.7v-8.4c0-.6-.2-.6-.6-.4-2.8 1.2-5.6 2.5-8.2 4-.3.2-.4.4-.4.7-.2 1.4-.2 2.8-.2 4.3zm0-47.8v4.2c0 .5.1.6.6.3 2.7-1.5 5.4-2.9 8.3-4 .4-.2.5-.4.5-.7v-8.4c0-.6-.1-.6-.6-.4-2.8 1.2-5.5 2.5-8.2 4-.4.2-.5.4-.5.8-.1 1.5-.1 2.9-.1 4.2zm18.4 40v4.3c0 .4.1.5.5.4 2.7-.8 5.5-1.5 8.3-2 .3-.1.5-.2.5-.6V83c0-.4-.1-.5-.5-.4-2.8.6-5.5 1.3-8.3 2-.4.1-.5.3-.5.7v4.2zm27.7-52v-4.2c0-.5-.1-.6-.6-.6-2.6.2-5.2.3-7.8.6-.6.1-.8.2-.8.8v7.4c0 1.4 0 1.4 1.4 1.3 2.4-.3 4.8-.4 7.2-.5.5 0 .6-.2.6-.7v-4.1zm0 47.7V81c0-.3 0-.6-.4-.5-2.8.1-5.6.3-8.3.6-.4 0-.5.2-.5.5v8.5c0 .4.1.6.6.5 2.7-.3 5.4-.5 8.1-.6.5 0 .6-.2.6-.7-.1-1.4-.1-2.8-.1-4.1z"/><path class="st1" d="M64 40.8V117c-.9-.7-1.7-1.3-2.6-2-6.2-4.5-13-7.6-20.1-10-6.5-2.2-13.3-3.7-20.1-4.6-5.2-.7-10.5-1-15.8-1.1-.9 0-.9 0-.9-.8V24.9v-1.3c0-.4.1-.6.5-.6 3.5 0 6.9.2 10.4.4 4.1.3 8.2.9 12.2 1.7 10.9 2.1 21.3 5.7 30.8 11.6 1.9 1.2 3.8 2.6 5.6 4.1zm-7.9 8.8v-4.2c0-.3-.1-.6-.4-.7-2.7-1.5-5.5-2.9-8.4-4.1-.4-.2-.5-.1-.5.3v8.5c0 .4.2.6.5.8 2.8 1.2 5.5 2.5 8.2 4 .5.3.6.1.6-.4v-4.2zM9.9 85.1v4.2c0 .5.1.7.7.7 2.7.1 5.4.3 8.1.6.4.1.6-.1.6-.5V82c0-1 0-.9-.9-1-2.6-.2-5.2-.5-7.8-.6-.5 0-.6.1-.6.5-.1 1.4-.1 2.8-.1 4.2zm9.3-47V34c0-.5-.2-.7-.6-.7-2.7-.3-5.4-.5-8.1-.6-.4 0-.5 0-.5.5v8.5c0 .4.1.5.5.5 2.8.1 5.5.3 8.2.6.4 0 .5 0 .5-.5v-4.2zM56 102c0-.1.1-.2.1-.3v-8.9c0-.4-.2-.5-.5-.6-2.7-1.5-5.4-2.8-8.2-4-.5-.2-.6-.1-.6.4V97c0 .5.2.7.6.9 2.1.9 4.2 1.8 6.2 2.9L56 102zm-18.4-7.7c0-.1.1-.1.1-.1v-9c0-.4-.2-.4-.5-.5-2.7-.8-5.5-1.4-8.2-2-.5-.1-.6 0-.6.5v8.4c0 .5.1.6.6.7 1.3.3 2.7.6 4 .9 1.5.3 3 .7 4.6 1.1zm-9.2-54.7v4.2c0 .4.1.6.6.7 2.8.5 5.5 1.2 8.2 2 .5.1.6.1.6-.4v-8.5c0-.4-.1-.5-.5-.6-2.8-.8-5.5-1.5-8.3-2-.5-.1-.5 0-.5.4-.1 1.4-.1 2.8-.1 4.2zM65.1 36.8c.6-1.1 1.5-2.1 2.3-3.1 7.3-8.6 15.8-15.5 26.2-20.2 2-.9 4.1-1.7 6.2-2.4.2-.1.4-.2.7-.1v9.9c0 .4-.1.6-.5.6-8.2 1.7-16 4.6-23.4 8.4-3.8 1.9-7.4 4.1-10.9 6.7-.2 0-.4.3-.6.2zM62.7 36.7c-3.4-2.5-7-4.7-10.8-6.6-7.6-3.9-15.5-6.8-23.8-8.6-.5-.1-.7-.3-.7-.8v-9.1c0-.8 0-.8.7-.5 7.5 2.4 14.3 6.2 20.5 11.1 5.2 4.1 9.8 8.7 13.7 13.9.3.2.4.4.4.6zM62.9 36.8c0 .1-.1.1 0 0zM65.1 36.8v.1c-.2-.1 0-.1 0-.1z"/><path class="st1" d="M62.9 36.8c-.1.1-.1 0-.2 0l.1-.1.1.1zM71.9 97.3v-4.2c0-.4.1-.5.4-.7 2.7-1.5 5.4-2.8 8.2-4 .5-.2.6-.2.6.4v8.4c0 .4-.1.6-.5.7-2.9 1.2-5.7 2.5-8.4 4.1-.4.2-.5.1-.5-.3.2-1.6.2-3 .2-4.4zM71.9 49.5v-4.1c0-.4.1-.6.5-.8 2.7-1.5 5.4-2.8 8.2-4 .5-.2.6-.1.6.4v8.4c0 .4-.1.6-.5.7-2.8 1.2-5.6 2.5-8.3 4-.5.3-.6.2-.6-.3.1-1.4.1-2.8.1-4.3zM90.3 89.5v-4.2c0-.4.1-.6.5-.7 2.7-.7 5.5-1.5 8.3-2 .4-.1.5 0 .5.4v8.6c0 .4-.1.5-.5.6-2.8.5-5.6 1.2-8.3 2-.4.1-.5 0-.5-.4v-4.3zM90.3 41.8v-4.2c0-.4.1-.6.5-.7 2.7-.7 5.5-1.5 8.3-2 .4-.1.5 0 .5.4v8.6c0 .4-.1.5-.5.6-2.8.5-5.6 1.2-8.3 2-.4.1-.5 0-.5-.4v-4.3zM118 37.5v4.1c0 .5-.2.6-.6.7-2.4.1-4.8.3-7.2.5-1.4.1-1.4.1-1.4-1.3v-7.4c0-.6.2-.8.8-.8l7.8-.6c.5 0 .6.1.6.6v4.2zM118 85.2v4.1c0 .5-.1.6-.6.7-2.7.1-5.4.3-8.1.6-.5.1-.6-.1-.6-.5v-8.5c0-.4.1-.5.5-.5 2.8-.3 5.5-.5 8.3-.6.5 0 .4.2.4.5.1 1.3.1 2.8.1 4.2z"/><path class="st0" d="M56.1 49.6v4.2c0 .5 0 .7-.6.4-2.6-1.5-5.4-2.8-8.2-4-.4-.2-.5-.3-.5-.8v-8.5c0-.4.1-.5.5-.3 2.9 1.2 5.6 2.6 8.4 4.1.3.2.4.4.4.7v4.2zM9.9 85.1v-4.2c0-.4.1-.5.6-.5 2.6.1 5.2.3 7.8.6.9.1.9.1.9 1v8.1c0 .4-.1.6-.6.5-2.7-.3-5.4-.5-8.1-.6-.6 0-.7-.2-.7-.7.1-1.4.1-2.8.1-4.2zM19.2 38.1v4.3c0 .4-.1.5-.5.5-2.7-.3-5.5-.5-8.2-.6-.4 0-.5-.1-.5-.5v-8.5c0-.4.2-.5.5-.5 2.7.1 5.4.3 8.1.6.5 0 .7.2.6.7v4zM56 102c-.8-.4-1.6-.9-2.4-1.3-2-1.1-4.1-2-6.2-2.9-.4-.2-.6-.4-.6-.9v-8.4c0-.5.1-.6.6-.4 2.8 1.2 5.6 2.5 8.2 4 .3.1.5.3.5.6v8.9c0 .2 0 .3-.1.4zM37.6 94.3c-1.5-.4-3.1-.8-4.6-1.2-1.3-.3-2.7-.6-4-.9-.4-.1-.6-.3-.6-.7v-8.4c0-.5.1-.6.6-.5 2.8.6 5.5 1.3 8.2 2 .3.1.5.1.5.5v9c-.1.1-.1.1-.1.2zM28.4 39.6v-4.2c0-.4 0-.5.5-.4 2.8.6 5.6 1.3 8.3 2 .4.1.5.3.5.6v8.5c0 .5-.1.6-.6.4-2.7-.8-5.4-1.5-8.2-2-.4-.1-.6-.3-.6-.7.1-1.4.1-2.8.1-4.2z"/></svg>