<?xml version="1.0" encoding="UTF-8"?>
<svg id="Layer_2" data-name="Layer 2" xmlns="http://www.w3.org/2000/svg" viewBox="0 0 38.4 28.8">
  <defs>
    <style>
      .cls-1 {
        fill: #4e4e4e;
      }
    </style>
  </defs>
  <g id="Layer_1-2" data-name="Layer 1">
    <g>
      <path class="cls-1" d="m31.35.74c-8.05-.99-16.31-.99-24.38.01C2.99,1.25,0,4.66,0,8.69v11.41c0,4.04,3.03,7.45,7.05,7.95,4.01.5,8.1.75,12.15.75s8.19-.25,12.24-.76c3.97-.49,6.96-3.91,6.96-7.94v-11.41c0-4.04-3.03-7.45-7.05-7.95Zm-4.15,20.05c-3.53,0-6.4-2.87-6.4-6.4s2.87-6.4,6.4-6.4h7.93c.03.23.07.46.07.7v11.41c0,.24-.03.47-.06.69h-7.94Zm3.84,4.07c-7.81.97-15.81.97-23.6.01-2.42-.3-4.25-2.35-4.25-4.77v-11.41c0-2.42,1.79-4.46,4.16-4.76,3.92-.49,7.9-.73,11.84-.73s7.87.24,11.75.72c.83.1,1.58.42,2.22.88h-5.97c-5.29,0-9.6,4.31-9.6,9.6s4.31,9.6,9.6,9.6h6c-.62.45-1.35.77-2.16.87Z"/>
      <path class="cls-1" d="m28.8,9.6c-2.65,0-4.8,2.15-4.8,4.8s2.15,4.8,4.8,4.8,4.8-2.15,4.8-4.8-2.15-4.8-4.8-4.8Zm0,6.4c-.88,0-1.6-.72-1.6-1.6s.72-1.6,1.6-1.6,1.6.72,1.6,1.6-.72,1.6-1.6,1.6Z"/>
    </g>
  </g>
</svg>