<?xml version="1.0" encoding="UTF-8"?>
<svg id="Layer_2" data-name="Layer 2" xmlns="http://www.w3.org/2000/svg" viewBox="0 0 38.4 28.8">
  <defs>
    <style>
      .cls-1 {
        fill: #4e4e4e;
      }
    </style>
  </defs>
  <g id="Layer_1-2" data-name="Layer 1">
    <g>
      <path class="cls-1" d="m31.35.74c-8.05-.99-16.31-.99-24.38.01C2.99,1.25,0,4.66,0,8.69v11.41c0,4.04,3.03,7.45,7.05,7.95,4.01.5,8.1.75,12.15.75s8.19-.25,12.24-.76c3.97-.49,6.96-3.91,6.96-7.94v-11.41c0-4.04-3.03-7.45-7.05-7.95Zm3.85,19.36c0,2.42-1.79,4.46-4.16,4.76-7.82.97-15.81.97-23.6.01-2.42-.3-4.25-2.35-4.25-4.77v-11.41c0-2.42,1.79-4.46,4.16-4.76,3.92-.49,7.9-.73,11.84-.73s7.87.24,11.75.72c2.42.3,4.25,2.35,4.25,4.77v11.41Z"/>
      <path class="cls-1" d="m28.4,6.65l-6.62,4.21c-1.57,1-3.59,1-5.15,0l-6.62-4.21c-.75-.48-1.74-.25-2.21.49-.47.75-.25,1.73.49,2.21l6.62,4.21c1.3.83,2.8,1.25,4.3,1.25s2.99-.42,4.3-1.25l6.62-4.21c.75-.47.97-1.46.49-2.21-.47-.75-1.46-.97-2.21-.49Z"/>
    </g>
  </g>
</svg>