<?xml version="1.0" encoding="UTF-8"?>
<svg id="Layer_2" data-name="Layer 2" xmlns="http://www.w3.org/2000/svg" viewBox="0 0 35.2 38.4">
  <defs>
    <style>
      .cls-1 {
        fill: #4e4e4e;
      }
    </style>
  </defs>
  <g id="Layer_1-2" data-name="Layer 1">
    <g>
      <path class="cls-1" d="m34.95,12.18c-.15-2.1-1.14-4.1-2.71-5.48l-5.37-4.71c-1.46-1.28-3.33-1.98-5.27-1.98h-12.9C4.66,0,1.25,2.99.76,6.96c-.5,4.05-.76,8.17-.76,12.24s.25,8.13.75,12.15c.5,4.02,3.91,7.05,7.95,7.05h17.81c4.03,0,7.44-2.99,7.94-6.96.5-4.05.76-8.17.76-12.24,0-2.33-.08-4.69-.25-7.02ZM11.2,3.2h9.6v3.2c0,.88-.72,1.6-1.6,1.6h-6.4c-.88,0-1.6-.72-1.6-1.6v-3.2Zm20.07,27.84c-.3,2.37-2.34,4.16-4.76,4.16H8.7c-2.42,0-4.48-1.82-4.77-4.25-.48-3.88-.72-7.84-.72-11.75s.25-7.93.73-11.84c.27-2.14,1.96-3.79,4.07-4.09v3.14c0,2.65,2.15,4.8,4.8,4.8h6.4c2.65,0,4.8-2.15,4.8-4.8v-2.55c.27.15.52.33.76.54l5.37,4.71c.95.83,1.54,2.03,1.63,3.3.16,2.26.24,4.54.24,6.8,0,3.94-.25,7.93-.73,11.84Z"/>
      <path class="cls-1" d="m24,16h-12.8c-2.65,0-4.8,2.15-4.8,4.8v8c0,2.65,2.15,4.8,4.8,4.8h12.8c2.65,0,4.8-2.15,4.8-4.8v-8c0-2.65-2.15-4.8-4.8-4.8Zm1.6,12.8c0,.88-.72,1.6-1.6,1.6h-12.8c-.88,0-1.6-.72-1.6-1.6v-8c0-.88.72-1.6,1.6-1.6h12.8c.88,0,1.6.72,1.6,1.6v8Z"/>
      <path class="cls-1" d="m22.4,20.8h-9.6c-.88,0-1.6.72-1.6,1.6s.72,1.6,1.6,1.6h9.6c.88,0,1.6-.72,1.6-1.6s-.72-1.6-1.6-1.6Z"/>
      <path class="cls-1" d="m22.4,25.6h-9.6c-.88,0-1.6.72-1.6,1.6s.72,1.6,1.6,1.6h9.6c.88,0,1.6-.72,1.6-1.6s-.72-1.6-1.6-1.6Z"/>
    </g>
  </g>
</svg>