<?xml version="1.0" encoding="UTF-8"?>
<svg id="Layer_2" data-name="Layer 2" xmlns="http://www.w3.org/2000/svg" viewBox="0 0 32 38.4">
  <defs>
    <style>
      .cls-1 {
        fill: #4e4e4e;
      }
    </style>
  </defs>
  <g id="Layer_1-2" data-name="Layer 1">
    <g>
      <path class="cls-1" d="m31.24,6.96c-.49-3.97-3.91-6.96-7.94-6.96h-13.01c-3.23,0-6.04,1.96-7.3,4.8h-1.4c-.88,0-1.6.72-1.6,1.6s.72,1.6,1.6,1.6h.65c-.18,1.59-.33,3.19-.43,4.8h-.21c-.88,0-1.6.72-1.6,1.6s.72,1.6,1.6,1.6h.05c-.03,1.07-.05,2.14-.05,3.2s.02,2.13.05,3.2h-.05c-.88,0-1.6.72-1.6,1.6s.72,1.6,1.6,1.6h.21c.1,1.61.25,3.21.43,4.8h-.65c-.88,0-1.6.72-1.6,1.6s.72,1.6,1.6,1.6h1.38c1.24,2.84,4.06,4.8,7.31,4.8h13.01c4.04,0,7.45-3.03,7.95-7.05.5-4.02.75-8.1.75-12.15s-.25-8.2-.76-12.24Zm-3.16,23.99c-.3,2.42-2.35,4.25-4.77,4.25h-13.01c-2.42,0-4.47-1.79-4.76-4.16-.49-3.91-.73-7.9-.73-11.84s.24-7.87.72-11.75c.3-2.42,2.35-4.25,4.77-4.25h13.01c2.42,0,4.47,1.79,4.76,4.16.49,3.91.73,7.9.73,11.84s-.24,7.87-.72,11.75Z"/>
      <path class="cls-1" d="m11.2,4.8c-.88,0-1.6.72-1.6,1.6v25.6c0,.88.72,1.6,1.6,1.6s1.6-.72,1.6-1.6V6.4c0-.88-.72-1.6-1.6-1.6Z"/>
    </g>
  </g>
</svg>