<?xml version="1.0" encoding="UTF-8"?>
<svg id="Layer_2" data-name="Layer 2" xmlns="http://www.w3.org/2000/svg" viewBox="0 0 38.4 38.4">
  <defs>
    <style>
      .cls-1 {
        fill: #4e4e4e;
      }
    </style>
  </defs>
  <g id="Layer_1-2" data-name="Layer 1">
    <g>
      <path class="cls-1" d="m37.58,7.58c-.5-3.49-3.3-6.27-6.83-6.77-7.65-1.08-15.52-1.08-23.16,0C4.1,1.31,1.31,4.12.81,7.65c-.54,3.81-.81,7.7-.81,11.55s.28,7.78.82,11.61c.5,3.49,3.3,6.27,6.83,6.77,3.81.54,7.7.81,11.55.81s7.78-.28,11.61-.82c3.49-.5,6.27-3.3,6.77-6.83.54-3.81.81-7.7.81-11.55s-.28-7.78-.82-11.61Zm-3.16,22.72h0c-.3,2.12-1.97,3.81-4.05,4.11-7.35,1.05-14.91,1.05-22.26,0-2.12-.3-3.81-1.97-4.11-4.06-.52-3.68-.79-7.44-.79-11.16s.26-7.44.78-11.1c.3-2.12,1.97-3.81,4.05-4.11,3.69-.52,7.44-.79,11.16-.79s7.43.26,11.1.78c2.12.3,3.81,1.97,4.11,4.06.52,3.68.79,7.44.79,11.16s-.26,7.44-.78,11.1Z"/>
      <path class="cls-1" d="m28.93,19.25c2.16-2.74,1.91-6.68-.63-9.22-2.48-2.47-6.41-2.72-9.15-.56-1.5,1.18-2.93,2.45-4.28,3.8-2,2-3.84,4.2-5.46,6.52-.92,1.33-1.41,2.9-1.41,4.55v4.46c0,.88.72,1.6,1.6,1.6h4.46c1.65,0,3.22-.49,4.55-1.41,2.32-1.62,4.52-3.45,6.52-5.46,1.34-1.34,2.62-2.78,3.8-4.28Zm-2.83-6.89c1.13,1.13,1.39,2.82.74,4.21l-5.01-5.01c1.39-.65,3.09-.39,4.27.8Zm-14.9,12.3l2.54,2.54h-2.54v-2.54Zm5.95,1.42l-4.83-4.83c1.44-2.03,3.05-3.96,4.81-5.72.69-.69,1.41-1.35,2.14-2l5.59,5.59c-.65.74-1.31,1.45-2,2.14-1.76,1.76-3.69,3.37-5.72,4.81Z"/>
      <path class="cls-1" d="m28.8,27.2h-4.8c-.88,0-1.6.72-1.6,1.6s.72,1.6,1.6,1.6h4.8c.88,0,1.6-.72,1.6-1.6s-.72-1.6-1.6-1.6Z"/>
    </g>
  </g>
</svg>