<?xml version="1.0" encoding="utf-8"?>
<!-- Generator: Adobe Illustrator 25.4.1, SVG Export Plug-In . SVG Version: 6.00 Build 0)  -->
<svg version="1.1" id="Layer_1" xmlns="http://www.w3.org/2000/svg" xmlns:xlink="http://www.w3.org/1999/xlink" x="0px" y="0px"
	 viewBox="0 0 32 32" style="enable-background:new 0 0 32 32;" xml:space="preserve">
<style type="text/css">
	.st0{fill:#FFFFFF;}
	.st1{fill:#D8D9D8;}
</style>
<g>
	<path class="st0" d="M0.79,16.05c0-1.94-0.01-3.87,0-5.8C0.81,5.56,4.59,1.3,9.28,0.92c2.61-0.21,5.26-0.27,7.86-0.09
		c3.13,0.22,7.8,3.2,8.28,7.77c0.07,0.68,0.19,1.37,0.32,2.04c0.25,1.26,0.64,1.57,1.92,1.64c0.71,0.04,1.42,0.05,2.13,0.12
		c0.84,0.08,1.42,0.63,1.41,1.46c-0.02,3.02,0.07,6.05-0.15,9.05c-0.28,3.91-3.81,7.51-7.72,8.15c-0.72,0.12-1.45,0.19-2.18,0.19
		c-3.48,0.02-6.95,0.04-10.43,0c-4.08-0.05-7.14-1.87-9.02-5.53c-0.65-1.26-0.93-2.63-0.93-4.05C0.8,19.8,0.79,17.93,0.79,16.05z
		 M15.95,23.25c0,0,0-0.01,0-0.01c1.84,0,3.67,0.03,5.51-0.01c0.99-0.02,1.69-0.75,1.74-1.67c0.05-0.88-0.65-1.67-1.61-1.82
		C21.4,19.7,21.2,19.71,21,19.7c-2.67,0-5.33,0-8,0c-0.79,0-1.58-0.02-2.37,0.01c-0.93,0.03-1.67,0.67-1.81,1.5
		c-0.12,0.76,0.31,1.58,1.05,1.87c0.34,0.13,0.73,0.16,1.1,0.16C12.63,23.26,14.29,23.25,15.95,23.25z M13.26,12.29
		c0.89,0,1.78,0.01,2.66,0c1.02-0.02,1.76-0.77,1.75-1.76c0-1-0.74-1.73-1.77-1.74c-1.78-0.01-3.55-0.01-5.33,0
		c-1.01,0.01-1.77,0.78-1.77,1.75c0,0.97,0.77,1.73,1.78,1.75C11.49,12.3,12.38,12.29,13.26,12.29z"/>
	<path class="st1" d="M15.95,23.25c-1.66,0-3.32,0.01-4.98-0.01c-0.37,0-0.76-0.03-1.1-0.16c-0.75-0.29-1.18-1.11-1.05-1.87
		c0.14-0.83,0.88-1.47,1.81-1.5c0.79-0.03,1.58-0.01,2.37-0.01c2.67,0,5.33,0,8,0c0.2,0,0.4-0.01,0.59,0.02
		c0.96,0.15,1.66,0.95,1.61,1.82c-0.05,0.92-0.76,1.65-1.74,1.67c-1.84,0.04-3.67,0.01-5.51,0.01
		C15.95,23.24,15.95,23.25,15.95,23.25z"/>
	<path class="st1" d="M13.26,12.29c-0.89,0-1.78,0.01-2.66,0c-1.01-0.01-1.78-0.78-1.78-1.75c0-0.98,0.76-1.75,1.77-1.75
		c1.78-0.01,3.55-0.01,5.33,0c1.03,0.01,1.77,0.74,1.77,1.74c0,0.99-0.74,1.75-1.75,1.76C15.04,12.3,14.15,12.29,13.26,12.29z"/>
</g>
</svg>
