<?xml version="1.0" encoding="utf-8"?>
<!-- Generator: Adobe Illustrator 25.4.1, SVG Export Plug-In . SVG Version: 6.00 Build 0)  -->
<svg version="1.2" baseProfile="tiny" id="Layer_1" xmlns="http://www.w3.org/2000/svg" xmlns:xlink="http://www.w3.org/1999/xlink"
	 x="0px" y="0px" viewBox="0 0 32 32" overflow="visible" xml:space="preserve">
<path fill="#FFFFFF" d="M18.84,3.9c0.17,0.06,0.35,0.07,0.54,0.07c1.85,0,3.69,0,5.54-0.01c0.29,0,0.39,0.06,0.38,0.37
	c-0.02,1.58-0.01,3.16-0.01,4.73c0,0.17,0.01,0.34,0.07,0.51c-0.09,0.1-0.05,0.23-0.05,0.34c0,1.27-0.01,2.54,0.01,3.8
	c0,0.29-0.09,0.47-0.3,0.66c-1.19,1.02-2.37,2.05-3.56,3.08c-0.93,0.81-1.87,1.61-2.8,2.43c-0.24,0.22-0.4,0.28-0.68,0.02
	c-0.56-0.54-1.17-1.01-1.75-1.53c-0.18-0.16-0.28-0.15-0.45,0c-0.61,0.55-1.24,1.07-1.84,1.61c-0.16,0.14-0.25,0.16-0.43,0.01
	c-2.17-1.89-4.35-3.77-6.53-5.64c-0.19-0.14-0.29-0.37-0.28-0.6c0.01-1.28,0.01-2.56,0-3.84c0-0.11,0.04-0.24-0.05-0.34
	c0.05-0.16,0.06-0.33,0.06-0.5c0-1.58,0.01-3.16-0.01-4.73c0-0.31,0.09-0.37,0.38-0.37c1.85,0.01,3.69,0.01,5.54,0.01
	c0.18,0,0.36-0.01,0.54-0.07c0.08,0.1,0.2,0.06,0.3,0.06h5.07C18.64,3.97,18.76,4,18.84,3.9z M16.47,6.66
	c-2.42-0.06-4.49,1.61-4.7,3.98c-0.13,1.45,0.53,2.88,1.81,3.55c1.72,0.89,3.45,0.82,5.14-0.15c0.49-0.28,0.48-0.28,0.14-0.74
	c-0.1-0.13-0.16-0.16-0.31-0.06c-0.97,0.65-2.04,0.82-3.17,0.68c-1.12-0.14-2.01-0.66-2.46-1.73c-0.64-1.54,0.09-3.42,1.56-4.21
	c0.79-0.42,1.63-0.53,2.5-0.41c0.99,0.13,1.8,0.57,2.17,1.55c0.33,0.88,0.17,1.71-0.42,2.45c-0.21,0.27-0.48,0.46-0.84,0.49
	c-0.35,0.03-0.45-0.09-0.36-0.44c0.2-0.8,0.4-1.61,0.59-2.41c0.02-0.08,0.11-0.18-0.01-0.26c-0.17-0.11-0.85,0.03-0.97,0.19
	c-0.07,0.1-0.12,0.18-0.24,0.05c-0.48-0.52-1.07-0.47-1.64-0.25c-1.11,0.42-1.75,1.9-1.37,3.07c0.13,0.4,0.39,0.68,0.78,0.8
	c0.61,0.18,1.22,0.17,1.7-0.34c0.13-0.14,0.22-0.19,0.32,0.03c0.09,0.22,0.3,0.3,0.51,0.36c0.33,0.1,0.66,0.06,0.99-0.03
	c1.88-0.52,2.7-3.01,1.53-4.63C18.92,7.08,17.78,6.69,16.47,6.66z"/>
<path fill="#DCDBDB" d="M28.33,30.23c-0.2,0.22-0.46,0.26-0.73,0.26H4.54c-0.31,0-0.63,0-0.86-0.26c0.11-0.18,0.27-0.31,0.42-0.44
	c0.71-0.61,1.42-1.21,2.12-1.81c0.73-0.63,1.44-1.27,2.17-1.9c0.93-0.81,1.86-1.61,2.79-2.41c0.57-0.49,1.17-0.97,1.72-1.49
	c0.25-0.24,0.62-0.37,0.72-0.74c0.14,0.04,0.21-0.07,0.3-0.14c0.64-0.55,1.28-1.11,1.92-1.67c0.12-0.11,0.2-0.11,0.32,0
	c0.52,0.46,1.04,0.93,1.58,1.37c0.2,0.16,0.34,0.42,0.64,0.44c0.02,0.18,0.16,0.27,0.28,0.37c0.74,0.64,1.48,1.27,2.21,1.9l2.1,1.83
	c0.76,0.66,1.52,1.31,2.28,1.97c0.56,0.48,1.14,0.94,1.67,1.44C27.39,29.39,27.93,29.73,28.33,30.23z"/>
<path fill="#FFFFFF" d="M13.62,21.43c-0.11,0.38-0.48,0.51-0.72,0.74c-0.55,0.52-1.15,0.99-1.72,1.49c-0.93,0.8-1.86,1.6-2.79,2.41
	c-0.73,0.63-1.44,1.27-2.17,1.9c-0.7,0.61-1.41,1.21-2.12,1.81c-0.15,0.13-0.31,0.26-0.42,0.44c-0.3-0.21-0.36-0.52-0.36-0.85V12.92
	c0-0.14-0.03-0.28,0.04-0.41l3.44,2.96c1.54,1.33,3.08,2.67,4.62,4C12.15,20.12,12.88,20.78,13.62,21.43z M28.33,30.23
	c-0.39-0.5-0.93-0.84-1.39-1.27c-0.54-0.5-1.12-0.96-1.67-1.44c-0.76-0.66-1.52-1.31-2.28-1.97c-0.7-0.61-1.4-1.23-2.1-1.83
	c-0.74-0.64-1.48-1.27-2.21-1.9c-0.12-0.1-0.27-0.19-0.28-0.37c0.89-0.78,1.77-1.56,2.66-2.33c1.55-1.35,3.11-2.7,4.67-4.04
	c0.98-0.85,1.97-1.69,2.95-2.54c0.06,0.11,0.04,0.23,0.04,0.35v16.42C28.69,29.65,28.66,30,28.33,30.23z"/>
<path fill="#DCDBDB" d="M28.65,12.52c-0.98,0.85-1.97,1.69-2.95,2.54l-4.67,4.04c-0.89,0.77-1.77,1.55-2.66,2.33
	c-0.3-0.01-0.44-0.28-0.64-0.44c-0.54-0.44-1.06-0.91-1.58-1.37c-0.12-0.11-0.2-0.11-0.32,0c-0.63,0.56-1.28,1.11-1.92,1.67
	c-0.09,0.08-0.16,0.19-0.3,0.14c-0.74-0.65-1.48-1.31-2.22-1.95c-1.54-1.34-3.08-2.67-4.62-4c-1.14-0.99-2.29-1.97-3.44-2.96
	c-0.01-0.1,0.06-0.15,0.13-0.21c1.06-0.91,2.11-1.82,3.17-2.74C6.73,9.67,6.7,9.8,6.7,9.91c0,1.28,0.01,2.56,0,3.84
	c0,0.26,0.08,0.43,0.28,0.6c2.18,1.88,4.36,3.76,6.53,5.64c0.17,0.15,0.27,0.13,0.43-0.01c0.61-0.54,1.24-1.06,1.84-1.61
	c0.17-0.16,0.28-0.16,0.45,0c0.58,0.52,1.19,0.99,1.75,1.53c0.28,0.27,0.44,0.2,0.68-0.02c0.92-0.82,1.86-1.62,2.8-2.43
	c1.18-1.03,2.37-2.06,3.56-3.08c0.21-0.18,0.3-0.37,0.3-0.66c-0.02-1.27-0.01-2.54-0.01-3.8c0-0.11-0.04-0.24,0.05-0.34
	c1.06,0.91,2.11,1.82,3.17,2.74C28.59,12.36,28.66,12.42,28.65,12.52z M18.84,3.9c-0.08,0.1-0.2,0.06-0.3,0.06h-5.07
	c-0.1,0-0.22,0.04-0.3-0.06c0.89-0.76,1.77-1.53,2.65-2.3c0.14-0.13,0.22-0.13,0.37,0C17.06,2.38,17.95,3.14,18.84,3.9z"/>
<path fill="#DCDBDB" d="M16.47,6.66c1.31,0.02,2.45,0.42,3.25,1.53c1.17,1.62,0.34,4.11-1.53,4.63c-0.32,0.09-0.65,0.13-0.99,0.03
	c-0.21-0.06-0.41-0.14-0.51-0.36c-0.09-0.22-0.18-0.17-0.32-0.03c-0.48,0.51-1.09,0.52-1.7,0.34c-0.39-0.11-0.65-0.39-0.78-0.8
	c-0.38-1.17,0.26-2.65,1.37-3.07c0.57-0.21,1.16-0.26,1.64,0.25c0.12,0.13,0.17,0.05,0.24-0.05c0.12-0.17,0.8-0.3,0.97-0.19
	c0.12,0.08,0.03,0.18,0.01,0.26c-0.19,0.8-0.39,1.61-0.59,2.41c-0.09,0.35,0.01,0.47,0.36,0.44c0.36-0.03,0.63-0.22,0.84-0.49
	c0.58-0.74,0.75-1.58,0.42-2.45c-0.37-0.98-1.18-1.42-2.17-1.55c-0.87-0.11-1.71-0.01-2.5,0.41c-1.47,0.78-2.2,2.67-1.56,4.21
	c0.44,1.07,1.33,1.59,2.46,1.73c1.13,0.14,2.21-0.03,3.17-0.68c0.14-0.1,0.21-0.07,0.31,0.06c0.34,0.46,0.35,0.46-0.14,0.74
	c-1.68,0.97-3.41,1.04-5.14,0.15c-1.29-0.67-1.94-2.1-1.81-3.55C11.98,8.28,14.05,6.6,16.47,6.66z M14.91,11.27v0.23
	c0.04,0.53,0.38,0.77,0.89,0.6c0.32-0.11,0.52-0.34,0.65-0.63c0.13-0.3,0.19-0.62,0.26-0.93c0.1-0.43-0.01-0.75-0.32-0.92
	c-0.33-0.17-0.73-0.06-1,0.29C15.08,10.3,14.91,10.75,14.91,11.27z"/>
<path fill="#F0EEEE" d="M14.91,11.27c0-0.51,0.17-0.97,0.48-1.37c0.27-0.34,0.67-0.45,1-0.29c0.31,0.16,0.43,0.48,0.32,0.92
	c-0.08,0.31-0.13,0.63-0.26,0.93c-0.13,0.3-0.33,0.52-0.65,0.63c-0.51,0.17-0.85-0.06-0.89-0.6C14.91,11.49,14.91,11.27,14.91,11.27
	z"/>
</svg>
