<svg version="1.1" id="Layer_1" xmlns="http://www.w3.org/2000/svg" xmlns:xlink="http://www.w3.org/1999/xlink" x="0" y="0" viewBox="0 0 78.5 78" style="enable-background:new 0 0 78.5 78" xml:space="preserve"><style>.st1{fill:#fbac33}</style><circle cx="39.49" cy="39.11" r="35.5" style="fill:#aeb5bc"/><defs><circle id="SVGID_1_" cx="39.22" cy="39" r="35.71"/></defs><clipPath id="SVGID_00000111149228552813494340000013696071001565236880_"><use xlink:href="#SVGID_1_" style="overflow:visible"/></clipPath><use xlink:href="#SVGID_1_" style="overflow:visible;fill:none;stroke:#e6e6e5;stroke-width:5;stroke-miterlimit:10"/><g><path class="st1" d="M17.21 39.08c0-12.3 9.96-22.26 22.26-22.25 12.66.01 22.55 10.38 22.29 22.77-.25 11.94-9.98 21.79-22.27 21.8-12.34 0-22.28-9.96-22.28-22.32zm42.25.04c.03-10.76-8.58-19.8-19.62-19.98-11.32-.19-20.31 8.92-20.33 19.94-.01 10.96 8.79 19.86 19.69 20 11.39.15 20.29-9.07 20.26-19.96z"/><path class="st1" d="M35.67 39.76c1.49 0 2.98-.04 4.46.01 4.54.16 8.09 3.74 8.58 7.84.32 2.69-.33 5.09-2.08 7.15-1.56 1.84-3.57 2.83-5.97 3.13-4.59.58-8.57-2.68-9.62-6.24-.27-.9-.43-1.81-.44-2.74-.01-2.92 0-5.84-.01-8.76 0-.33.09-.41.41-.41 1.56.02 3.11.01 4.67.01v.01zM42.82 38.54c-1.5 0-3 .04-4.5-.01-4.25-.14-7.94-3.53-8.49-7.76-.63-4.89 2.35-9.16 7.13-10.22 5.25-1.16 10.52 2.72 10.92 8.07.14 1.93.04 3.87.06 5.81.01 1.23-.01 2.46.01 3.69.01.38-.11.45-.46.44-1.56-.02-3.11-.01-4.67-.01v-.01z"/></g></svg>