<?xml version="1.0" encoding="utf-8"?>
<!-- Generator: Adobe Illustrator 24.1.3, SVG Export Plug-In . SVG Version: 6.00 Build 0)  -->
<svg version="1.1" id="Layer_1" xmlns="http://www.w3.org/2000/svg" xmlns:xlink="http://www.w3.org/1999/xlink" x="0px" y="0px"
	 viewBox="0 0 128 128" style="enable-background:new 0 0 128 128;" xml:space="preserve">
<style type="text/css">
	.st0{fill:#F6C253;}
	.st1{fill:#615CA9;}
	.st2{fill:#FFFFFF;}
</style>
<path class="st0" d="M64,40.8c7.5-6.1,16.1-10,25.3-12.9c4.5-1.4,9.1-2.5,13.8-3.2c3.5-0.6,7-1,10.5-1.2c3.1-0.2,6.2-0.3,9.3-0.4
	c0.6,0,0.7,0.2,0.7,0.7v74.9c0,0.6-0.2,0.8-0.8,0.8c-5.8,0-11.6,0.4-17.3,1.2c-10.1,1.5-19.9,4.2-29.2,8.7c-4.3,2.1-8.4,4.5-12,7.6
	c-0.1,0.1-0.1,0.1-0.2,0.1v-0.6V91.9C64,74.8,64,57.8,64,40.8z M71.9,97.3v4.3c0,0.4,0.1,0.5,0.5,0.3c2.7-1.6,5.5-2.9,8.4-4.1
	c0.4-0.2,0.5-0.4,0.5-0.7v-8.4c0-0.6-0.2-0.6-0.6-0.4c-2.8,1.2-5.6,2.5-8.2,4c-0.3,0.2-0.4,0.4-0.4,0.7
	C71.9,94.4,71.9,95.8,71.9,97.3z M71.9,49.5v4.2c0,0.5,0.1,0.6,0.6,0.3c2.7-1.5,5.4-2.9,8.3-4c0.4-0.2,0.5-0.4,0.5-0.7v-8.4
	c0-0.6-0.1-0.6-0.6-0.4c-2.8,1.2-5.5,2.5-8.2,4c-0.4,0.2-0.5,0.4-0.5,0.8C71.9,46.8,71.9,48.2,71.9,49.5z M90.3,89.5v4.3
	c0,0.4,0.1,0.5,0.5,0.4c2.7-0.8,5.5-1.5,8.3-2c0.3-0.1,0.5-0.2,0.5-0.6V83c0-0.4-0.1-0.5-0.5-0.4c-2.8,0.6-5.5,1.3-8.3,2
	c-0.4,0.1-0.5,0.3-0.5,0.7C90.3,85.3,90.3,89.5,90.3,89.5z M118,37.5v-4.2c0-0.5-0.1-0.6-0.6-0.6c-2.6,0.2-5.2,0.3-7.8,0.6
	c-0.6,0.1-0.8,0.2-0.8,0.8v7.4c0,1.4,0,1.4,1.4,1.3c2.4-0.3,4.8-0.4,7.2-0.5c0.5,0,0.6-0.2,0.6-0.7C118,41.6,118,37.5,118,37.5z
	 M118,85.2V81c0-0.3,0-0.6-0.4-0.5c-2.8,0.1-5.6,0.3-8.3,0.6c-0.4,0-0.5,0.2-0.5,0.5v8.5c0,0.4,0.1,0.6,0.6,0.5
	c2.7-0.3,5.4-0.5,8.1-0.6c0.5,0,0.6-0.2,0.6-0.7C118,87.9,118,86.5,118,85.2z"/>
<path class="st1" d="M64,40.8V117c-0.9-0.7-1.7-1.3-2.6-2c-6.2-4.5-13-7.6-20.1-10c-6.5-2.2-13.3-3.7-20.1-4.6
	c-5.2-0.7-10.5-1-15.8-1.1c-0.9,0-0.9,0-0.9-0.8V24.9v-1.3C4.5,23.2,4.6,23,5,23c3.5,0,6.9,0.2,10.4,0.4c4.1,0.3,8.2,0.9,12.2,1.7
	c10.9,2.1,21.3,5.7,30.8,11.6C60.3,37.9,62.2,39.3,64,40.8z M56.1,49.6v-4.2c0-0.3-0.1-0.6-0.4-0.7c-2.7-1.5-5.5-2.9-8.4-4.1
	c-0.4-0.2-0.5-0.1-0.5,0.3v8.5c0,0.4,0.2,0.6,0.5,0.8c2.8,1.2,5.5,2.5,8.2,4c0.5,0.3,0.6,0.1,0.6-0.4C56.1,53.8,56.1,49.6,56.1,49.6
	z M9.9,85.1v4.2c0,0.5,0.1,0.7,0.7,0.7c2.7,0.1,5.4,0.3,8.1,0.6c0.4,0.1,0.6-0.1,0.6-0.5V82c0-1,0-0.9-0.9-1
	c-2.6-0.2-5.2-0.5-7.8-0.6c-0.5,0-0.6,0.1-0.6,0.5C9.9,82.3,9.9,83.7,9.9,85.1z M19.2,38.1V34c0-0.5-0.2-0.7-0.6-0.7
	c-2.7-0.3-5.4-0.5-8.1-0.6c-0.4,0-0.5,0-0.5,0.5v8.5c0,0.4,0.1,0.5,0.5,0.5c2.8,0.1,5.5,0.3,8.2,0.6c0.4,0,0.5,0,0.5-0.5V38.1z
	 M56,102c0-0.1,0.1-0.2,0.1-0.3v-8.9c0-0.4-0.2-0.5-0.5-0.6c-2.7-1.5-5.4-2.8-8.2-4c-0.5-0.2-0.6-0.1-0.6,0.4V97
	c0,0.5,0.2,0.7,0.6,0.9c2.1,0.9,4.2,1.8,6.2,2.9L56,102z M37.6,94.3C37.6,94.2,37.7,94.2,37.6,94.3l0.1-9.1c0-0.4-0.2-0.4-0.5-0.5
	c-2.7-0.8-5.5-1.4-8.2-2c-0.5-0.1-0.6,0-0.6,0.5v8.4c0,0.5,0.1,0.6,0.6,0.7c1.3,0.3,2.7,0.6,4,0.9C34.5,93.5,36,93.9,37.6,94.3z
	 M28.4,39.6v4.2c0,0.4,0.1,0.6,0.6,0.7c2.8,0.5,5.5,1.2,8.2,2c0.5,0.1,0.6,0.1,0.6-0.4v-8.5c0-0.4-0.1-0.5-0.5-0.6
	c-2.8-0.8-5.5-1.5-8.3-2c-0.5-0.1-0.5,0-0.5,0.4C28.4,36.8,28.4,38.2,28.4,39.6z M65.1,36.8c0.6-1.1,1.5-2.1,2.3-3.1
	c7.3-8.6,15.8-15.5,26.2-20.2c2-0.9,4.1-1.7,6.2-2.4c0.2-0.1,0.4-0.2,0.7-0.1v9.9c0,0.4-0.1,0.6-0.5,0.6c-8.2,1.7-16,4.6-23.4,8.4
	c-3.8,1.9-7.4,4.1-10.9,6.7C65.5,36.6,65.3,36.9,65.1,36.8z M62.7,36.7c-3.4-2.5-7-4.7-10.8-6.6c-7.6-3.9-15.5-6.8-23.8-8.6
	c-0.5-0.1-0.7-0.3-0.7-0.8v-9.1c0-0.8,0-0.8,0.7-0.5c7.5,2.4,14.3,6.2,20.5,11.1c5.2,4.1,9.8,8.7,13.7,13.9
	C62.6,36.3,62.7,36.5,62.7,36.7z M62.9,36.8C62.9,36.9,62.8,36.9,62.9,36.8z M65.1,36.8L65.1,36.8C64.9,36.8,65.1,36.8,65.1,36.8z"
	/>
<path class="st1" d="M62.9,36.8c-0.1,0.1-0.1,0-0.2,0l0.1-0.1C62.8,36.7,62.9,36.8,62.9,36.8z M71.9,97.3v-4.2
	c0-0.4,0.1-0.5,0.4-0.7c2.7-1.5,5.4-2.8,8.2-4c0.5-0.2,0.6-0.2,0.6,0.4v8.4c0,0.4-0.1,0.6-0.5,0.7c-2.9,1.2-5.7,2.5-8.4,4.1
	c-0.4,0.2-0.5,0.1-0.5-0.3C71.9,100.1,71.9,98.7,71.9,97.3z M71.9,49.5v-4.1c0-0.4,0.1-0.6,0.5-0.8c2.7-1.5,5.4-2.8,8.2-4
	c0.5-0.2,0.6-0.1,0.6,0.4v8.4c0,0.4-0.1,0.6-0.5,0.7c-2.8,1.2-5.6,2.5-8.3,4c-0.5,0.3-0.6,0.2-0.6-0.3C71.9,52.4,71.9,51,71.9,49.5z
	 M90.3,89.5v-4.2c0-0.4,0.1-0.6,0.5-0.7c2.7-0.7,5.5-1.5,8.3-2c0.4-0.1,0.5,0,0.5,0.4v8.6c0,0.4-0.1,0.5-0.5,0.6
	c-2.8,0.5-5.6,1.2-8.3,2c-0.4,0.1-0.5,0-0.5-0.4V89.5z M90.3,41.8v-4.2c0-0.4,0.1-0.6,0.5-0.7c2.7-0.7,5.5-1.5,8.3-2
	c0.4-0.1,0.5,0,0.5,0.4v8.6c0,0.4-0.1,0.5-0.5,0.6c-2.8,0.5-5.6,1.2-8.3,2c-0.4,0.1-0.5,0-0.5-0.4V41.8z M118,37.5v4.1
	c0,0.5-0.2,0.6-0.6,0.7c-2.4,0.1-4.8,0.3-7.2,0.5c-1.4,0.1-1.4,0.1-1.4-1.3v-7.4c0-0.6,0.2-0.8,0.8-0.8l7.8-0.6
	c0.5,0,0.6,0.1,0.6,0.6C118,33.3,118,37.5,118,37.5z M118,85.2v4.1c0,0.5-0.1,0.6-0.6,0.7c-2.7,0.1-5.4,0.3-8.1,0.6
	c-0.5,0.1-0.6-0.1-0.6-0.5v-8.5c0-0.4,0.1-0.5,0.5-0.5c2.8-0.3,5.5-0.5,8.3-0.6c0.5,0,0.4,0.2,0.4,0.5C118,82.3,118,83.8,118,85.2z"
	/>
<path class="st2" d="M56.1,49.6v4.2c0,0.5,0,0.7-0.6,0.4c-2.6-1.5-5.4-2.8-8.2-4c-0.4-0.2-0.5-0.3-0.5-0.8v-8.5
	c0-0.4,0.1-0.5,0.5-0.3c2.9,1.2,5.6,2.6,8.4,4.1c0.3,0.2,0.4,0.4,0.4,0.7C56.1,45.4,56.1,49.6,56.1,49.6z M9.9,85.1v-4.2
	c0-0.4,0.1-0.5,0.6-0.5c2.6,0.1,5.2,0.3,7.8,0.6c0.9,0.1,0.9,0.1,0.9,1v8.1c0,0.4-0.1,0.6-0.6,0.5c-2.7-0.3-5.4-0.5-8.1-0.6
	c-0.6,0-0.7-0.2-0.7-0.7C9.9,87.9,9.9,86.5,9.9,85.1z M19.2,38.1v4.3c0,0.4-0.1,0.5-0.5,0.5c-2.7-0.3-5.5-0.5-8.2-0.6
	c-0.4,0-0.5-0.1-0.5-0.5v-8.5c0-0.4,0.2-0.5,0.5-0.5c2.7,0.1,5.4,0.3,8.1,0.6c0.5,0,0.7,0.2,0.6,0.7C19.2,34.1,19.2,38.1,19.2,38.1z
	 M56,102c-0.8-0.4-1.6-0.9-2.4-1.3c-2-1.1-4.1-2-6.2-2.9c-0.4-0.2-0.6-0.4-0.6-0.9v-8.4c0-0.5,0.1-0.6,0.6-0.4
	c2.8,1.2,5.6,2.5,8.2,4c0.3,0.1,0.5,0.3,0.5,0.6v8.9C56.1,101.8,56.1,101.9,56,102z M37.6,94.3c-1.5-0.4-3.1-0.8-4.6-1.2
	c-1.3-0.3-2.7-0.6-4-0.9c-0.4-0.1-0.6-0.3-0.6-0.7v-8.4c0-0.5,0.1-0.6,0.6-0.5c2.8,0.6,5.5,1.3,8.2,2c0.3,0.1,0.5,0.1,0.5,0.5v9
	C37.6,94.2,37.6,94.2,37.6,94.3z M28.4,39.6v-4.2c0-0.4,0-0.5,0.5-0.4c2.8,0.6,5.6,1.3,8.3,2c0.4,0.1,0.5,0.3,0.5,0.6v8.5
	c0,0.5-0.1,0.6-0.6,0.4c-2.7-0.8-5.4-1.5-8.2-2c-0.4-0.1-0.6-0.3-0.6-0.7C28.4,42.4,28.4,41,28.4,39.6z"/>
</svg>
