<?xml version="1.0" encoding="utf-8"?>
<!-- Generator: Adobe Illustrator 27.5.0, SVG Export Plug-In . SVG Version: 6.00 Build 0)  -->
<svg version="1.1" id="Layer_1" xmlns="http://www.w3.org/2000/svg" xmlns:xlink="http://www.w3.org/1999/xlink" x="0px"
	y="0px" viewBox="0 0 41.5 41.7" style="enable-background:new 0 0 41.5 41.7;" xml:space="preserve">
	<style type="text/css">
		.st0 {
			fill: none;
		}

		.st1 {
			fill: #180D57;
		}

		.st2 {
			fill: url(#SVGID_1_);
		}

		.st3 {
			fill: #121212;
		}

		.st4 {
			fill: #81cc71;
		}

		.st5 {
			fill: none;
			stroke: #81cc71;
			stroke-width: 2;
			stroke-miterlimit: 10;
		}

		.st6 {
			clip-path: url(#SVGID_00000178909970523201059660000015946235151390405817_);
		}

		.st7 {
			clip-path: url(#SVGID_00000092442398780692326290000016726791483233988778_);
		}

		.st8 {
			fill: #181818;
		}

		.st9 {
			fill: #FFFFFF;
		}

		.st10 {
			fill: #4D4D4D;
		}

		.st11 {
			fill: #E5E5E5;
		}

		.st12 {
			opacity: 0.25;
			fill: #AEB5BC;
		}

		.st13 {
			fill: #FF0000;
		}

		.st14 {
			fill: none;
			stroke: #81cc71;
			stroke-miterlimit: 10;
		}

		.st15 {
			fill: url(#SVGID_00000103263276889402155640000005925430870898791296_);
		}

		.st16 {
			fill: url(#SVGID_00000025437488202487077220000004681423740841488571_);
		}

		.st17 {
			fill: url(#SVGID_00000007422450878796736960000014086220155998987178_);
		}

		.st18 {
			fill: none;
			stroke: #4D4D4D;
			stroke-miterlimit: 10;
		}

		.st19 {
			fill: #F4F4F4;
		}

		.st20 {
			clip-path: url(#SVGID_00000152250738896304617400000002278857116732937611_);
		}

		.st21 {
			opacity: 0.59;
			fill: url(#SVGID_00000178898027299941856460000013128394380067004079_);
		}

		.st22 {
			clip-path: url(#SVGID_00000153680817083807284920000014836048791476089242_);
		}

		.st23 {
			fill: url(#SVGID_00000009564437277359948170000017355166049725863061_);
		}

		.st24 {
			fill: url(#SVGID_00000183210130053878171360000000671915885235926452_);
		}
	</style>
	<pattern x="-1798.4" y="-239.2" width="35.3" height="35.3" patternUnits="userSpaceOnUse"
		id="Nueva_muestra_de_motivo_11" viewBox="0 -35.3 35.3 35.3" style="overflow:visible;">
		<g>
			<rect y="-35.3" class="st0" width="35.3" height="35.3" />
			<rect x="0" y="-35.3" class="st1" width="35.3" height="35.3" />
		</g>
	</pattern>
	<linearGradient id="SVGID_1_" gradientUnits="userSpaceOnUse" x1="34.3745" y1="34.2252" x2="7.9665" y2="7.8172">
		<stop offset="0" style="stop-color:#81cc71" />
		<stop offset="1.529294e-02" style="stop-color:#D2F27A" />
		<stop offset="0.2846" style="stop-color:#8CDC83" />
		<stop offset="0.5273" style="stop-color:#55CA8B" />
		<stop offset="0.7349" style="stop-color:#2DBE90" />
		<stop offset="0.8993" style="stop-color:#15B694" />
		<stop offset="1" style="stop-color:#0CB395" />
	</linearGradient>
	<polygon class="st2" points="5.2,16 8.4,7.4 20.7,3.1 32.9,7.8 38.2,20.1 34.3,34.3 21.7,38.2 8.6,33.4 3.4,22.2 " />
	<g>
		<g>
			<path class="st10" d="M39,17.7c-0.7-0.9-1.2-1.8-1.5-2.6c-0.3-0.8-0.6-1.6-1-2.3c-0.4-0.8-0.6-1.7-0.8-2.9c-0.1-1.1-0.6-2-1.4-2.8
			c-0.8-0.8-1.7-1.2-2.8-1.4c-1.2-0.1-2.1-0.4-2.9-0.8c-0.8-0.4-1.5-0.7-2.3-1c-0.8-0.3-1.7-0.7-2.6-1.5c-1.7-1.3-4.2-1.3-5.9,0
			c-0.9,0.7-1.8,1.2-2.6,1.5c-0.8,0.3-1.6,0.6-2.3,1c-0.8,0.4-1.7,0.6-2.9,0.8C9,5.9,8,6.3,7.3,7.1C6.5,7.9,6,8.8,5.9,9.9
			c-0.1,1.2-0.4,2.1-0.8,2.9c-0.4,0.8-0.7,1.5-1,2.3c-0.3,0.8-0.7,1.7-1.5,2.6c-0.7,0.9-1,1.9-1,3s0.4,2.1,1,3
			c0.7,0.9,1.2,1.8,1.5,2.6c0.3,0.8,0.6,1.6,1,2.3c0.4,0.8,0.6,1.7,0.8,2.9c0.1,1.1,0.6,2,1.4,2.8C8,35,9,35.5,10.1,35.6
			c1.2,0.1,2.1,0.4,2.9,0.8c0.8,0.4,1.5,0.7,2.3,1c0.8,0.3,1.7,0.7,2.6,1.5c0.9,0.7,1.9,1,3,1s2.1-0.4,3-1c0.9-0.7,1.8-1.2,2.6-1.5
			c0.8-0.3,1.6-0.6,2.3-1c0.8-0.4,1.7-0.6,2.9-0.8c1.1-0.1,2-0.6,2.8-1.4c0.8-0.8,1.2-1.7,1.4-2.8c0.1-1.2,0.4-2.1,0.8-2.9
			c0.4-0.8,0.7-1.5,1-2.3c0.3-0.8,0.7-1.7,1.5-2.6c0.7-0.9,1-1.9,1-3S39.7,18.6,39,17.7z M36.5,21.6c-1,1.2-1.6,2.4-2,3.6
			c-0.2,0.6-0.5,1.3-0.8,1.9c-0.6,1.1-0.9,2.4-1.1,3.9c0,0.2-0.1,0.6-0.5,0.9c-0.3,0.3-0.7,0.4-0.9,0.5c-1.5,0.2-2.8,0.5-3.9,1.1
			c-0.6,0.3-1.3,0.6-1.9,0.8c-1.2,0.4-2.4,1-3.6,2c-0.2,0.2-0.5,0.3-1,0.3s-0.8-0.2-1-0.3c-1.2-1-2.4-1.6-3.6-2
			c-0.7-0.2-1.3-0.5-1.9-0.8c-1.1-0.6-2.4-0.9-3.9-1.1c-0.2,0-0.6-0.1-0.9-0.5c-0.3-0.3-0.4-0.7-0.4-0.9c-0.2-1.5-0.5-2.8-1.1-3.9
			c-0.3-0.6-0.6-1.3-0.8-1.9c-0.4-1.2-1-2.3-2-3.6c-0.2-0.2-0.3-0.5-0.3-1c0-0.5,0.2-0.8,0.3-1c1-1.2,1.6-2.4,2-3.6
			c0.2-0.6,0.5-1.3,0.8-1.9c0.6-1.1,0.9-2.4,1.1-3.9c0-0.2,0.1-0.6,0.4-0.9c0.3-0.3,0.7-0.4,0.9-0.5c1.5-0.2,2.8-0.5,3.9-1.1
			C15,7.5,15.6,7.2,16.3,7c1.2-0.4,2.4-1,3.6-2c0.2-0.2,0.5-0.3,1-0.3s0.8,0.2,1,0.3c1.2,1,2.4,1.6,3.6,2c0.7,0.2,1.3,0.5,1.9,0.8
			c1.1,0.6,2.4,0.9,3.9,1.1c0.2,0,0.6,0.1,0.9,0.5c0.3,0.3,0.4,0.7,0.5,0.9c0.2,1.5,0.5,2.8,1.1,3.9c0.3,0.6,0.6,1.3,0.8,1.9
			c0.4,1.2,1,2.3,2,3.6c0.2,0.2,0.3,0.5,0.3,1C36.8,21.1,36.6,21.5,36.5,21.6z" />
			<path class="st10" d="M24.5,16.3l-4.1,4.1c-0.6,0.6-1.6,0.6-2.3,0l-0.9-0.9c-0.6-0.6-1.6-0.6-2.3,0s-0.6,1.6,0,2.3l0.9,0.9
			c0.9,0.9,2.2,1.4,3.4,1.4c1.2,0,2.5-0.5,3.4-1.4l4.1-4.1c0.6-0.6,0.6-1.6,0-2.3S25.1,15.7,24.5,16.3z" />
		</g>
	</g>
</svg>