<?xml version="1.0" encoding="UTF-8"?>
<svg id="Layer_2" data-name="Layer 2" xmlns="http://www.w3.org/2000/svg" viewBox="0 0 38.4 38.4">
  <defs>
    <style>
      .cls-1 {
        fill: #4e4e4e;
      }
    </style>
  </defs>
  <g id="Layer_1-2" data-name="Layer 1">
    <g>
      <path class="cls-1" d="m37.58,7.58c-.5-3.49-3.3-6.27-6.83-6.77-7.65-1.08-15.52-1.08-23.16,0C4.1,1.31,1.31,4.12.81,7.65c-.54,3.81-.81,7.7-.81,11.55s.28,7.78.82,11.61c.5,3.49,3.3,6.27,6.83,6.77,3.81.54,7.7.81,11.55.81s7.78-.28,11.61-.82c3.49-.5,6.27-3.3,6.77-6.83.54-3.81.81-7.7.81-11.55s-.28-7.78-.82-11.61Zm-3.16,22.72h0c-.3,2.12-1.97,3.81-4.05,4.11-7.35,1.05-14.91,1.05-22.26,0-2.12-.3-3.81-1.97-4.11-4.06-.52-3.68-.79-7.44-.79-11.16s.26-7.44.78-11.1c.3-2.12,1.97-3.81,4.05-4.11,3.69-.52,7.44-.79,11.16-.79s7.43.26,11.1.78c2.12.3,3.81,1.97,4.11,4.06.52,3.68.79,7.44.79,11.16s-.26,7.44-.78,11.1Z"/>
      <path class="cls-1" d="m24.25,21.88l-7.14-2.86c-1.23-.49-2.63-.34-3.73.4-1.1.74-1.76,1.98-1.76,3.31v5.71c0,1.33.66,2.57,1.76,3.31.67.46,1.45.69,2.24.69.5,0,1.01-.09,1.49-.29l7.14-2.86c1.53-.61,2.51-2.07,2.51-3.71s-.99-3.1-2.51-3.71Zm-1.19,4.46l-7.14,2.86c-.34.14-.61,0-.75-.08s-.35-.29-.35-.66v-5.71c0-.37.22-.57.35-.66.09-.06.25-.14.44-.14.09,0,.19.02.3.06l7.14,2.85c.45.18.5.58.5.74s-.05.56-.5.74Z"/>
      <path class="cls-1" d="m32,12.8H6.4c-.88,0-1.6.72-1.6,1.6s.72,1.6,1.6,1.6h25.6c.88,0,1.6-.72,1.6-1.6s-.72-1.6-1.6-1.6Z"/>
      <path class="cls-1" d="m9.6,11.2c.41,0,.82-.16,1.13-.47l3.2-3.2c.62-.62.62-1.64,0-2.26s-1.64-.62-2.26,0l-3.2,3.2c-.62.62-.62,1.64,0,2.26.31.31.72.47,1.13.47Z"/>
      <path class="cls-1" d="m17.6,11.2c.41,0,.82-.16,1.13-.47l3.2-3.2c.62-.62.62-1.64,0-2.26s-1.64-.62-2.26,0l-3.2,3.2c-.62.62-.62,1.64,0,2.26.31.31.72.47,1.13.47Z"/>
      <path class="cls-1" d="m25.6,11.2c.41,0,.82-.16,1.13-.47l3.2-3.2c.62-.62.62-1.64,0-2.26s-1.64-.62-2.26,0l-3.2,3.2c-.62.62-.62,1.64,0,2.26.31.31.72.47,1.13.47Z"/>
    </g>
  </g>
</svg>