<svg version="1.1" id="Layer_1" xmlns="http://www.w3.org/2000/svg" x="0" y="0" viewBox="0 0 283.46 283.46" xml:space="preserve"><style>.st0{fill:#e27526}.st1{fill:#20325e}</style><path class="st0" d="M184.64 169.85v4.8c-.02 8.15-2.22 15.68-6.67 22.5-5.91 9.05-14.11 15.04-24.55 17.9-2.5.69-5.04 1.07-7.63 1.28-2.96.24-5.91.14-8.84-.28-7.57-1.08-14.37-3.99-20.32-8.79-7.64-6.16-12.59-14.04-14.81-23.61-.67-2.88-1-5.82-1-8.78 0-3.23.05-6.46-.01-9.69-.14-7.37-2.24-14.17-6.19-20.39a40.55 40.55 0 00-3.72-4.93c-5.9-6.79-10.33-14.43-13.24-22.95-1.34-3.91-2.29-7.91-2.91-11.99-.7-4.61-.9-9.25-.66-13.89.48-9.01 2.64-17.61 6.52-25.76 7.92-16.66 22.1-29.38 39.53-35.48 4.19-1.47 8.49-2.5 12.88-3.12 3.88-.55 7.77-.79 11.68-.67 9.88.31 19.28 2.58 28.18 6.92 6.83 3.34 12.96 7.68 18.33 13.05 8.96 8.97 15.05 19.6 18.18 31.91.95 3.73 1.56 7.52 1.86 11.36.25 3.2.29 6.4.1 9.59-.55 9.17-2.83 17.89-6.88 26.14a68.886 68.886 0 01-10 15.01c-4.18 4.79-7.07 10.25-8.64 16.42-.8 3.15-1.17 6.35-1.19 9.59-.01 1.27 0 2.57 0 3.86zm-72.22-.42h-.04v5.35c0 2.13.24 4.24.71 6.31 1.31 5.76 4.08 10.71 8.25 14.88 7.25 7.25 17.47 10.36 27.64 8.25 10.59-2.2 19.44-10.26 22.7-20.6.93-2.96 1.39-5.98 1.4-9.08 0-3.32.01-6.64.04-9.97.03-3.37.47-6.69 1.23-9.96 1.94-8.37 5.77-15.79 11.4-22.27.73-.84 1.44-1.68 2.12-2.56 7.23-9.38 11.22-19.97 11.93-31.8.25-4.2.03-8.36-.64-12.51-1.03-6.37-3.08-12.41-6.19-18.06-5.94-10.78-14.45-18.89-25.53-24.27-6.75-3.28-13.9-5.09-21.38-5.52-2.64-.15-5.29-.12-7.93.09-3.01.24-5.99.7-8.92 1.41A57.336 57.336 0 0090.9 70.5c-2.94 6.28-4.66 12.88-5.2 19.78-.26 3.29-.22 6.57.1 9.86.28 2.85.74 5.67 1.44 8.45 2.25 8.93 6.42 16.86 12.48 23.79 1.6 1.83 3.07 3.76 4.39 5.81 4.98 7.72 7.76 16.14 8.17 25.33.11 1.98.1 3.95.14 5.91z"/><path class="st1" d="M150.88 252.41c-.43 5.89-4.67 8.21-8.03 8.3-1.12.03-2.2-.17-3.25-.59a8.275 8.275 0 01-2.69-1.75c-.8-.78-1.4-1.7-1.84-2.74-.43-1-.51-2.07-.67-3.12-.36-.16-.7-.1-1.04-.1-4.65-.01-9.29 0-13.94-.01-.61 0-1.24-.05-1.83-.2-2.68-.7-4.39-3.19-4.27-5.85.12-2.61 2.04-4.87 4.65-5.36.54-.1 1.1-.13 1.65-.14 6.89-.01 13.78-.01 20.67-.01 8.49 0 16.98 0 25.47.01.58 0 1.17.04 1.74.14 2.42.42 4.66 2.7 4.6 5.77-.06 2.86-2.23 5.16-4.77 5.54-.45.07-.92.1-1.38.1-4.65.01-9.29 0-13.94 0-.33.01-.7.01-1.13.01zM142.74 236.39c-7.72 0-15.44 0-23.15-.01-.58 0-1.17-.04-1.74-.15-2.53-.49-4.66-2.91-4.51-5.93.13-2.68 2.16-4.97 4.85-5.37.39-.06.79-.09 1.19-.09 15.56 0 31.12 0 46.68-.01 1.82 0 3.38.57 4.61 1.94 2.85 3.19 1.38 8.45-3.03 9.45-.56.13-1.16.16-1.74.16-7.72.01-15.44.01-23.16.01z"/><path class="st0" d="M144.75 42.2c4.69.28 9.29 1.06 13.78 2.4 6.19 1.84 11.89 4.67 16.94 8.73 3.65 2.93 6.75 6.36 9.32 10.27.36.54.66 1.1.8 1.75.43 1.93-.49 3.9-2.26 4.8-1.79.91-4 .46-5.27-1.08-.16-.19-.3-.39-.43-.6-3.94-6.04-9.27-10.44-15.81-13.42-3.66-1.67-7.47-2.8-11.43-3.47a47.42 47.42 0 00-7.8-.7c-2.29-.01-4.13-1.74-4.28-4-.16-2.46 1.66-4.32 3.59-4.54.95-.11 1.9-.1 2.85-.14zM186.54 71.35c2.31-.01 4.19 1.85 4.15 4.15-.04 2.12-1.62 4.09-4.12 4.09-2.75 0-4.18-2.25-4.14-4.16.03-2.56 2.2-4.17 4.11-4.08z"/></svg>