<svg version="1.1" id="Layer_1" xmlns="http://www.w3.org/2000/svg" x="0" y="0" viewBox="0 0 32 32" style="enable-background:new 0 0 32 32" xml:space="preserve"><style>.st0{fill: #81cc71}.st1{fill:#dcdbdb}</style><path class="st0" d="M18.84 3.9c.17.06.35.07.54.07 1.85 0 3.69 0 5.54-.01.29 0 .39.06.38.37-.02 1.58-.01 3.16-.01 4.73 0 .17.01.34.07.51-.09.1-.05.23-.05.34 0 1.27-.01 2.54.01 3.8 0 .29-.09.47-.3.66-1.19 1.02-2.37 2.05-3.56 3.08-.93.81-1.87 1.61-2.8 2.43-.24.22-.4.28-.68.02-.56-.54-1.17-1.01-1.75-1.53-.18-.16-.28-.15-.45 0-.61.55-1.24 1.07-1.84 1.61-.16.14-.25.16-.43.01-2.17-1.89-4.35-3.77-6.53-5.64a.707.707 0 0 1-.28-.6c.01-1.28.01-2.56 0-3.84 0-.11.04-.24-.05-.34.05-.16.06-.33.06-.5 0-1.58.01-3.16-.01-4.73 0-.31.09-.37.38-.37 1.85.01 3.69.01 5.54.01.18 0 .36-.01.54-.07.08.1.2.06.3.06h5.07c.11 0 .23.03.31-.07zm-2.37 2.76c-2.42-.06-4.49 1.61-4.7 3.98-.13 1.45.53 2.88 1.81 3.55 1.72.89 3.45.82 5.14-.15.49-.28.48-.28.14-.74-.1-.13-.16-.16-.31-.06-.97.65-2.04.82-3.17.68-1.12-.14-2.01-.66-2.46-1.73-.64-1.54.09-3.42 1.56-4.21.79-.42 1.63-.53 2.5-.41.99.13 1.8.57 2.17 1.55.33.88.17 1.71-.42 2.45-.21.27-.48.46-.84.49-.35.03-.45-.09-.36-.44.2-.8.4-1.61.59-2.41.02-.08.11-.18-.01-.26-.17-.11-.85.03-.97.19-.07.1-.12.18-.24.05-.48-.52-1.07-.47-1.64-.25-1.11.42-1.75 1.9-1.37 3.07.13.4.39.68.78.8.61.18 1.22.17 1.7-.34.13-.14.22-.19.32.03.09.22.3.3.51.36.33.1.66.06.99-.03 1.88-.52 2.7-3.01 1.53-4.63-.8-1.12-1.94-1.51-3.25-1.54z"/><path class="st1" d="M28.33 30.23c-.2.22-.46.26-.73.26H4.54c-.31 0-.63 0-.86-.26.11-.18.27-.31.42-.44.71-.61 1.42-1.21 2.12-1.81.73-.63 1.44-1.27 2.17-1.9.93-.81 1.86-1.61 2.79-2.41.57-.49 1.17-.97 1.72-1.49.25-.24.62-.37.72-.74.14.04.21-.07.3-.14.64-.55 1.28-1.11 1.92-1.67.12-.11.2-.11.32 0 .52.46 1.04.93 1.58 1.37.2.16.34.42.64.44.02.18.16.27.28.37.74.64 1.48 1.27 2.21 1.9l2.1 1.83c.76.66 1.52 1.31 2.28 1.97.56.48 1.14.94 1.67 1.44.47.44 1.01.78 1.41 1.28z"/><path class="st0" d="M13.62 21.43c-.11.38-.48.51-.72.74-.55.52-1.15.99-1.72 1.49-.93.8-1.86 1.6-2.79 2.41-.73.63-1.44 1.27-2.17 1.9-.7.61-1.41 1.21-2.12 1.81-.15.13-.31.26-.42.44-.3-.21-.36-.52-.36-.85V12.92c0-.14-.03-.28.04-.41l3.44 2.96c1.54 1.33 3.08 2.67 4.62 4 .73.65 1.46 1.31 2.2 1.96zM28.33 30.23c-.39-.5-.93-.84-1.39-1.27-.54-.5-1.12-.96-1.67-1.44-.76-.66-1.52-1.31-2.28-1.97-.7-.61-1.4-1.23-2.1-1.83-.74-.64-1.48-1.27-2.21-1.9-.12-.1-.27-.19-.28-.37.89-.78 1.77-1.56 2.66-2.33 1.55-1.35 3.11-2.7 4.67-4.04.98-.85 1.97-1.69 2.95-2.54.06.11.04.23.04.35v16.42c-.03.34-.06.69-.39.92z"/><path class="st1" d="M28.65 12.52c-.98.85-1.97 1.69-2.95 2.54l-4.67 4.04c-.89.77-1.77 1.55-2.66 2.33-.3-.01-.44-.28-.64-.44-.54-.44-1.06-.91-1.58-1.37-.12-.11-.2-.11-.32 0-.63.56-1.28 1.11-1.92 1.67-.09.08-.16.19-.3.14-.74-.65-1.48-1.31-2.22-1.95-1.54-1.34-3.08-2.67-4.62-4-1.14-.99-2.29-1.97-3.44-2.96-.01-.1.06-.15.13-.21 1.06-.91 2.11-1.82 3.17-2.74.1.1.07.23.07.34 0 1.28.01 2.56 0 3.84 0 .26.08.43.28.6 2.18 1.88 4.36 3.76 6.53 5.64.17.15.27.13.43-.01.61-.54 1.24-1.06 1.84-1.61.17-.16.28-.16.45 0 .58.52 1.19.99 1.75 1.53.28.27.44.2.68-.02.92-.82 1.86-1.62 2.8-2.43 1.18-1.03 2.37-2.06 3.56-3.08.21-.18.3-.37.3-.66-.02-1.27-.01-2.54-.01-3.8 0-.11-.04-.24.05-.34 1.06.91 2.11 1.82 3.17 2.74.06.05.13.11.12.21zM18.84 3.9c-.08.1-.2.06-.3.06h-5.07c-.1 0-.22.04-.3-.06.89-.76 1.77-1.53 2.65-2.3.14-.13.22-.13.37 0 .87.78 1.76 1.54 2.65 2.3z"/><path class="st1" d="M16.47 6.66c1.31.02 2.45.42 3.25 1.53 1.17 1.62.34 4.11-1.53 4.63-.32.09-.65.13-.99.03-.21-.06-.41-.14-.51-.36-.09-.22-.18-.17-.32-.03-.48.51-1.09.52-1.7.34-.39-.11-.65-.39-.78-.8-.38-1.17.26-2.65 1.37-3.07.57-.21 1.16-.26 1.64.25.12.13.17.05.24-.05.12-.17.8-.3.97-.19.12.08.03.18.01.26-.19.8-.39 1.61-.59 2.41-.09.35.01.47.36.44.36-.03.63-.22.84-.49.58-.74.75-1.58.42-2.45-.37-.98-1.18-1.42-2.17-1.55-.87-.11-1.71-.01-2.5.41-1.47.78-2.2 2.67-1.56 4.21.44 1.07 1.33 1.59 2.46 1.73 1.13.14 2.21-.03 3.17-.68.14-.1.21-.07.31.06.34.46.35.46-.14.74-1.68.97-3.41 1.04-5.14.15-1.29-.67-1.94-2.1-1.81-3.55.21-2.35 2.28-4.03 4.7-3.97zm-1.56 4.61v.23c.04.53.38.77.89.6.32-.11.52-.34.65-.63.13-.3.19-.62.26-.93.1-.43-.01-.75-.32-.92-.33-.17-.73-.06-1 .29-.31.39-.48.84-.48 1.36z"/><path d="M14.91 11.27c0-.51.17-.97.48-1.37.27-.34.67-.45 1-.29.31.16.43.48.32.92-.08.31-.13.63-.26.93-.13.3-.33.52-.65.63-.51.17-.85-.06-.89-.6v-.22z" style="fill:#f0eeee"/></svg>