<svg version="1.1" id="Layer_1" xmlns="http://www.w3.org/2000/svg" x="0" y="0" viewBox="0 0 32 32" xml:space="preserve"><style>.st0{fill:none;stroke:red;stroke-miterlimit:10}</style><path class="st0" d="M22.3 7.2c0-.3-.1-.7-.4-.9-.2-.2-.6-.3-.9-.3H8.2c-.4 0-.8.3-.8.8v18.7c0 .5.4.9.9.9h12.8c.3 0 .7-.1.9-.4.2-.2.4-.6.4-.9-.1-3.7-.1-14.2-.1-17.9zM9.7 6v17.8"/><path class="st0" d="M22.3 24.5H25l-.8-1.5.8-1.5h-.8M19.5 10.1c0-.3-.1-.6-.3-.8-.2-.2-.5-.3-.8-.3h-4.7c-.3 0-.6.1-.8.3-.2.2-.3.5-.3.8v2c0 .3.1.6.3.8.2.2.5.3.8.3h4.7c.3 0 .6-.1.8-.3.2-.2.3-.5.3-.8v-2zM13.8 15.8h4.4M13.8 17.9h4.4"/></svg>