<?xml version="1.0" encoding="UTF-8"?>
<svg id="Layer_2" data-name="Layer 2" xmlns="http://www.w3.org/2000/svg" xmlns:xlink="http://www.w3.org/1999/xlink" viewBox="0 0 37.02 44.21">
  <defs>
    <style>
      .cls-1 {
        fill: #fff;
      }

      .cls-2 {
        fill: url(#linear-gradient);
      }
    </style>
    <linearGradient id="linear-gradient" x1="8.9" y1="18.93" x2="28.12" y2="38.15" gradientUnits="userSpaceOnUse">
      <stop offset="0" stop-color="#0eb495"/>
      <stop offset=".99" stop-color="#bbeb7d"/>
    </linearGradient>
  </defs>
  <g id="Layer_1-2" data-name="Layer 1">
    <g>
      <path class="cls-2" d="m33.42,28.62c0,5.78-4.85,10.46-10.84,10.46h-8.15c-5.99,0-10.84-4.68-10.84-10.46v-.15c0-5.78,4.85-10.46,10.84-10.46h8.15c5.99,0,10.84,4.68,10.84,10.46v.15Z"/>
      <g>
        <polygon class="cls-1" points="13.88 23.19 13.88 33.42 25.25 28.07 13.88 23.19"/>
        <path class="cls-1" d="m24.19,14.93c-.67-1.53-1.98-2.73-3.61-3.28l5.54-9.59s.02,0,.03,0c.57,0,1.03-.46,1.03-1.03s-.46-1.03-1.03-1.03-1.03.46-1.03,1.03c0,.17.05.33.12.48l-5.71,9.88c-.32-.05-.65-.08-.98-.08-.39,0-.77.04-1.14.11L11.7,1.51c.08-.14.12-.3.12-.48,0-.57-.46-1.03-1.03-1.03s-1.03.46-1.03,1.03.46,1.03,1.03,1.03c.01,0,.02,0,.03,0l5.57,9.64c-1.56.57-2.82,1.75-3.47,3.23-7.19.29-12.93,6.23-12.93,13.52v.19c0,5.55,3.33,10.32,8.1,12.4l-.32,1.83c-.11.62.3,1.21.92,1.32.62.11,1.21-.3,1.32-.92l.26-1.49c1.03.25,2.1.39,3.21.39h10.05c1.27,0,2.51-.18,3.68-.51l.28,1.62c.11.62.7,1.03,1.32.92.62-.11,1.03-.7.92-1.32l-.36-2.04c4.52-2.18,7.65-6.83,7.65-12.2v-.19c0-7.25-5.69-13.17-12.83-13.51Zm9.23,13.69c0,5.78-4.85,10.46-10.84,10.46h-8.15c-5.99,0-10.84-4.68-10.84-10.46v-.15c0-5.78,4.85-10.46,10.84-10.46h8.15c5.99,0,10.84,4.68,10.84,10.46v.15Z"/>
      </g>
    </g>
  </g>
</svg>