<svg xmlns="http://www.w3.org/2000/svg" viewBox="0 0 32 32" style="enable-background:new 0 0 32 32" xml:space="preserve"><path d="M26.57 7.03c.26-1.43.38-2.48.42-2.86.01-.03.01-.06.01-.09V4c0-.7-.79-3-11-3S5 3.3 5 4c0 .01 0 .03.01.07 0 .03 0 .06.01.09.03.38.15 1.44.41 2.87C2.18 7.28 1 9.71 1 12c0 3.06 1.43 5.42 3.93 6.45.8.33 1.64.49 2.44.49.85 0 1.65-.2 2.33-.54 1.36 1.84 3.09 3.2 5.3 3.52v3.1c-2.53.08-8 .54-8 2.98 0 2.86 7.5 3 9 3s9-.14 9-3c0-2.44-5.47-2.9-8-2.98v-3.1c2.2-.32 3.94-1.68 5.3-3.52.69.35 1.48.54 2.33.54.81 0 1.64-.16 2.44-.49C29.57 17.42 31 15.06 31 12c0-2.29-1.18-4.72-4.43-4.97zM24.5 4c-1.22.45-4.14 1-8.5 1-4.35 0-7.26-.55-8.49-1 .11-.04.24-.08.38-.13.05-.01.08-.03.13-.04.22-.06.48-.13.77-.19.06-.01.14-.02.21-.04.23-.05.47-.09.73-.14.12-.02.25-.04.38-.06.24-.04.49-.07.75-.11a20.535 20.535 0 0 1 1.33-.14c.18-.02.35-.03.54-.04l1.03-.06c.17-.01.34-.02.52-.02C14.83 3.01 15.4 3 16 3c4.36 0 7.28.55 8.5 1zM5.69 16.6C4.69 16.19 3 15.03 3 12c0-1.34.51-2.91 2.84-2.99.55 2.4 1.43 5.26 2.78 7.69-.75.3-1.86.34-2.93-.1zM16 29c-3.54 0-5.87-.57-6.73-1 .86-.43 3.19-1 6.73-1s5.87.57 6.73 1c-.86.43-3.19 1-6.73 1zm0-9c-2.11 0-3.77-1.36-5.06-3.29-.05-.15-.12-.3-.24-.42-.02-.02-.04-.02-.06-.04-1.95-3.19-2.98-7.66-3.41-10.26C8.81 6.55 11.48 7 16 7s7.19-.45 8.77-1.01c-.42 2.61-1.46 7.08-3.42 10.27-.02.01-.04.02-.05.03-.12.12-.19.27-.24.42C19.77 18.64 18.11 20 16 20zm10.31-3.4c-1.07.44-2.17.4-2.93.1 1.35-2.43 2.23-5.3 2.78-7.69C28.49 9.09 29 10.66 29 12c0 3.03-1.69 4.19-2.69 4.6z" style="fill: #81cc71"/></svg>