<svg version="1.1" id="Layer_1" xmlns="http://www.w3.org/2000/svg" x="0" y="0" viewBox="0 0 32 32" style="enable-background:new 0 0 32 32" xml:space="preserve"><style>.st0{fill:#aeb5bc}</style><path class="st0" d="M3.23 16.05c-.28 0-.52.03-.73-.01-.18-.03-.43-.11-.5-.25-.07-.13 0-.4.1-.55 1.01-1.42 2.06-2.8 3.04-4.23.36-.52.75-.7 1.37-.69 2.67.04 5.33.01 8 .02.29 0 .48-.11.7-.28.61-.48.84-1.05.78-1.84-.08-.98-.01-1.98-.03-2.97 0-.14-.06-.31-.15-.41-.37-.43-.38-.94 0-1.29.34-.32.88-.31 1.21.03.36.36.34.88-.06 1.28-.04.04-.08.08-.18.19.2.01.32.03.44.03h3.84c.24 0 .46.01.57.28.11.27-.05.44-.22.6-.3.27-.6.52-.9.79-.01.05-.01.12-.02.18.31.27.62.53.93.8.18.16.32.34.2.6-.12.26-.34.27-.58.27h-4.16c-.08.41-.01.71.27 1.03.49.57 1.04.75 1.79.74 2.57-.05 5.14-.01 7.71-.02.36 0 .6.11.82.41 1.07 1.49 2.15 2.97 3.22 4.46.11.15.18.4.14.58-.06.27-.33.27-.57.26-.2-.01-.41 0-.68 0v10.71c0 1.05-.53 1.58-1.58 1.58H4.83c-1.07 0-1.59-.52-1.59-1.6V16.54c-.01-.15-.01-.29-.01-.49zm9.66 11.42v-7.35c0-.7.28-.99.99-.99h4.96c.82 0 1.07.26 1.07 1.09 0 2.28.01 4.56-.01 6.84 0 .35.11.42.43.42 2.52-.01 5.04-.01 7.57-.01.7 0 .79-.09.79-.79V16.43c0-.12-.01-.23-.02-.36h-5.01c.21.28.32.53.02.76-.3.23-.51.04-.72-.17-1.45-1.45-2.9-2.9-4.34-4.35-.73-.73-1.45-1.48-2.19-2.23-.12.1-.19.16-.26.23-1.48 1.48-2.97 2.97-4.45 4.46l-2 2c-.19.19-.4.24-.62.08-.22-.16-.24-.37-.09-.61.03-.05.05-.1.09-.17h-5V26.7c0 .65.11.76.75.76h7.6c.14.01.27.01.44.01zm1.08-16.22c-.12-.01-.19-.03-.26-.03-2.45 0-4.9-.01-7.35.01-.15 0-.34.11-.43.23-.85 1.14-1.68 2.3-2.52 3.45-.05.07-.08.15-.14.24.08.01.12.02.15.02 2.14 0 4.27.01 6.41-.01.15 0 .34-.11.46-.22 1.14-1.13 2.28-2.26 3.41-3.4.08-.07.15-.16.27-.29zm15.59 3.93c-.1-.16-.15-.25-.22-.33-.81-1.11-1.62-2.22-2.42-3.34-.15-.21-.31-.29-.57-.29-2.36.01-4.73.01-7.09.01h-.46c.13.15.2.23.28.31 1.14 1.14 2.28 2.29 3.43 3.42.13.13.35.22.53.22 1.68.02 3.35.01 5.03.01.47-.01.94-.01 1.49-.01zM15.94 27.44v-7.41h-2.15v7.41h2.15zm3.06 0V20c-.61 0-1.2.01-1.79-.01-.29-.01-.39.07-.39.38.01 2.23.01 4.46.01 6.7 0 .12.01.23.02.37H19zM16.86 5.96v1.73h3.22c.03-.04.07-.08.1-.12-.16-.12-.34-.22-.48-.36-.27-.27-.26-.46 0-.75.13-.14.27-.28.44-.46-.12-.02-.17-.03-.21-.03-1.01-.01-2-.01-3.07-.01z"/><path class="st0" d="M19.28 15.53a2.894 2.894 0 0 1-2.89 2.87c-1.59 0-2.9-1.32-2.89-2.91.01-1.6 1.33-2.88 2.93-2.86 1.59.02 2.86 1.31 2.85 2.9zm-2.92 1.99c1.11.03 2.02-.84 2.05-1.95a2 2 0 0 0-1.94-2.06c-1.14-.03-2.05.83-2.08 1.96-.04 1.11.83 2.02 1.97 2.05zM8.06 23.13v1.45c-.01.4-.15.54-.55.54-.65.01-1.3.01-1.95 0-.41 0-.56-.14-.57-.53-.01-.97-.02-1.93.01-2.9.03-.93.63-1.46 1.58-1.44.95.02 1.47.55 1.48 1.5.01.46 0 .92 0 1.38zm-.88 1.09c0-.84.01-1.63-.01-2.42-.01-.41-.29-.67-.66-.67-.37 0-.63.27-.64.68-.01.32-.01.65-.01.97v1.44h1.32zM24.73 23.13c0-.46-.01-.92 0-1.37.02-.89.59-1.47 1.47-1.5.92-.04 1.53.45 1.58 1.36.05 1.01.03 2.02.02 3.04 0 .3-.17.46-.48.46h-2.1c-.33 0-.49-.18-.49-.5v-1.49zm2.19 1.09c0-.85.01-1.68-.01-2.51-.01-.34-.29-.57-.63-.58-.33-.01-.64.21-.65.55-.03.84-.01 1.68-.01 2.54h1.3zM23.85 23.16v1.41c0 .4-.15.54-.55.55-.66.01-1.33.01-1.99 0-.38 0-.52-.14-.53-.53-.01-.95-.02-1.91.01-2.86.02-.92.65-1.49 1.57-1.47.89.02 1.48.62 1.49 1.53.01.45 0 .91 0 1.37zm-.91 1.07c.01-.09.04-.17.04-.25 0-.71.01-1.42 0-2.13 0-.45-.28-.74-.68-.73-.37.01-.63.29-.63.73-.01.71 0 1.42 0 2.13 0 .08.03.16.04.24.42.01.81.01 1.23.01zM8.94 23.12c0-.46-.01-.92 0-1.37.02-.86.67-1.49 1.53-1.49.87 0 1.5.58 1.52 1.45.02.96.01 1.93.01 2.89 0 .38-.15.52-.53.52-.66.01-1.32.01-1.99 0-.4 0-.54-.15-.54-.55-.01-.49 0-.97 0-1.45zm2.18 1.1c0-.85.01-1.67-.01-2.48a.617.617 0 0 0-.6-.61c-.33-.02-.67.21-.68.56-.03.84-.01 1.67-.01 2.53h1.3z"/><path class="st0" d="M15.96 15.61v-1.22c0-.35.17-.54.45-.53.32.02.42.23.42.52v1.56c0 .4-.13.53-.51.54-.4.01-.8.01-1.19 0-.28 0-.47-.13-.46-.43 0-.3.18-.43.46-.44h.83z"/></svg>