<svg version="1.1" id="Layer_1" xmlns="http://www.w3.org/2000/svg" x="0" y="0" viewBox="0 0 32 32" xml:space="preserve"><style>.st0{fill:none;stroke:red;stroke-miterlimit:10}</style><path class="st0" d="M26.6 8.5C26.6 7.1 25.4 6 24 6H8.7C7.3 6 6.2 7.1 6.2 8.5v15.3c0 1.4 1.1 2.5 2.5 2.5H24c1.4 0 2.5-1.1 2.5-2.5V8.5z"/><path class="st0" d="M24.5 9.4c0-.7-.6-1.3-1.3-1.3H9.6c-.7 0-1.3.6-1.3 1.3V23c0 .7.6 1.3 1.3 1.3h13.6c.7 0 1.3-.6 1.3-1.3V9.4zM8.3 11.9h16.2M8.3 16.2h8.1M18.3 16.2h6.2M8.3 20.4H17M19.4 20.4h5.1M11.3 11.1v1.7M13.8 11.1v1.7M13.8 15.3V17M19.4 19.6v1.7M16.4 11.1v1.7M16.4 15.3V17M21.9 19.6v1.7"/></svg>