<svg version="1.1" id="Layer_1" xmlns="http://www.w3.org/2000/svg" x="0" y="0" viewBox="0 0 45.79 48.54" style="enable-background:new 0 0 45.79 48.54" xml:space="preserve"><style>.st0{fill:#fff}.st1{fill:#20325e}</style><path class="st0" d="M42.13 33.48c-.26 2.97-.53 5.93-.78 8.9-.02.25-.11.34-.36.35-6.17.21-11.92 2.13-17.59 4.37-.16.06-.32.18-.51.16V22.01c3.34-1.44 6.8-2.5 10.34-3.33 3.12-.73 6.28-1.18 9.48-1.29.18-.01.36.01.54-.01.29-.03.37.09.35.37-.28 2.93-.55 5.86-.83 8.8-.39.05-.79.06-1.16.16-1.6.41-2.7 1.88-2.59 3.44.13 1.86 1.28 3.1 3.11 3.33zM22.89 22v25.25c-1.51-.56-3.02-1.15-4.54-1.68-3.38-1.18-6.82-2.13-10.37-2.61-1.01-.14-2.03-.25-3.06-.24-.25 0-.46 0-.49-.34-.25-2.97-.52-5.94-.78-8.9 2.65-.34 3.99-3.16 2.54-5.36-.75-1.14-1.89-1.52-3.18-1.57-.25-2.75-.51-5.51-.75-8.26-.08-.94-.06-.94.9-.9 5.85.21 11.47 1.56 16.96 3.52.95.33 1.88.67 2.77 1.09z"/><path class="st1" d="M32.09 10.51a9.132 9.132 0 0 1-9.19 9.18c-5.34.01-9.22-4.33-9.19-9.23.03-5.09 4.13-9.18 9.2-9.17 5.11 0 9.19 4.1 9.18 9.22zM3.03 26.56c1.29.05 2.43.42 3.18 1.57 1.45 2.2.11 5.01-2.54 5.36-.57.04-1.14.09-1.71-.01-.49-.09-.79-.39-.89-.88-.13-.62-.05-1.25-.06-1.87-.01-.84 0-1.68 0-2.53 0-1.23.37-1.61 1.59-1.62.14-.01.29-.01.43-.02zM42.13 33.48c-1.83-.24-2.98-1.47-3.11-3.33-.11-1.56.99-3.04 2.59-3.44.38-.1.78-.11 1.16-.16.34.02.68.02 1.02.07.61.09.98.49.99 1.08.02 1.54.02 3.08 0 4.62-.01.69-.4 1.08-1.09 1.17-.52.07-1.04.04-1.56-.01z"/></svg>