<svg version="1.1" id="Layer_1" xmlns="http://www.w3.org/2000/svg" x="0" y="0" viewBox="0 0 32 32" xml:space="preserve"><style>.st0{fill:none;stroke:red;stroke-miterlimit:10}</style><circle class="st0" cx="16.4" cy="11.2" r="2.2"/><path class="st0" d="M15.5 9.2V6.7c0-.5.4-.9.9-.9.2 0 .5.1.7.3.2.2.3.4.3.7v2.5M11.5 25.7l-.3 1.2M21.3 25.7l.3 1.2M15.9 13.3l-2 7.6M13.4 22.9l-.6 2.1c-.2.6-.7.9-1.3.8-.6-.2-.9-.7-.8-1.3l2.6-9.8M18.5 11.3l3.5 13c.2.6-.2 1.2-.8 1.3-.3.1-.6 0-.8-.1-.2-.1-.4-.4-.5-.6l-2.4-9"/><path class="st0" d="M24 16.4c-1.2 3-4.2 5.1-7.6 5.1s-6.4-2.1-7.6-5.1M17.3 23.6h-1.8"/></svg>