<svg version="1.1" id="Layer_1" xmlns="http://www.w3.org/2000/svg" x="0" y="0" viewBox="0 0 128 128" xml:space="preserve"><style>.st2{fill:#20325e}</style><path d="M97 127.2H35.4c-2.7 0-5.4.3-8.1.3-1.5 0-3.1-.1-4.6-.5-4.1-1.1-7.1-3.7-9.2-7.6-1.3-2.4-1.5-5-1.5-7.5 0-27.4 0-54.9.1-82.4 0-5 1.8-9.2 5.8-12.3.2-.2.5-.2.7-.3.4 3.2 1.6 6 3.6 8.5.9 1.1 2.2 1.7 2.9 3 1.2 2.4 3 3.3 5 2.6 2.3-.8 3.8-3.5 3.1-6.3-.6-2.8-2.7-4.4-5.2-3.8-.5-.1-.8-.4-1.1-.8-1.1-1.7-1.7-3.5-1.5-5.6 3.4-.3 6.9.5 10.3.3h1.4c2.1 0 2.1.1 2.3 2.2.4 4.7 2.4 8.3 6.2 10.9.6 2.6 3.2 4.2 5.4 3.3 2.1-.9 3.5-3.7 2.9-6.2-.7-2.9-2.3-4.1-5.1-4-1.8-.9-3.1-4.1-2.5-6.1h10c.7 0 1.5.1 2.2 0 1.3-.2 1.6.4 1.6 1.6 0 1.7.5 3.3 1.1 4.9 1.1 2.9 3.2 4.9 5.3 6.9 1.1 2.6 3.1 3.7 5.1 3 2.4-.8 3.7-3.4 3.1-6.5-.4-2.4-2.4-3.9-4.9-3.8-2.5-1.3-2.7-3.7-2.8-6.1h10.3c.8 0 1.7.1 2.5 0 1-.1 1.3.3 1.2 1.3-.1 1.6.3 3 .8 4.5.9 3.2 3.2 5.5 5.5 7.6 1 2.4 3 3.6 5.1 3 2.3-.7 3.8-3.5 3.2-6.1-.6-2.9-2.4-4.3-5.2-4.1-2.2-1.4-2.7-3.7-2.5-6.1H96c.8.1 1.7.2 2.5.3 6.4 1.6 10.6 6.9 10.6 13.7v84.8c0 1.8-.4 3.5-1 5.1-1.6 4.2-6.6 8.1-11.1 8.3zM60.7 49.8H27.5c-.7 0-1.4 0-2 .1-1.7.3-2.8 1.7-2.9 3.4 0 2.3 1.5 3.6 4.4 3.6h67.1c3.1 0 4.7-1.2 4.8-3.5 0-2.3-1.6-3.6-4.7-3.6H60.7zm-.1 35.3H27.4c-.6 0-1.3 0-1.9.1-1.6.2-2.8 1.6-2.9 3.3-.1 2.4 1.5 3.7 4.4 3.7h67.1c3.1 0 4.7-1.2 4.8-3.5 0-2.3-1.6-3.6-4.7-3.6H60.6zm.1-10.7h34.7c1.7-.1 3.1-1.4 3.3-3 .2-1.7-.8-3.2-2.4-3.8-.6-.2-1.2-.2-1.8-.2H25.7c-1.9.2-3.2 1.8-3.1 3.7.1 2 1.6 3.3 4 3.3 11.4.1 22.7 0 34.1 0zm-14 35.3h20.8c2 0 3.4-1.4 3.4-3.3.1-2-1.3-3.5-3.3-3.7h-41c-.4 0-.8 0-1.2.1-1.6.3-2.7 1.6-2.9 3.1-.2 1.7.8 3.2 2.3 3.7.7.2 1.4.2 2.2.2 6.6-.1 13.2-.1 19.7-.1z" fill="#ffac31"/><path d="M25.5 14.4c-.2 2 .3 3.9 1.5 5.6.3.4.6.7 1.1.8.1 1.1 1.1 1.2 1.7 1.7 1.7 1.3 2.2 3.3 1.1 5.2-.9 1.6-2.1 1.7-4.3.8-.4-.2-.9-.7-1.4-.1-.7-1.3-2-1.9-2.9-3-2-2.5-3.2-5.3-3.6-8.5-.4-3.7.3-7.2 2.3-10.3 2.2-3.4 5.3-5.4 9.3-5.6 4.2-.2 7.4 2 9.9 5.3l.6.9c.1.1.2.1.4.3 2.3-4 5.7-6.5 10.2-6.5 4.6 0 7.9 2.5 10.3 6.7C64.3 3.8 67.5 1 72.2.9c4.6 0 7.9 2.5 10.4 6.5.8-.5 1.1-1.5 1.6-2.2 4.9-5.9 13.2-5.7 17.9.5 2 2.6 3 5.5 2.9 8.8-2.2.1-4.4-.4-6.5.3-.8-.1-1.7-.2-2.5-.3.5-.8 2 .4 2.1-1 0-.8-.5-1.7-.7-2.5 0-.1-.1-.2-.1-.3-1.3-2.9-4.6-4-6.6-2.3-1.9 1.6-2.8 3.7-2.8 6.2-.1 2.5.3 4.7 2.5 6.1.3 1.3 1.6 1.5 2.3 2.4 1.1 1.5 1.3 3.4.3 4.8-.8 1.1-2.4 1.3-4.1.6-.5-.2-1-.6-1.6-.5-2.3-2.2-4.6-4.4-5.5-7.6-.4-1.5-.9-2.9-.8-4.5.1-.9-.3-1.4-1.2-1.3-.8.1-1.7 0-2.5 0 .1-1.4-.1-2.8-.9-3.9-1.6-2.5-3.9-4-6.5-2-2 1.5-2.7 3.6-2.9 6 .1 2.4.3 4.8 2.8 6.1 0 .7.5.9 1 1.3 1.1.8 1.8 1.8 2 3.1.3 1.3-.1 2.5-1.2 3.4-.9.8-2 .6-2.9.3-.7-.2-1.4-.7-2.2-.8-2.1-2-4.2-4-5.3-6.9-.6-1.6-1.2-3.2-1.1-4.9 0-1.2-.3-1.8-1.6-1.6-.7.1-1.5 0-2.2 0v-1.6c-.2-2.2-1.3-3.8-3-4.9-1.2-.7-2.9-.7-4.1.3-1.9 1.5-3 3.6-2.9 6.2-.6 2.1.7 5.2 2.5 6.1 0 .6.4.9.9 1.2.8.5 1.4 1.2 1.9 2.1.6 1.1.4 3.4-.4 4.2-1 1-2.3 1-3.5.5-.7-.3-1.4-.7-2.1-1-3.8-2.6-5.9-6.2-6.2-10.9-.2-2.1-.2-2.1-2.3-2.2h-1.4c0-2.3-.9-4.3-2.5-5.9-1.5-1.4-3.6-1.3-5-.3-1.9 1.4-2.6 3.5-2.7 5.9z" fill="#20325e"/><path class="st2" d="M98.5 14.9c2.1-.6 4.3-.1 6.5-.3 3.2 1 6.1 2.4 8.1 5.2 1.6 2.2 2.8 4.7 2.8 7.6v86.8c0 6.2-5.6 12.5-11.9 13-2.4.2-4.7.5-7.1 0 4.5-.2 9.5-4.1 11.2-8.7.6-1.6 1-3.3 1-5.1V28.6c0-6.7-4.2-12.1-10.6-13.7z"/><path class="st2" d="M60.7 49.8h33.4c3.1 0 4.7 1.2 4.7 3.6 0 2.3-1.6 3.5-4.8 3.5H26.9c-2.8 0-4.4-1.3-4.4-3.6 0-1.8 1.2-3.1 2.9-3.4.7-.1 1.3-.1 2-.1h33.3zM60.6 85.1h33.5c3.1 0 4.7 1.2 4.7 3.6 0 2.3-1.6 3.5-4.8 3.5H26.9c-2.9 0-4.5-1.4-4.4-3.7.1-1.7 1.2-3 2.9-3.3.6-.1 1.2-.1 1.9-.1h33.3zM60.7 74.4H26.5c-2.4 0-3.9-1.3-4-3.3-.1-1.9 1.2-3.5 3.1-3.7h68.8c.6 0 1.2-.1 1.8.2 1.6.6 2.6 2.1 2.4 3.8-.2 1.7-1.5 3-3.3 3-2.1.1-4.2 0-6.2 0-9.3.1-18.9 0-28.4 0zM46.7 109.7H27.1c-.7 0-1.5 0-2.2-.2-1.6-.5-2.5-2-2.3-3.7.1-1.6 1.3-2.8 2.9-3.1.4-.1.8-.1 1.2-.1h41c2 .2 3.4 1.6 3.3 3.7-.1 1.9-1.4 3.3-3.4 3.3H53.3c-2.2.1-4.4.1-6.6.1zM45.7 27.7c.7.3 1.4.8 2.1 1 1.2.5 2.5.5 3.5-.5.8-.8 1-3.1.4-4.2-.5-.8-1.1-1.6-1.9-2.1-.4-.3-.9-.5-.9-1.2 2.8-.2 4.4 1.1 5.1 4 .6 2.5-.8 5.3-2.9 6.2-2.2 1-4.8-.6-5.4-3.2zM87.3 28c.6-.1 1.1.3 1.6.5 1.7.8 3.3.6 4.1-.6 1.1-1.4.9-3.3-.3-4.8-.7-.9-2-1.1-2.3-2.4 2.8-.2 4.6 1.2 5.2 4.1.5 2.6-.9 5.4-3.2 6.1-2.1.7-4.1-.5-5.1-2.9zM25.1 28.4c.5-.6 1-.1 1.4.1 2.2.9 3.4.8 4.3-.8 1.1-1.8.6-3.8-1.1-5.2-.6-.5-1.6-.7-1.7-1.7 2.4-.5 4.5 1.1 5.2 3.8.7 2.8-.8 5.5-3.1 6.3-2 .7-3.8-.2-5-2.5zM66.5 28c.8.1 1.4.6 2.2.8 1 .3 2 .5 2.9-.3 1-.9 1.5-2.1 1.2-3.4-.3-1.3-1-2.3-2-3.1-.5-.3-1-.6-1-1.3 2.5-.1 4.5 1.4 4.9 3.8.5 3-.7 5.6-3.1 6.5-2 .7-3.9-.4-5.1-3z"/></svg>