<svg version="1.1" id="Layer_1" xmlns="http://www.w3.org/2000/svg" x="0" y="0" viewBox="0 0 128 128" xml:space="preserve"><style>.st1{fill:#ffac31}</style><path d="M124.1 42.3c.2 0 .4-.1.6-.1 1.1-.2 2.1.2 2.5 1.2.5.9.2 2-.6 2.7-.3.3-.6.5-1 .7-1 .5-1.5 1.4-1.9 2.4-1.4 3.4-1.3 6.8.3 10.2.3-.1.5-.1.7-.2 1-.2 2 .2 2.5 1.1.5.9.3 2-.4 2.8-.1.1-.2.2-.3.2-2.3 1.2-3.1 3.4-3.5 5.7-.5 2.5-.1 5 1.1 7.4.2 0 .3 0 .4-.1 1.3-.3 2.3.1 2.8 1.1s.2 2.2-.9 2.9c-2.7 2-5.4 4-8.1 5.9-17.3 12.6-34.6 25.1-51.9 37.7-2.3 1.7-4.6 1.9-7.3.9-17.9-7.2-35.8-14.3-53.7-21.5-.8-.3-1.4-.7-1.8-1.4-3.6-5.6-4-11.3-.9-17.2.3-.5.3-.9 0-1.4-2.8-5.2-2.8-10.4 0-15.6.3-.5.3-.9 0-1.4C-.4 60.4 0 54.6 3.7 49c.3-.4.7-.8 1.1-1.1 19.9-14.5 40-29.1 60.1-43.7 2-1.5 4.3-1.7 6.6-.8 18 7.2 36 14.4 54.1 21.6.9.4 1.7.9 1.8 2 .1 1.1-.4 1.8-1.2 2.4-3 1.9-3.3 4.9-3.4 8 0 1.9.6 3.9 1.3 4.9zM6.6 69.9c-.2.3-.3.5-.4.8-1.6 3.7-1.5 7.4.6 11 .2.4.6.7 1 .9 17.7 7.1 35.4 14.1 53 21.2 1 .4 1.8.3 2.7-.3 19.1-13.9 38.1-27.7 57.2-41.6.5-.4.6-.6.3-1.2-1.3-2.6-1.7-5.4-1.4-8.3 0-.3.1-.7.1-1.2-.4.3-.6.4-.9.6-17.5 12.7-35.1 25.5-52.6 38.3-2.3 1.7-4.7 2-7.3.9-16.3-6.5-32.7-13.1-49-19.6-1-.6-2.1-1-3.3-1.5zm113-35.7c-.2.1-.4.3-.6.4C101.6 47.3 84.1 60 66.6 72.7c-2.6 1.9-5.1 2.2-8 1C41.5 66.8 24.4 60 7.4 53.1c-.6-.2-.9-.2-1.1.4-1.6 3.7-1.5 7.3.5 10.8.3.5.8.9 1.2 1.1 17.6 7.1 35.2 14.1 52.8 21.1 1.1.4 2 .3 2.9-.4 4.6-3.4 9.3-6.8 14-10.2 14.3-10.4 28.7-20.8 43-31.2.6-.4.7-.7.4-1.4-.8-1.6-1.3-3.4-1.4-5.2-.1-1.2-.1-2.5-.1-3.9zm.3 33.9c-.4.3-.6.4-.8.5L66.3 107c-2.2 1.6-4.6 1.9-7.1.9C42 101 24.7 94.1 7.5 87.2c-.6-.3-.9-.2-1.2.5-1.6 3.8-1.5 7.4.6 11 .2.4.6.7 1 .9 17.6 7.1 35.3 14.1 53 21.2 1 .4 1.9.3 2.8-.3l23.1-16.8c11.3-8.2 22.7-16.5 34-24.7.5-.4.6-.6.3-1.2-.4-1-.8-2.1-1.1-3.2-.6-2.2-.5-4.2-.1-6.5zM54.7 27.3c.3.1.4.2.6.3 11 4.4 21.9 8.8 32.9 13.2.5.2.8.1 1.2-.2 3.8-2.8 7.6-5.5 11.4-8.3.2-.1.3-.3.5-.4-.2-.1-.4-.2-.5-.2-11-4.4-21.9-8.8-32.9-13.2-.5-.2-.8-.1-1.2.2-2.3 1.7-4.7 3.4-7 5.1-1.7 1.1-3.3 2.3-5 3.5z" fill="#20325e"/><path class="st1" d="M6.6 69.9c1.2.5 2.3.9 3.4 1.4 16.3 6.5 32.7 13 49 19.6 2.6 1.1 5 .7 7.3-.9 17.5-12.8 35.1-25.5 52.6-38.3.2-.2.5-.3.9-.6-.1.5-.1.8-.1 1.2-.3 2.9.1 5.7 1.4 8.3.3.6.2.8-.3 1.2-19.1 13.8-38.1 27.7-57.2 41.6-.9.6-1.7.7-2.7.3-17.7-7.1-35.4-14.1-53-21.2-.4-.2-.8-.5-1-.9-2-3.5-2.2-7.2-.6-11 0-.2.2-.4.3-.7z"/><path class="st1" d="M119.6 34.2c0 1.4-.1 2.7 0 4.1.1 1.8.5 3.6 1.4 5.2.3.7.2 1-.4 1.4-14.4 10.4-28.7 20.8-43 31.2-4.7 3.4-9.3 6.8-14 10.2-.9.7-1.8.8-2.9.4-17.6-7-35.2-14.1-52.8-21.1-.5-.2-1-.6-1.2-1.1-2-3.5-2.1-7.1-.5-10.8.3-.6.5-.7 1.1-.4C24.4 60 41.5 66.8 58.6 73.7c2.9 1.2 5.5.9 8-1 17.5-12.7 35-25.4 52.4-38.1.2-.1.5-.3.6-.4z"/><path class="st1" d="M119.9 68.1c-.4 2.3-.4 4.3.1 6.3.3 1.1.7 2.2 1.1 3.2.2.6.2.8-.3 1.2-11.4 8.2-22.7 16.5-34 24.7l-23.1 16.8c-.9.7-1.8.8-2.8.3-17.7-7.1-35.3-14.1-53-21.2-.4-.2-.8-.5-1-.9-2-3.5-2.2-7.2-.6-11 .3-.6.6-.7 1.2-.5 17.2 6.9 34.5 13.8 51.7 20.7 2.5 1 4.9.7 7.1-.9l52.8-38.4c.2.1.4 0 .8-.3zM54.7 27.3c1.7-1.2 3.3-2.4 4.9-3.6 2.3-1.7 4.7-3.4 7-5.1.4-.3.7-.4 1.2-.2 11 4.4 21.9 8.8 32.9 13.2.1.1.3.1.5.2-.2.2-.3.3-.5.4-3.8 2.8-7.6 5.5-11.4 8.3-.4.3-.7.3-1.2.2-11-4.4-21.9-8.8-32.9-13.2-.1 0-.2-.1-.5-.2z"/></svg>