<svg version="1.1" id="Layer_1" xmlns="http://www.w3.org/2000/svg" x="0" y="0" viewBox="0 0 128 128" xml:space="preserve"><style>.st2{fill:#ffac31}</style><path d="M117.5 89.6c-.7 8.3-1.5 16.5-2.2 24.8-.1.7-.3 1-1 1-17.2.6-33.2 5.9-49 12.2-.5.2-.9.5-1.4.4V57.7c9.3-4 18.9-7 28.8-9.3 8.7-2 17.5-3.3 26.4-3.6h1.5c.8-.1 1 .2 1 1-.8 8.2-1.5 16.3-2.3 24.5-1.1.1-2.2.2-3.2.4-4.5 1.1-7.5 5.2-7.2 9.6.4 5.3 3.6 8.7 8.6 9.3z" fill="#20325e"/><path d="M64 57.7V128c-4.2-1.6-8.4-3.2-12.6-4.7-9.4-3.3-19-5.9-28.9-7.3-2.8-.4-5.7-.7-8.5-.7-.7 0-1.3 0-1.4-1-.7-8.3-1.4-16.5-2.2-24.8 7.4-1 11.1-8.8 7.1-14.9-2.1-3.2-5.3-4.2-8.9-4.4-.6-7.5-1.3-15.2-2-22.8-.2-2.6-.2-2.6 2.5-2.5 16.3.6 31.9 4.3 47.2 9.8 2.6.9 5.2 1.8 7.7 3z" fill="#20325e"/><path class="st2" d="M89.6 25.7c.1 13.1-10.4 25.5-25.6 25.5-14.9 0-25.7-12.1-25.6-25.7C38.5 11.4 49.9 0 64 0c14.3 0 25.6 11.4 25.6 25.7zM8.7 70.4c3.6.1 6.8 1.2 8.9 4.4 4 6.1.3 14-7.1 14.9-1.6.1-3.2.3-4.8 0-1.4-.3-2.2-1.1-2.5-2.4-.4-1.7-.1-3.5-.2-5.2v-7c0-3.4 1-4.5 4.4-4.5.5-.2.9-.2 1.3-.2zM117.5 89.6c-5.1-.7-8.3-4.1-8.7-9.3-.3-4.3 2.7-8.5 7.2-9.6 1.1-.3 2.2-.3 3.2-.4.9.1 1.9.1 2.8.2 1.7.3 2.7 1.4 2.8 3 .1 4.3.1 8.6 0 12.9 0 1.9-1.1 3-3 3.3-1.4.2-2.8.1-4.3-.1z"/></svg>