<svg xmlns="http://www.w3.org/2000/svg" viewBox="0 0 312 320"><defs><style>.cls-1{fill:none;}.cls-1,.cls-2{stroke:#fff;stroke-miterlimit:10;stroke-width:5px;}.cls-2{fill:#f49b4e;}.cls-3{fill:#fff;}</style></defs><g id="artwork"><circle class="cls-1" cx="213.07" cy="96.31" r="10.4"/><circle class="cls-1" cx="95.19" cy="222.03" r="10.4"/><circle class="cls-2" cx="186.06" cy="80.61" r="1.38"/><circle class="cls-2" cx="122.85" cy="239.47" r="1.38"/><path class="cls-1" d="M154.65,96.31s-13.06,5-13.06,23.45,13.06,25.48,13.06,25.48,12.7-6.42,12.7-25.48C167.35,104.24,154.65,96.31,154.65,96.31Z"/><path class="cls-1" d="M189.34,130.77s-12.8-5.67-25.82,7.35-8.77,27.25-8.77,27.25,13.52,4.45,27-9C192.72,145.36,189.34,130.77,189.34,130.77Z"/><path class="cls-1" d="M189.34,162.69S176.54,157,163.52,170s-8.77,27.24-8.77,27.24,13.52,4.45,27-9C192.72,177.28,189.34,162.69,189.34,162.69Z"/><path class="cls-1" d="M118.21,130.77S131,125.1,144,138.12s8.78,27.25,8.78,27.25-13.52,4.45-27-9C114.83,145.36,118.21,130.77,118.21,130.77Z"/><path class="cls-1" d="M118.21,162.69S131,157,144,170s8.78,27.24,8.78,27.24-13.52,4.45-27-9C114.83,177.28,118.21,162.69,118.21,162.69Z"/><line class="cls-1" x1="154.47" y1="226.06" x2="154.47" y2="147.81"/><circle class="cls-1" cx="156" cy="160" r="127.44"/></g><g id="Layer_4" data-name="Layer 4"><path class="cls-3" d="M177.36,75a69,69,0,0,0-8.77-1.74,101.11,101.11,0,0,0-21.36-.92,76.45,76.45,0,0,0-26.61,6.5,102.71,102.71,0,0,0-22.53,14A86.43,86.43,0,0,0,68.5,179.52a92,92,0,0,0,9.21,23.94A59.4,59.4,0,0,0,84.9,214c.13.14.25.29.39.43,2.22,2.33,5.76-1.21,3.53-3.54-.48-.5-.92-1.05-1.36-1.6l-.34-.43c.34.43.08.1-.09-.12-.29-.39-.58-.78-.86-1.18-.68-.94-1.32-1.91-1.94-2.89a84.62,84.62,0,0,1-9-19.59,83.5,83.5,0,0,1,.8-52.77,81.75,81.75,0,0,1,21.35-32.19,94.07,94.07,0,0,1,19.79-14,73,73,0,0,1,25-8.29,92.91,92.91,0,0,1,21.92-.15c1.55.17,2.39.28,3.78.49,1.14.17,2.27.36,3.41.58,1.4.26,2.8.56,4.18.91l.56.15c3.1.87,4.43-4,1.33-4.82Z"/><path class="cls-3" d="M133.07,245.63a73,73,0,0,0,9.06,1.56,98.49,98.49,0,0,0,20.81.42,77.23,77.23,0,0,0,26-6.75,101.63,101.63,0,0,0,22.7-14.68,88.6,88.6,0,0,0,24-33A87.39,87.39,0,0,0,239.58,139a91.77,91.77,0,0,0-9.8-24,60.43,60.43,0,0,0-7.51-10.47l-.39-.42c-2.28-2.27-5.82,1.26-3.54,3.54.51.51,1,1.06,1.44,1.61l.71.86.36.47.24.31c.69.93,1.36,1.88,2,2.84a85.41,85.41,0,0,1,9.56,19.58,83.5,83.5,0,0,1,.29,52.93A81.65,81.65,0,0,1,212.15,219c-12.08,11.68-27.57,20.43-44.26,23.06a91.37,91.37,0,0,1-21.61.61c-1.39-.11-2.77-.26-4.15-.43l-.48-.06c-.42,0,.36.05-.05,0l-.78-.11-1.65-.25c-1.42-.24-2.82-.5-4.22-.82l-.55-.13c-3.12-.8-4.45,4-1.33,4.82Z"/></g></svg>