<?xml version="1.0" encoding="UTF-8"?>
<svg id="Layer_2" data-name="Layer 2" xmlns="http://www.w3.org/2000/svg" viewBox="0 0 159.36 216.11">
  <defs>
    <style>
      .cls-1 {
        fill: #1a1718;
      }
    </style>
  </defs>
  <g id="Layer_1-2" data-name="Layer 1">
    <g>
      <path class="cls-1" d="m22.21,21.16c-3.31,3.72-5.94,8.03-9.23,11.77C.37,48.07-3.66,70.07,3.58,88.5c2.88,9.51,7.44,18.55,14.32,25.77,10.93,10.76,26.17,16.69,41.44,16.74,9.28.74,18.2-2.65,26.56-6.32,2.27,6.07,4.05,12.28,5.89,18.5,4.79,15.75,10.48,31.25,15.57,46.9,2.68,8.16,5.68,16.52,11.57,22.91,1.96,2.19,4.97,3.77,7.95,2.83,8.41-2.37,15.04-8.36,22.15-13.13,6.4-4.18,10.98-11.67,10.25-19.45-3.77-13.25-12.64-24.03-19.65-35.63-4.51-6.73-9.76-12.95-13.92-19.93-4.49-7.82-11.55-13.66-16.67-21.03,13.61-13.1,21.54-32.22,20.57-51.15-.38-14.83-7.01-29.39-17.84-39.5C101.04,6.22,86.77.24,72.19.03c-18.63-.59-37.57,7.09-49.98,21.13Zm129.5,173.18c-3.72,4.05-8.56,6.7-13.02,9.76-4.56,3.03-9.46,6.27-15.14,6.24,2.17-5.91,6.3-10.88,10.96-14.99,6.14-5.05,13.76-7.95,21.46-9.74-.99,3.08-2.01,6.3-4.26,8.72Zm-28.06-129.68c-1.45,13.94-8.21,27.14-18.45,36.68-13.1,12.77-32.5,19.04-50.51,15.09-18.89-3.42-35.04-17.66-41.47-35.66-6.19-16.92-2.57-36.88,8.51-50.97,9.05-11.83,22.53-20.11,37.13-22.94,18.35-3.59,38.54,2.14,51.46,15.88,10.65,10.93,15.16,26.94,13.33,41.93Z"/>
      <path class="cls-1" d="m60.83,14.23c-13.81,2.17-26.61,10.7-33.31,23.07-8.74,14.48-8.79,33.67.1,48.07,8.44,15.27,26.25,24.7,43.66,22.76,14.55-1.2,28.21-9.79,35.71-22.33,9.79-15.98,9.86-37.82-.92-53.34-9.81-14.22-28.37-21.26-45.24-18.22Zm48.02,57.17c-1.12,5.28-3.47,10.22-5.71,15.11-9.2,13.07-26.28,20.39-42.08,17.15-22.17-3.77-40.12-26.23-37.03-48.86,6.04-16.16,21.64-27.76,38.46-30.64,11.19-1.96,23.37.25,32.47,7.31,11.88,9.1,17.1,25.44,13.89,39.91Z"/>
      <path class="cls-1" d="m86.69,45.5c-2.57-3.72-4.51-8.18-8.44-10.73-3.85-2.42-8.72-2.55-13.02-1.53-6.58,1.91-12.59,6.01-16.72,11.47-2.52,2.75.28,6.6,3.42,7.16,7.34,1.71,15.11-.1,22.38,2.17,3.59,1.07,6.52,4.15,7.09,7.93,1.07,4.1.05,9.35,3.82,12.28,1.94,1.58,4.72.28,5.89-1.61,2.27-3.47,2.17-7.85,1.84-11.8-.38-5.66-3.49-10.58-6.24-15.34Zm.03,26.79c-2.91-2.29-2.45-6.37-3.21-9.61-.59-4.1-2.93-8.13-6.8-9.91-8.39-4.26-18.53-.54-26.81-4.94,4.49-5.71,10.48-10.58,17.61-12.36,4-.99,8.16-.05,11.75,1.76,2.75,8.23,9.84,14.68,10.68,23.63.2,3.9.94,9.25-3.21,11.44Z"/>
    </g>
  </g>
</svg>