<svg xmlns="http://www.w3.org/2000/svg" viewBox="0 0 312 320"><defs><style>.cls-1{fill:none;}.cls-1,.cls-3{stroke:#fff;stroke-miterlimit:10;stroke-width:5px;}.cls-2{fill:#fff;}.cls-3{fill:#f49b4e;}</style></defs><g id="artwork"><circle class="cls-1" cx="125.99" cy="109.37" r="10.4"/><circle class="cls-1" cx="109.04" cy="196.84" r="10.4"/><circle class="cls-1" cx="142.22" cy="217.63" r="10.4"/><circle class="cls-1" cx="181.75" cy="211.63" r="10.4"/><circle class="cls-1" cx="208.22" cy="178.81" r="10.4"/><path class="cls-2" d="M130.06,180.58a43.63,43.63,0,0,0,12.14,7.88c8.64,3.82,18.35,4.53,26.77-.31,6.57-3.77,11.35-10.05,14.94-16.59,1.55-2.83-2.77-5.35-4.32-2.53-2.92,5.33-6.72,10.62-11.73,13.93a21,21,0,0,1-12,3.69,28,28,0,0,1-3-.18c-.5-.06.28.05-.22,0l-.76-.13q-.75-.13-1.5-.3a35.71,35.71,0,0,1-5.42-1.76l.13.05-.37-.16-.54-.24c-.42-.19-.83-.39-1.24-.6-.76-.37-1.5-.77-2.23-1.19-1.3-.75-2.56-1.55-3.78-2.42-.54-.37-1.06-.77-1.58-1.16l-.22-.17-.53-.44c-.34-.28-.68-.57-1-.88-2.34-2.2-5.89,1.33-3.53,3.54Z"/><path class="cls-1" d="M155.19,117.53c-.82-1.51-2.9-2.91-2.57-6.53,1-10.9,12.34-14.82,7.24-27.53s-49.21-5.76-70.74,23.29c-20.47,27.63-30.31,78.86,9.53,116.44,49.41,46.62,149.29,7.45,130.59-70.91-3.63-15.17-20-24.67-34.25-27.53"/><path class="cls-1" d="M123.71,145s27.83-26.13,55.41-40c30.53-15.35,50.12-17.53,52.42-14.47,5.41,7.19-60.54,55.76-99.72,66.35"/><path class="cls-1" d="M143.62,128.28s12,7.64,11.56,19.53"/><path class="cls-1" d="M93.71,168.41s4.93-17.19,17.68-24c9.31-5,23.29,4.32,18.69,15.94a14.43,14.43,0,0,1-10.29,8.49C108.73,171.4,93.71,168.41,93.71,168.41Z"/><circle class="cls-3" cx="177.78" cy="154.41" r="1.38"/><circle class="cls-1" cx="156" cy="160" r="127.44"/></g></svg>