<svg version="1.1" id="Layer_1" xmlns="http://www.w3.org/2000/svg" x="0" y="0" viewBox="0 0 32 32" xml:space="preserve"><style>.st1{fill:#dbdbdb}.st2{fill:#fff}</style><path d="M5.3 26.9v-1.6c.2.1.4.2.6.2 0-.1.1-.3.1-.5v-.9c0-1.5.9-2.7 2.3-3.2.4-.1.7-.3 1.1-.3.3 0 .6 0 .8.1 1.7 1 3.5 2 5.2 3.1.4.2.6.2 1 0 1.7-1.1 3.5-2.1 5.2-3.1.2-.1.4-.2.6-.1.5.1 1 .2 1.4.4 1.1.4 1.9 1.3 2 2.5.1 1.5.1 3 .1 4.5 0 .4-.3.8-.8.8H23v-1.5c0-.2-.2-.4-.4-.6-.1.2-.3.3-.4.5-.1.3-.1.7 0 1 0 .5-.1.6-.6.6H10.4c-1.2 0-1.2 0-1.2-1.3v-.3c-.1-.2-.2-.5-.3-.5-.3 0-.4.3-.4.5v1.5H6.7c-.5 0-.8-.4-.8-.9v-.6c-.1-.2-.1-.4-.2-.5l-.4.2z" style="fill:#dcdbdb"/><path class="st1" d="M26.6 23c-.4-1.4-1.3-2.5-2.7-2.8-1.9-.4-3.3-1.7-4.9-2.6-.3-.2-.3-.6 0-.8.9-.8 1.4-1.7 1.6-2.8 0-.1.1-.3.3-.3.5-.2.7-.6.7-1.1v-2c0-.5-.1-1 .3-1.5.1-.1.1-.3.1-.5V7.2l2-.3c.1 0 .3-.1.4-.1.5-.1.7-.4.7-.8s-.2-.7-.6-.8l-3.1-1c-1.6-.5-3.2-1-4.7-1.5-.1 0-.2-.1-.2-.1h-.4c-1.7.4-3.1.8-4.6 1.3-1.2.4-2.4.8-3.7 1.2-.7.2-.8.6-.5 1.3.1.1.1.2.1.3v1.9c-.7.2-.8.7-.8 1.4-.1 1.2-.3 2.4-.5 3.6-.1.8.2 1.1 1 1.2h1.5c.7 0 1.1-.4 1-1.1-.1-.9-.3-1.8-.4-2.7-.1-.5-.2-.9-.2-1.3s-.1-.7-.6-.9c-.1 0-.3-.2-.3-.3V6.8l2 .3v1c.1.4.2.8.3 1.3v3.1c0 .5.2.9.7 1.1.1.1.2.2.3.4.2 1 .7 2 1.5 2.7.4.4.4.7-.1 1-.9.6-1.9 1.3-2.8 1.8-.4.3-1 .4-1.5.6-1.8.5-2.9 1.5-3.2 3.4 0 0 0 .1-.1.1v4.6c.2.7.7 1.2 1.4 1.4h18.6c.7-.2 1.2-.7 1.4-1.4v-4.5c.1-.3 0-.5 0-.7zm-7.7-4.6 2.5 1.6-3.8 2.3 1.3-3.9zm-1.5 1.3h-2.8c-.1 0-.4-.2-.4-.3-.1-.7-.2-1.3-.3-2.1 1.4.6 2.7.6 4.2 0-.1.8-.2 1.5-.3 2.2-.1.1-.3.2-.4.2zm.1.8c-.5.8-1 1.6-1.5 2.5-.5-.9-1-1.6-1.5-2.5h3zm-9.1-9.2c.2.9.3 1.7.5 2.7h-2c.1-1 .2-1.9.4-2.8 0-.1.4-.2.7-.2.1 0 .4.1.4.3zm-.1-1.8v.7c-.9.1-1 0-.8-.7h.8zm2.7-.7V7.1c2.3-.2 4.6-.9 7-.4h.2c.3 0 .6.1.7-.3 0-.4-.3-.4-.6-.4-2.3-.5-4.5 0-6.7.3-1.2.2-2.4-.2-3.6-.5 0 0 .1 0 .2-.1 2.5-.8 4.9-1.6 7.4-2.3.3-.1.5-.1.8 0 2.4.8 4.9 1.5 7.3 2.3.1 0 .2.1.3.2-1.1.2-2.2.6-3.4.4-.1 0-.2-.1-.3 0-.1.1-.3.2-.3.3 0 .1.1.3.3.4.2.1.5.1.7.1v1.6l-10 .1zm9.7.8v1.2c-.9.2-1 0-.9-1.2h.9zm-9.4 0h.9c.2 1.1 0 1.3-.9 1.2V9.6zm.9 4.4c-.1-.5-.1-1-.8-1.1-.1 0-.2-.2-.2-.2v-1c.7 0 1.2 0 1.5-.5.2-.4.2-.9.4-1.5h5.7c.1.5.1 1.1.4 1.5.3.3.9.4 1.3.7l.1-.1v.9c0 .1-.1.3-.2.3-.5.1-.6.5-.7.9-.3 1.7-1.5 2.9-3.2 3.2-1.9.3-3.9-1.1-4.3-3.1zm.9 4.4 1.4 3.9-3.8-2.3 2.4-1.6zm12.8 9.5c0 .4-.3.8-.8.8h-1.9v-1.5c0-.2-.2-.4-.4-.6-.1.2-.3.3-.4.5 0 .3-.1.7 0 1 0 .5-.1.6-.6.6H10.6c-1.2 0-1.2 0-1.2-1.3v-.3c-.1-.2-.2-.5-.3-.5-.3 0-.4.3-.4.5v1.5H6.9c-.5 0-.8-.4-.8-.9V23.9c0-1.5.9-2.7 2.3-3.2.4-.1.7-.3 1.1-.3.3 0 .6 0 .8.1 1.7 1 3.5 2 5.2 3.1.4.2.6.2 1 0 1.7-1.1 3.5-2.1 5.2-3.1.2-.1.4-.2.6-.1.5.1 1 .2 1.4.4 1.1.4 1.9 1.3 2 2.5.3 1.6.2 3.1.2 4.6z"/><path class="st2" d="M11.3 11.6c.7 0 1.2 0 1.5-.5.2-.4.2-.9.4-1.5h5.7c.1.5.1 1.1.4 1.5.3.3.9.4 1.3.7l.1-.1v.9c0 .1-.1.3-.2.3-.5.1-.6.5-.7.9-.3 1.7-1.5 2.9-3.2 3.2-2 .4-4-1-4.4-3-.1-.5-.1-1-.8-1.1-.1 0-.2-.2-.2-.2.1-.4.1-.7.1-1.1z"/><path class="st1" d="M21 8.8H11V7.1c2.3-.2 4.6-.9 7-.4h.2c.3 0 .6.1.7-.3 0-.4-.3-.4-.6-.4-2.3-.5-4.5 0-6.7.3-1.2.2-2.4-.2-3.6-.5 0 0 .1 0 .2-.1 2.5-.8 4.9-1.6 7.4-2.3.3-.1.5-.1.8 0 2.4.8 4.9 1.5 7.3 2.3.1 0 .2.1.3.2-1.1.2-2.2.6-3.4.4-.1 0-.2-.1-.3 0-.1.1-.3.2-.3.3 0 .1.1.3.3.4.2.1.5.1.7.1v1.7z"/><path class="st2" d="M13.9 17.3c1.4.6 2.7.6 4.2 0-.1.8-.2 1.5-.3 2.2 0 .1-.2.2-.4.2h-2.8c-.1 0-.4-.2-.4-.3-.1-.6-.2-1.3-.3-2.1zM14.5 22.3 10.7 20l2.5-1.6 1.3 3.9zM18.9 18.4l2.5 1.6-3.8 2.3 1.3-3.9zM6.8 13.9c.2-.9.3-1.8.5-2.7 0-.1.4-.2.7-.2.1 0 .4.1.4.2.2.9.3 1.7.5 2.7H6.8zM17.5 20.5 16 23l-1.5-2.5h3zM11.3 9.6h.9c.2 1.1 0 1.3-.9 1.2V9.6zM19.8 9.6h.9v1.2c-.9.2-1 0-.9-1.2zM8.3 10.2c-.9.1-1 0-.8-.7h.8v.7z"/></svg>