<svg xmlns="http://www.w3.org/2000/svg" viewBox="0 0 312 320"><defs><style>.cls-1{fill:none;stroke:#fff;stroke-miterlimit:10;stroke-width:5px;}</style></defs><g id="artwork"><path class="cls-1" d="M161.35,96.71s33.53-19.95,41.3-20.47V183s-32.47,12-47.3,22.76V103.24s-1.76-6.71-27-6.71S88.65,102,88.65,102V217.06s11.65-4.48,37.76-4.94c20.12-.36,27.35,6,27.35,6s10.42-6.36,32.12-6.36,33,5.48,33,5.48V102.71s-1.94-3.18-7.41-3"/><path class="cls-1" d="M78.76,112.76V218.12s1.77,9.53,9.89,9.53H218.88s10.77-.18,10.77-9.53V112.76"/><path class="cls-1" d="M102.56,125.71s15.82-6.63,36.38-1.36"/><path class="cls-1" d="M102.56,141.79s15.82-6.63,36.38-1.36"/><path class="cls-1" d="M102.56,157.87s15.82-6.63,36.38-1.36"/><path class="cls-1" d="M102.56,174s15.82-6.63,36.38-1.36"/><path class="cls-1" d="M102.56,189s15.82-6.63,36.38-1.36"/><line class="cls-1" x1="165.06" y1="115.59" x2="192.59" y2="103.06"/><line class="cls-1" x1="165.06" y1="131.25" x2="192.59" y2="118.72"/><line class="cls-1" x1="165.06" y1="146.91" x2="192.59" y2="134.38"/><line class="cls-1" x1="165.06" y1="162.58" x2="192.59" y2="150.05"/><line class="cls-1" x1="165.06" y1="178.51" x2="192.59" y2="165.99"/><circle class="cls-1" cx="156" cy="160" r="127.44"/></g></svg>