<svg xmlns="http://www.w3.org/2000/svg" viewBox="0 0 312 320"><defs><style>.cls-1{fill:none;stroke:#fff;stroke-miterlimit:10;stroke-width:5px;}</style></defs><g id="artwork"><circle class="cls-1" cx="123.12" cy="131.35" r="8.71"/><circle class="cls-1" cx="173" cy="116.35" r="8.71"/><circle class="cls-1" cx="194.71" cy="160" r="8.71"/><circle class="cls-1" cx="194.71" cy="190" r="8.71"/><circle class="cls-1" cx="144.41" cy="204.82" r="8.71"/><circle class="cls-1" cx="123.12" cy="160" r="8.71"/><circle class="cls-1" cx="158.72" cy="160.43" r="67.99"/><polyline class="cls-1" points="129.12 125.06 140.65 113.47 140.65 94.88"/><polyline class="cls-1" points="153.12 92.44 153.12 131.35 143.13 141.13 129.68 154.29"/><line class="cls-1" x1="144.41" y1="196.12" x2="144.41" y2="140.06"/><polyline class="cls-1" points="164.31 228.18 164.31 191 188.78 166.37"/><polyline class="cls-1" points="176.55 226.05 176.55 207.12 187.94 196.12"/><line class="cls-1" x1="173.94" y1="125.01" x2="173.94" y2="181.29"/><polygon class="cls-1" points="120.07 229.82 115.5 241.41 130.68 247.84 135.71 236.47 150.36 239.42 150.36 251.83 168.41 251.7 168.41 239.26 181.71 236.47 185.39 248.27 201.76 241.51 196.15 230.49 208.9 221.99 217.55 230.88 229.58 218.76 220.94 209.79 228.33 198.71 239.4 204.21 246.24 188.15 234.81 183.28 237.72 168.71 248.13 168.71 248.13 152.15 237.72 152.15 235.2 138.93 246.68 134.13 240.13 118.02 228.99 123.36 220.06 109.97 229.3 101.75 217.36 89.82 209.04 98.97 196.65 90.63 202.04 79.49 186.83 73.03 181.71 84.38 168.18 81.56 167.93 71.11 150.29 71.11 150.54 81.42 136.91 84.03 132.66 72.4 116.63 78.85 121.46 90.27 108.62 98.79 100.55 89.44 88.04 101.88 96.87 110.59 89.12 122.14 77.67 117.33 71.21 132.68 82.18 137 79.73 152.07 67.33 151.94 67.33 169.28 79.79 169.31 82.21 181.83 70.83 186.94 76.95 202.14 88.34 197.28 96.54 209.84 87.69 218.55 99.61 230.64 108.54 222 120.07 229.82"/><circle class="cls-1" cx="156" cy="160" r="127.44"/></g></svg>