<svg id="Layer_1" data-name="Layer 1" xmlns="http://www.w3.org/2000/svg" viewBox="0 0 272 272"><defs><style>.cls-1{fill:#b79962;}.cls-2{fill:none;stroke:#fff;stroke-linecap:round;stroke-linejoin:round;stroke-width:5.95px;}</style></defs><circle class="cls-1" cx="136" cy="136" r="136"/><path class="cls-2" d="M156.29,126.37c0,12.28-8,22.24-17.79,22.24s-17.79-10-17.79-22.24,8-17.78,17.79-17.78S156.29,114.09,156.29,126.37Z"/><path class="cls-2" d="M160.74,170.85v40a8.89,8.89,0,0,0,8.89,8.9h0a8.9,8.9,0,0,0,8.9-8.9V166.4a17.8,17.8,0,0,0-17.79-17.79H116.26A17.8,17.8,0,0,0,98.47,166.4v44.47a8.9,8.9,0,0,0,8.9,8.9h0a8.89,8.89,0,0,0,8.89-8.9v-40"/><line class="cls-2" x1="116.26" y1="210.87" x2="160.74" y2="210.87"/><line class="cls-2" x1="138.5" y1="166.4" x2="138.5" y2="175.3"/><line class="cls-2" x1="138.5" y1="184.19" x2="138.5" y2="193.09"/><path class="cls-2" d="M118.82,90.8c0,12.28-8,22.23-17.79,22.23s-17.79-10-17.79-22.23S91.2,73,101,73,118.82,78.52,118.82,90.8Z"/><path class="cls-2" d="M101,113H78.79A17.8,17.8,0,0,0,61,130.82V175.3a8.89,8.89,0,0,0,8.89,8.89h0a8.89,8.89,0,0,0,8.9-8.89v-40"/><line class="cls-2" x1="78.79" y1="175.3" x2="96" y2="175.3"/><path class="cls-2" d="M159.18,90.8c0,12.28,8,22.23,17.79,22.23s17.79-10,17.79-22.23S186.8,73,177,73,159.18,78.52,159.18,90.8Z"/><path class="cls-2" d="M177,113h22.24A17.8,17.8,0,0,1,217,130.82V175.3a8.89,8.89,0,0,1-8.89,8.89h0a8.89,8.89,0,0,1-8.9-8.89v-40"/><line class="cls-2" x1="199.21" y1="175.3" x2="182" y2="175.3"/></svg>