<svg id="Layer_1" data-name="Layer 1" xmlns="http://www.w3.org/2000/svg" viewBox="0 0 272 272"><defs><style>.cls-1{fill:#b79962;}.cls-2{fill:none;stroke:#fff;stroke-linecap:round;stroke-linejoin:round;stroke-width:5.95px;}</style></defs><circle class="cls-1" cx="136" cy="136" r="136"/><g id="_16" data-name="16"><path class="cls-2" d="M154.67,137.06l-1.25-11.32c8.78-7.61,14.67-21,14.67-34.17,0-19.92-2.84-36.07-30.09-36.07s-30.09,16.15-30.09,36.07c0,13.16,5.89,26.56,14.67,34.17l-1.25,11.32a10,10,0,0,1-7.23,8.49l-27.75,7.69a16.75,16.75,0,0,0-12.27,16.14V216.5H201.92V169.38a16.75,16.75,0,0,0-12.27-16.14l-27.75-7.69A10,10,0,0,1,154.67,137.06Z"/><path class="cls-2" d="M119.94,79.44s8,3.12,15.35,3.12c9.8,0,19.78-4.23,19.78-4.23s5.65,4.32,11.44,4.23"/><path class="cls-2" d="M114.1,147.68l1.82,1.51a34.61,34.61,0,0,0,44.16,0l1.82-1.51"/></g></svg>