<svg id="Layer_1" data-name="Layer 1" xmlns="http://www.w3.org/2000/svg" viewBox="0 0 272 272"><defs><style>.cls-1{fill:#b79962;}.cls-2{fill:none;stroke:#fff;stroke-linecap:round;stroke-linejoin:round;stroke-width:5.95px;}</style></defs><circle class="cls-1" cx="136" cy="136" r="136"/><g id="_9" data-name="9"><polyline class="cls-2" points="143.89 195.93 84.3 195.93 84.3 53.66 168.38 53.66 168.38 116.45"/><line class="cls-2" x1="84.3" y1="169.05" x2="133.97" y2="169.05"/><line class="cls-2" x1="124.57" y1="182.91" x2="128.11" y2="182.91"/><line class="cls-2" x1="118.71" y1="68.33" x2="133.97" y2="68.33"/><path class="cls-2" d="M164.29,207.59v-9.21c-10-3.61-18.46-20.54-17.67-30.63l-7.12-15.32A15.78,15.78,0,0,1,141.45,136l1.78-2.25a4.5,4.5,0,0,1,7.5.67l11.87,22.24a3,3,0,0,0,5.77-1.32V116.45l18.45,14.7a14.16,14.16,0,0,1,4.08,5.19c3.67,8,12.28,30.55,9.82,61.19"/><rect class="cls-2" x="159.53" y="209.53" width="44.16" height="16.81"/></g></svg>