<svg id="Layer_1" data-name="Layer 1" xmlns="http://www.w3.org/2000/svg" viewBox="0 0 272 272"><defs><style>.cls-1{fill:#b79962;}.cls-2{fill:none;stroke:#fff;stroke-linecap:round;stroke-linejoin:round;stroke-width:5.9px;}</style></defs><circle class="cls-1" cx="136" cy="136" r="136"/><g id="_2" data-name="2"><path class="cls-2" d="M121.12,214.32V180.59c0-9.31,6.66-16.86,14.88-16.86h0c8.22,0,14.88,7.55,14.88,16.86v33.73"/><path class="cls-2" d="M69.11,160.92V142.18c0-5.17,3.7-9.37,8.27-9.37h0c4.56,0,8.26,4.2,8.26,9.37v18.74Z"/><path class="cls-2" d="M112.86,153V134.28c0-5.18,3.7-9.37,8.26-9.37h0c4.57,0,8.27,4.19,8.27,9.37V153Z"/><path class="cls-2" d="M142.61,153V134.28c0-5.18,3.7-9.37,8.27-9.37h0c4.56,0,8.26,4.19,8.26,9.37V153Z"/><path class="cls-2" d="M69.11,203.08V184.34c0-5.17,3.7-9.37,8.27-9.37h0c4.56,0,8.26,4.2,8.26,9.37v18.74Z"/><path class="cls-2" d="M186.36,160.92V142.18c0-5.17,3.7-9.37,8.26-9.37h0c4.57,0,8.27,4.2,8.27,9.37v18.74Z"/><path class="cls-2" d="M186.36,203.08V184.34c0-5.17,3.7-9.37,8.26-9.37h0c4.57,0,8.27,4.2,8.27,9.37v18.74Z"/><polyline class="cls-2" points="136 84.13 136 53.68 109.14 53.68 117.2 63.05 109.14 71.95 136 71.95"/><polyline class="cls-2" points="100.97 121.66 55.68 121.66 55.68 214.32 216.32 214.32 216.32 121.66 171.03 121.66"/><polygon class="cls-2" points="100.97 106.48 136 84.13 171.03 106.48 171.03 214.32 100.97 214.32 100.97 106.48"/><ellipse class="cls-2" cx="136" cy="108.08" rx="9.06" ry="10.27"/></g></svg>