<svg xmlns="http://www.w3.org/2000/svg" viewBox="0 0 312 320"><defs><style>.cls-1,.cls-2,.cls-3{fill:none;stroke-miterlimit:10;}.cls-1{stroke:#ed1c24;}.cls-1,.cls-2{stroke-width:5px;}.cls-2,.cls-3{stroke:#fff;}.cls-3{stroke-width:5.14px;}</style></defs><g id="artwork"><circle class="cls-1" cx="217.1" cy="220.52" r="7.7"/><circle class="cls-1" cx="217.1" cy="220.52" r="7.7"/><circle class="cls-2" cx="217.1" cy="220.52" r="7.7"/><circle class="cls-2" cx="217.1" cy="220.52" r="19.24"/><path class="cls-2" d="M94.06,82.41h1.82A7.59,7.59,0,0,1,103.47,90v0a7.59,7.59,0,0,1-7.59,7.59H94.06a0,0,0,0,1,0,0V82.41a0,0,0,0,1,0,0Z"/><path class="cls-2" d="M139.31,82.41h1.82A7.59,7.59,0,0,1,148.72,90v0a7.59,7.59,0,0,1-7.59,7.59h-1.82a0,0,0,0,1,0,0V82.41A0,0,0,0,1,139.31,82.41Z" transform="translate(288.03 180) rotate(180)"/><polyline class="cls-2" points="83 120.41 83 90 94.06 90"/><polyline class="cls-2" points="150.65 90 159.59 90 159.59 121.35"/><path class="cls-2" d="M217.1,200.29V131.65s.72-15.18-18.34-15.18c-17.47,0-17.47,16.06-17.47,16.06v72.53s-1.58,26.47-30.64,26.47c-28.3,0-29.36-25.94-29.36-25.94V189.35"/><path class="cls-3" d="M115.4,173.31h4.21a7.59,7.59,0,0,1,7.59,7.59v0a7.59,7.59,0,0,1-7.59,7.59H115.4a0,0,0,0,1,0,0V173.31A0,0,0,0,1,115.4,173.31Z" transform="translate(302.19 59.6) rotate(90)"/><path class="cls-3" d="M121.29,174c-42.35,0-43.41-51.53-43.41-51.53H88.53s1.18,40.77,32.76,40.77,32.83-39.77,32.83-39.77h10.94S163.65,174,121.29,174Z"/><circle class="cls-2" cx="156" cy="160" r="127.44"/></g></svg>