<svg xmlns="http://www.w3.org/2000/svg" viewBox="0 0 312 320"><defs><style>.cls-1{fill:none;stroke:#fff;stroke-miterlimit:10;stroke-width:5px;}</style></defs><g id="artwork"><path class="cls-1" d="M223.14,204.74l-59.56,54.74a10.42,10.42,0,0,1-14.11,0L89.92,204.74a19,19,0,0,1-6.1-13.94V100A16.19,16.19,0,0,1,99.91,83.71H213.15A16.19,16.19,0,0,1,229.24,100v90.8A19,19,0,0,1,223.14,204.74Z"/><path class="cls-1" d="M215.09,137.4a.86.86,0,0,1,1.44.62v49.17a14.87,14.87,0,0,1-5,11.12L162.35,242a8.76,8.76,0,0,1-11.64,0l-49.15-43.67a14.87,14.87,0,0,1-5-11.12V138.54a.86.86,0,0,1,1.43-.63l57,52.77a2.28,2.28,0,0,0,3.11,0Z"/><path class="cls-1" d="M124.56,191.68l30.21,28.82a2.57,2.57,0,0,0,3.53,0l58.23-54.28"/><line class="cls-1" x1="96.53" y1="164.94" x2="118.73" y2="186.12"/><polygon class="cls-1" points="165.16 116.07 184.38 119.29 170.13 132.59 173 151.86 155.96 142.41 138.51 151.1 142.23 131.97 128.57 118.07 147.91 115.69 156.92 98.41 165.16 116.07"/><circle class="cls-1" cx="156" cy="160" r="127.44"/></g></svg>