<svg id="Layer_1" data-name="Layer 1" xmlns="http://www.w3.org/2000/svg" viewBox="0 0 21.72 22.53"><defs><style>.cls-1{fill:#fff;}</style></defs><path class="cls-1" d="M5.37,22.53a13.32,13.32,0,0,1-1.57-.38A5.49,5.49,0,0,1,.41,18.79,5.63,5.63,0,0,1,1.8,12.52C4.87,9.41,8,6.33,11.07,3.24l2-2A4.16,4.16,0,0,1,19,7.07c-1,1-2,2-3,3-2.78,2.77-5.57,5.53-8.33,8.33a2.5,2.5,0,1,1-3.56-3.51l5.94-5.94,5.47-5.48a3.36,3.36,0,0,0,.24-.29L17,4.38l-.15.16L5.35,16A.89.89,0,0,0,5,16.9a.82.82,0,0,0,1.38.39c.48-.45.94-.93,1.41-1.39L17.73,6a2.51,2.51,0,0,0,.6-2.88,2.48,2.48,0,0,0-3.9-.85C13.67,3,13,3.7,12.25,4.42L3,13.65a4.16,4.16,0,1,0,5.83,5.93l8.89-8.88,2.64-2.65.14-.13,1.2,1.22a2.08,2.08,0,0,0-.26.18q-5.62,5.63-11.25,11.25A6.23,6.23,0,0,1,7,22.41l-.65.12Z"/></svg>