<svg xmlns="http://www.w3.org/2000/svg" viewBox="0 0 312 320"><defs><style>.cls-1{fill:#c33a3b;}.cls-1,.cls-2{stroke:#fff;stroke-miterlimit:10;stroke-width:5px;}.cls-2{fill:none;}</style></defs><g id="artwork"><path class="cls-1" d="M207.42,185.38a87.15,87.15,0,0,1-.74,11.56"/><path class="cls-2" d="M214.53,219.12s13.39-18.41,7.18-51.53c-5-26.35-23.18-39.05-23.18-39.05l-11.41,11.05s15.09,11.28,19.17,29.88"/><path class="cls-2" d="M80.06,81.71s-.71,12,22.94,32.11,25.76,37.65,25.76,46.18-.7,23.35-24.35,45.24-22.94,26.82-22.94,32.11"/><path class="cls-2" d="M127.76,81.71s.71,12-22.94,32.11S79.06,151.47,79.06,160s.7,23.35,24.35,45.24,22.94,26.82,22.94,32.11"/><line class="cls-2" x1="82.89" y1="91.05" x2="125.18" y2="91.05"/><line class="cls-2" x1="90.66" y1="101.76" x2="117.16" y2="101.76"/><line class="cls-2" x1="90.66" y1="128.54" x2="117.16" y2="128.54"/><line class="cls-2" x1="82.89" y1="139.59" x2="124.57" y2="139.59"/><line class="cls-2" x1="80.38" y1="149.82" x2="127.76" y2="149.82"/><line class="cls-2" x1="79.06" y1="160" x2="128.76" y2="160"/><line class="cls-2" x1="80.06" y1="170.37" x2="127.76" y2="170.37"/><line class="cls-2" x1="83.68" y1="180.49" x2="124.14" y2="180.49"/><line class="cls-2" x1="89.67" y1="189.71" x2="118.44" y2="189.71"/><line class="cls-2" x1="92.83" y1="216.59" x2="114.99" y2="216.59"/><line class="cls-2" x1="83.79" y1="228.53" x2="124.18" y2="228.53"/><path class="cls-2" d="M182.53,205.36h-32V205a9,9,0,0,1,9-9l39-.27"/><path class="cls-2" d="M195,220.88h19.53v-9.09a16,16,0,0,0-16-16h0a16,16,0,0,0-16,16v9.09h8.28"/><path class="cls-2" d="M195,220.88h26.71a9,9,0,0,1,9,9v5.74H134.41v-5.74a9,9,0,0,1,9-9h47.47"/><circle class="cls-2" cx="205.24" cy="177.47" r="7.29"/><polygon class="cls-2" points="137 139.59 144.29 132.29 174.29 162.29 167.12 169.47 137 139.59"/><polygon class="cls-2" points="185 101.76 204.97 121.73 169.35 157.35 149.47 137.47 185 101.76"/><rect class="cls-2" x="192.44" y="97.8" width="18.49" height="15.14" transform="translate(-15.44 173.48) rotate(-45)"/><polygon class="cls-2" points="207.82 83.82 223.12 99.12 215.82 106.41 200.26 90.85 207.82 83.82"/><circle class="cls-2" cx="156" cy="160" r="127.44"/></g></svg>