<?xml version="1.0" encoding="UTF-8"?>
<svg id="Layer_2" data-name="Layer 2" xmlns="http://www.w3.org/2000/svg" viewBox="0 0 25.6 21.33">
	<defs>
		<style>
			.cls-1 {
				fill: #d6f379;
			}
		</style>
	</defs>
	<g id="Layer_1-2" data-name="Layer 1">
		<g>
			<path class="cls-1"
				d="m24.18,3.97c-.88-.41-1.88-.26-2.61.36l-2.88,2.47c-.27.23-.62.31-.96.22-.34-.09-.61-.33-.73-.66l-1.76-4.68c-.38-1.01-1.36-1.69-2.44-1.69s-2.06.68-2.44,1.69l-1.75,4.68c-.12.33-.39.57-.73.66-.34.09-.69,0-.96-.22l-2.88-2.47c-.73-.63-1.73-.77-2.61-.36-.88.4-1.42,1.25-1.42,2.22,0,.24.04.48.11.72l3.28,10.66c.69,2.25,2.74,3.76,5.1,3.76h8.63c2.36,0,4.4-1.51,5.1-3.77l3.28-10.66c.07-.23.11-.47.11-.71,0-.97-.54-1.82-1.42-2.22Zm-4,12.97c-.42,1.35-1.64,2.26-3.06,2.26h-8.63c-1.41,0-2.64-.91-3.06-2.26L2.15,6.29s-.01-.07-.01-.1c0-.16.1-.24.18-.28.04-.02.08-.03.14-.03.06,0,.13.02.2.08l2.88,2.47c.79.68,1.87.93,2.88.67,1.01-.26,1.83-1,2.2-1.98l1.75-4.68c.14-.37.75-.37.89,0l1.75,4.68c.37.98,1.19,1.72,2.2,1.98,1.01.26,2.09,0,2.88-.67l2.88-2.47c.12-.11.25-.08.33-.05.08.04.18.12.17.37l-3.28,10.66Z" />
			<path class="cls-1"
				d="m12.8,9.6c-1.76,0-3.2,1.44-3.2,3.2s1.44,3.2,3.2,3.2,3.2-1.44,3.2-3.2-1.44-3.2-3.2-3.2Zm0,4.27c-.59,0-1.07-.48-1.07-1.07s.48-1.07,1.07-1.07,1.07.48,1.07,1.07-.48,1.07-1.07,1.07Z" />
		</g>
	</g>
</svg>