<?xml version="1.0" encoding="UTF-8"?>
<svg id="Layer_2" data-name="Layer 2" xmlns="http://www.w3.org/2000/svg" viewBox="0 0 19.2 25.6">
	<defs>
		<style>
			.cls-1 {
				fill: #d6f379;
			}
		</style>
	</defs>
	<g id="Layer_1-2" data-name="Layer 1">
		<g>
			<path class="cls-1"
				d="m9.6,0C4.31,0,0,4.31,0,9.6c0,1.82.31,3.57.94,5.22.65,1.72,1.46,3.38,2.42,4.94,1.04,1.69,2.26,3.27,3.62,4.71.68.72,1.64,1.13,2.62,1.13s1.94-.41,2.62-1.13c1.36-1.44,2.58-3.03,3.62-4.71.96-1.56,1.78-3.22,2.42-4.94.62-1.65.94-3.4.94-5.22C19.2,4.31,14.89,0,9.6,0Zm6.67,14.07c-.6,1.59-1.35,3.13-2.24,4.57-.96,1.56-2.09,3.03-3.35,4.36-.56.6-1.59.6-2.15,0-1.26-1.33-2.39-2.8-3.35-4.36-.89-1.45-1.64-2.99-2.24-4.57-.53-1.41-.8-2.91-.8-4.47,0-4.12,3.35-7.47,7.47-7.47s7.47,3.35,7.47,7.47c0,1.56-.27,3.06-.8,4.47Z" />
			<path class="cls-1"
				d="m9.6,4.27c-2.94,0-5.33,2.39-5.33,5.33s2.39,5.33,5.33,5.33,5.33-2.39,5.33-5.33-2.39-5.33-5.33-5.33Zm0,8.53c-1.76,0-3.2-1.44-3.2-3.2s1.44-3.2,3.2-3.2,3.2,1.44,3.2,3.2-1.44,3.2-3.2,3.2Z" />
		</g>
	</g>
</svg>