<svg version="1.1" id="Layer_1" xmlns="http://www.w3.org/2000/svg" x="0" y="0" viewBox="0 0 286.05 280.67" style="enable-background:new 0 0 286.05 280.67" xml:space="preserve"><style>.st1{fill:#fff}</style><circle cx="143.03" cy="140.33" r="135.25" style="fill:#fbac33"/><path class="st1" d="M193.59 224.79H176.8v-67.35h-67.47v67.33H92.24v-74.13c0-7.07 3.23-10.32 10.26-10.32 27.14 0 54.28-.01 81.42 0 5.2 0 8.48 2.28 9.53 6.61.18.76.24 1.57.24 2.35.01 24.63.01 49.26.01 73.89-.01.53-.07 1.04-.11 1.62zM82.34 110.06c-4.97-2.49-9.9-4.95-14.82-7.42 12.22-25.42 38.94-44.87 70.53-46.63 36.81-2.05 67.08 19.19 80.49 46.59-4.93 2.47-9.86 4.94-14.88 7.45-13.33-23.75-33.35-37.1-60.64-37.11-27.24-.02-47.2 13.27-60.68 37.12z"/><path class="st1" d="M97.49 117.63c10.47-18.31 25.82-28.3 46.78-27.83 19.87.44 34.36 10.4 44.22 27.82-5.18 2.59-10.16 5.09-15.13 7.58-12.61-24.58-47.81-24.92-60.73.01-4.93-2.47-9.86-4.94-15.14-7.58zM142.89 190.98h-16.71v-16.59h16.71v16.59z"/></svg>