<svg version="1.1" id="Layer_1" xmlns="http://www.w3.org/2000/svg" x="0" y="0" viewBox="0 0 40 40" xml:space="preserve"><style>.st0{fill:none;stroke:#ffac31;stroke-width:2;stroke-linecap:round;stroke-linejoin:round;stroke-miterlimit:10}</style><path class="st0" d="M37.2 31.1H2.8l.3-.3c.7-.6 1.3-1.1 2-1.7 1.9-1.7 2.9-4 3.2-6.5.2-1.8.3-3.7.4-5.6.1-2 .2-3.9.8-5.8 1.3-3.9 4.1-6.1 8.2-6.9h.1c.4-1.6 1.1-2.2 2.4-2.1 1.1.1 1.9.8 2 2.1.7.2 1.4.3 2.1.6 3.6 1.2 5.6 3.8 6.5 7.4.4 1.6.5 3.2.5 4.9.1 1.9.2 3.8.4 5.7.4 3.1 1.9 5.5 4.4 7.3.3.2.6.5.9.7l.2.2zM24.6 33.8c-.2 2.2-2.4 4-4.9 3.8-2.2-.1-4.4-2-4.3-3.8"/></svg>