<svg version="1.1" id="Layer_1" xmlns="http://www.w3.org/2000/svg" x="0" y="0" viewBox="0 0 32 32" xml:space="preserve"><style>.st0{fill:none;stroke:red;stroke-miterlimit:10}</style><path class="st0" d="M9.9 12.2H8.6c-.6 0-1.3.3-1.7.7-.5.5-.7 1.1-.7 1.7v2.6c0 5 4.1 9.1 9.1 9.1s9.1-4.1 9.1-9.1v-2.6c0-.6-.3-1.3-.7-1.7-.5-.5-1.1-.7-1.7-.7h-9.3"/><path class="st0" d="M19.8 17.2c0-.4-.2-.8-.4-1-.3-.3-.6-.4-1-.4h-6.2c-.4 0-.8.2-1 .4-.3.3-.4.6-.4 1v.6c0 1.2.5 2.4 1.3 3.2.9.9 2 1.3 3.2 1.3 1.2 0 2.4-.5 3.2-1.3.9-.9 1.3-2 1.3-3.2v-.6zM9.9 12.2v1.5M12.7 12.2v1.5M15.4 12.2v1.5M18.2 12.2v1.5M21 12.2v1.5M12 9.4h11.6c.3 0 .6-.1.9-.3l2.4-1.5S25.3 6.5 24.5 6c-.3-.2-.6-.3-1-.3H7c-.5 0-1 .2-1.3.6-.4.3-.6.7-.6 1.2s.2 1 .6 1.3c.3.4.8.6 1.3.6h2.3M23.2 5.6v3.8M9.2 9.4V5.6M23.2 7.5h-14"/></svg>