<svg xmlns="http://www.w3.org/2000/svg" viewBox="0 0 32 32" style="enable-background:new 0 0 32 32" xml:space="preserve"><path d="M11.12 27.95c-.53-.12-1.07-.2-1.57-.38-1.63-.61-2.8-1.73-3.39-3.36-.85-2.36-.38-4.49 1.39-6.27 3.07-3.11 6.18-6.19 9.27-9.28.67-.67 1.34-1.35 2.02-2.02 2.11-2.08 5.59-1.41 6.76 1.29.67 1.54.35 3.32-.85 4.56-.98 1.01-1.98 1.99-2.97 2.98C19 18.24 16.21 21 13.45 23.8c-1.23 1.25-3.21 1-4.04-.45-.56-.99-.38-2.2.48-3.06l5.94-5.94c1.83-1.83 3.65-3.65 5.47-5.48.09-.09.16-.19.24-.29l1.19 1.22c-.04.04-.09.1-.15.16-3.83 3.83-7.65 7.66-11.48 11.48-.25.25-.4.53-.31.88.16.62.9.84 1.38.39.48-.45.94-.93 1.41-1.39l9.9-9.9c.82-.82 1.04-1.89.6-2.88-.68-1.52-2.66-1.96-3.9-.85-.76.68-1.46 1.43-2.18 2.15l-9.23 9.23c-1.07 1.07-1.51 2.33-1.26 3.82.28 1.69 1.77 3.12 3.47 3.34 1.4.19 2.61-.23 3.62-1.23 2.96-2.96 5.92-5.92 8.89-8.88.88-.88 1.76-1.76 2.64-2.65.05-.05.11-.1.14-.13.39.39.76.78 1.2 1.22-.06.04-.17.1-.26.18-3.75 3.75-7.51 7.49-11.25 11.25-.91.92-1.95 1.58-3.23 1.84-.21.04-.43.08-.65.12h-.96z"/></svg>