<?xml version="1.0" encoding="UTF-8"?>
<svg id="Layer_1" data-name="Layer 1" xmlns="http://www.w3.org/2000/svg" xmlns:xlink="http://www.w3.org/1999/xlink"
  viewBox="0 0 500 500">
  <defs>
    <style>
      .cls-1 {
        fill: url(#linear-gradient);
        stroke-width: 0px;
      }
    </style>
    <linearGradient id="linear-gradient" x1="79.28" y1="250" x2="420.72" y2="250" gradientUnits="userSpaceOnUse">
      <stop offset="0" stop-color="#0eb495" />
      <stop offset=".99" stop-color="#bbeb7d" />
    </linearGradient>
  </defs>
  <path class="cls-1"
    d="m419.93,149.78c0-1.76-.05-1.83-1.89-1.81-4.44.04-8.83-.49-13.2-1.15-15.87-2.39-67.33-29.39-76.04-73.55-.17-.86-2.11-11.82-2.09-16.49.01-2.09-.03-2.09-2.09-2.12-.48,0-.95,0-1.43,0-20.14,0-40.28,0-60.42,0-4.05,0-3.49-.51-3.49,3.56-.01,87.34-.01,174.68,0,262.02,0,3.26-.09,6.51-.67,9.7-3.04,16.9-11.69,30.12-26.35,39.16-12.69,7.82-26.47,10.06-41.09,7.17-4.61-.91-8.93-2.65-13.27-4.37-.35-.32-.7-.64-1.05-.96-1.46-1.22-3.06-2.23-4.62-3.31-18.64-12.91-27.49-30.83-24.79-53.24,2.73-22.74,15.81-38.17,37.36-46.12,6.43-2.37,13.2-3.35,20.07-2.99,4.43.24,8.83.8,13.12,2.02,1.49.42,2.29-.1,2.36-1.68.03-.55.04-1.11.04-1.66,0-15.68-.58-49.93-.66-50,.03-4.51.03-9.03.11-13.54.02-1.3-.62-1.53-1.72-1.66-8.12-.96-16.25-1.15-24.42-.55-11.29.83-22.23,3.14-32.86,6.97-16.96,6.1-31.85,15.53-44.7,28.13-11.04,10.81-19.72,23.32-26.08,37.41-6.09,13.49-9.58,27.64-10.54,42.38-.42,6.39-.34,12.81.25,19.22.82,8.86,2.5,17.54,5.19,26,7.75,24.33,21.83,44.3,41.81,60.14,2.03,1.61,3.98,3.38,6.42,4.42,0,0,0,0,0,0,1.02.9,2.04,1.81,3.06,2.71,3.24,2.44,6.7,4.52,10.32,6.31,22.38,11.06,45.96,15.55,70.81,12.52,32.25-3.94,59.11-18.23,80.26-42.84,19.91-23.17,29.58-50.37,29.75-80.78.25-43.49.06-86.99.09-130.49,0-1.04-.6-2.51.54-3.03.9-.41,1.79.78,2.64,1.33,16.19,10.63,33.64,18.32,52.55,22.65,11,2.52,22.12,4.04,33.43,4.03,3.57,0,4.04-.18,4.05-3.72.02-15.45-.79-57.67-.79-61.78Z" />
</svg>